<?xml version="1.0" encoding="UTF-8"?>
<svg id="99f82b93-4269-4466-93f6-75a4ca4c24fd" width="56" height="44.333" enable-background="new 72 0 375 812" version="1.1" viewBox="72 0 56 44.333" xmlns="http://www.w3.org/2000/svg" xmlns:cc="http://creativecommons.org/ns#" xmlns:dc="http://purl.org/dc/elements/1.1/" xmlns:rdf="http://www.w3.org/1999/02/22-rdf-syntax-ns#" xmlns:xlink="http://www.w3.org/1999/xlink">
 <defs>
  <clipPath id="1f9b68c1-60d3-4b44-8eb0-5302c187f151">
   <path id="c4499fc1-f79a-4aa4-b54f-5fd5e95c0faf" transform="translate(0,44)" d="m338.67-26.667h16.667c1.4728 0 2.6667 1.1939 2.6667 2.6667v6c0 1.4728-1.1939 2.6667-2.6667 2.6667h-16.667c-1.4728 0-2.6667-1.1939-2.6667-2.6667v-6c0-1.4728 1.1939-2.6667 2.6667-2.6667z" style="fill:#fff" name="Shape"/>
  </clipPath>
  <clipPath id="84337bf4-535b-41f4-a6a0-80b0d8915984">
   <path transform="translate(0,44)" d="m359-23v4c0.80469-0.33878 1.328-1.1269 1.328-2s-0.52331-1.6612-1.328-2" style="fill:#fff" name="Shape"/>
  </clipPath>
  <clipPath id="8c3da31f-de43-4cd3-9b0e-0ccfb73df357">
   <path id="276c75d0-2370-424b-9f45-3cf2eb4e73cc" transform="translate(0,44)" d="m339.33-24.667h15.333c0.73633 0 1.3333 0.59696 1.3333 1.3333v4.6667c0 0.73638-0.59698 1.3333-1.3333 1.3333h-15.333c-0.73633 0-1.3333-0.59696-1.3333-1.3333v-4.6667c0-0.73638 0.59698-1.3333 1.3333-1.3333z" style="fill:#fff" name="Shape"/>
  </clipPath>
  <clipPath id="dc923a7c-e33d-4779-8b50-7f255a2ec9bd">
   <path transform="translate(0,44)" d="m323.33-24.392c2.2159 1.01e-4 4.3471 0.85153 5.953 2.3783 0.12101 0.11788 0.31431 0.11639 0.43342-0.0033l1.156-1.1667c0.0603-0.06072 0.0939-0.14297 0.0934-0.22855-4.8e-4 -0.08558-0.0351-0.16743-0.0961-0.22745-4.2151-4.0395-10.865-4.0395-15.08 0-0.0611 0.05997-0.0957 0.1418-0.0963 0.22738-4.9e-4 0.08558 0.033 0.16786 0.0933 0.22862l1.1563 1.1667c0.11911 0.1199 0.3125 0.12139 0.43341 0.0033 1.6061-1.5269 3.7375-2.3783 5.9536-2.3783zm0 3.7957c1.2175-8e-5 2.3916 0.45245 3.294 1.2697 0.1221 0.11598 0.31439 0.11347 0.43341-0.0057l1.1546-1.1667c0.0608-0.06119 0.0946-0.14421 0.0937-0.23048-8.9e-4 -0.08626-0.0363-0.16857-0.0983-0.22852-2.7482-2.5564-7.0042-2.5564-9.7524 0-0.062 0.05995-0.0975 0.1423-0.0983 0.22859-7.9e-4 0.08629 0.0331 0.1693 0.094 0.23041l1.1543 1.1667c0.11901 0.11913 0.31131 0.12164 0.43341 0.0057 0.90179-0.81667 2.0749-1.2692 3.2916-1.2697zm2.219 2.7843c0.0618-0.06061 0.0958-0.14401 0.094-0.23051-2e-3 -0.08651-0.0391-0.16846-0.1033-0.22649-1.2756-1.0789-3.1438-1.0789-4.4193 0-0.0643 0.05799-0.10169 0.13991-0.10349 0.22641-2e-3 0.08651 0.0321 0.16994 0.0938 0.23059l1.9977 2.0157c0.0585 0.05924 0.13831 0.09257 0.22159 0.09257 0.0833 0 0.16312-0.03333 0.22171-0.09257z" style="fill:#fff" name="Shape"/>
  </clipPath>
  <clipPath id="243bde36-ab8f-42a7-a7b1-40bcda06243d">
   <path transform="translate(0,44)" d="m294.67-19.667h1c0.5523 0 1 0.44772 1 1v2c0 0.55229-0.4477 1-1 1h-1c-0.55228 0-1-0.44771-1-1v-2c0-0.55228 0.44772-1 1-1zm4.6666-2h1c0.55228 0 1 0.44772 1 1v4c0 0.55229-0.44772 1-1 1h-1c-0.5523 0-1-0.44771-1-1v-4c0-0.55228 0.4477-1 1-1zm4.6667-2.3333h1c0.55231 0 1 0.44772 1 1v6.3333c0 0.55229-0.44769 1-1 1h-1c-0.55231 0-1-0.44771-1-1v-6.3333c0-0.55228 0.44769-1 1-1zm4.6667-2.3333h1c0.5523 0 1 0.44771 1 1v8.6667c0 0.55229-0.4477 1-1 1h-1c-0.55228 0-1-0.44771-1-1v-8.6667c0-0.55229 0.44772-1 1-1z" style="fill:#fff" name="Shape"/>
  </clipPath>
 </defs>
 <title>Control Panel</title>
 <defs>
  <clipPath id="clip-path-150-150-24-24-24-24">
   <path d="m24 0h102a24 24 0 0 1 24 24v102a24 24 0 0 1-24 24h-102a24 24 0 0 1-24-24v-102a24 24 0 0 1 24-24z"/>
  </clipPath>
  <filter id="filter-7-drop-shadow-0-3-5.5-RGB" x="0" y="0" width="1" height="1">
   <feDropShadow dx="0" dy="3" flood-color="rgba(10,77,162,0.058823529411764705)" in="SourceGraphic" stdDeviation="5.5"/>
  </filter>
  <filter id="filter-9-drop-shadow-0-3-5.5-RGB" x="0" y="0" width="1" height="1">
   <feDropShadow dx="0" dy="3" flood-color="rgba(10,77,162,0.058823529411764705)" in="SourceGraphic" stdDeviation="5.5"/>
  </filter>
  <filter id="filter-12-drop-shadow-0-3-5.5-RGB" x="0" y="0" width="1" height="1">
   <feDropShadow dx="0" dy="3" flood-color="rgba(10,77,162,0.058823529411764705)" in="SourceGraphic" stdDeviation="5.5"/>
  </filter>
  <filter id="filter-14-drop-shadow-0-3-5.5-RGB" x="0" y="0" width="1" height="1">
   <feDropShadow dx="0" dy="3" flood-color="rgba(10,77,162,0.058823529411764705)" in="SourceGraphic" stdDeviation="5.5"/>
  </filter>
  <filter id="filter-15-drop-shadow-0--7-3-RGB" x="0" y="0" width="1" height="1">
   <feDropShadow dx="0" dy="-7" flood-color="rgba(86,139,208,0.050980392156862744)" in="SourceGraphic" stdDeviation="3"/>
  </filter>
  <clipPath id="clip-path-9-3-0-0-1-1">
   <path d="m0 0h9v2a0.5 0-90 0 0 0 1h-7a1 1 0 0 1-1-1v-2z"/>
  </clipPath>
 </defs>
 <g id="37357de5-e62e-41eb-bec5-a4f642ac463c" transform="translate(53 -287)" name="status bar/light">
  <path id="3bbc3713-6ead-4edf-9092-32cfe17d923e" transform="translate(-12,29)" d="m0-44h375v44h-375z" style="display:none;fill:#fff" name="Background"/>
  <rect x="-269.22" y="11.506" width="195.16" height="178.9" style="stroke-width:9.3203;stroke:#fff"/>
  <g id="9bc8d580-8f6c-4fed-bf94-dc4e40858fbc" transform="translate(-555.06 31.677)" name="Battery">
   <g clip-path="url(#1f9b68c1-60d3-4b44-8eb0-5302c187f151)" name="Border">
    <path transform="translate(336 17.333)" d="m2.6667 0h16.667c1.4728 0 2.6667 1.1939 2.6667 2.6667v6c0 1.4728-1.1939 2.6667-2.6667 2.6667h-16.667c-1.4728 0-2.6667-1.1939-2.6667-2.6667v-6c0-1.4728 1.1939-2.6667 2.6667-2.6667z" style="fill:#fff;stroke-width:2px" name="Fill"/>
   </g>
   <g clip-path="url(#84337bf4-535b-41f4-a6a0-80b0d8915984)" name="Cap">
    <path transform="translate(0,44)" d="m354-28h11.328v14h-11.328z" style="fill:#fff" name="Fill"/>
   </g>
   <g id="61899411-2959-4b0c-9116-ca7fa95979eb" clip-path="url(#8c3da31f-de43-4cd3-9b0e-0ccfb73df357)" name="Capacity">
    <path transform="translate(0,44)" d="m333-29.667h28v17.333h-28z" style="fill:#fff" name="Fill"/>
   </g>
  </g>
  <g transform="translate(-431.86 38.703)" name="Cellular Connection">
   <g id="827c384e-a3cf-4143-a4d2-b56c71ab12ef" clip-path="url(#243bde36-ab8f-42a7-a7b1-40bcda06243d)" name="Cellular Connection">
    <path transform="translate(0,44)" d="m288.67-31.333h27v20.667h-27z" style="fill:#fff" name="Fill"/>
   </g>
  </g>
  <g transform="translate(-500.42 49.347)" name="Wifi">
   <g clip-path="url(#dc923a7c-e33d-4779-8b50-7f255a2ec9bd)" name="Wifi">
    <path transform="translate(0,44)" d="m310.69-31.669h25.272v20.966h-25.272z" style="fill:#fff" name="Fill"/>
   </g>
  </g>
 </g>
 <g id="14c6c7b2-eb51-4f22-b104-a511d9bbfd2c" transform="translate(44 -296)" name="Rooms">
  <g id="0ca886e3-373d-41ce-865c-5c164475ed1b" transform="translate(185,-160)" name="Group 2">
   <g transform="translate(-156.25,369.25)" name="bed">
    <path transform="translate(-.6 -1.35)" d="m6 16h44.2v22.95h-44.2z" style="fill:#ed539d" name="Path 5"/>
    <g transform="translate(4.55 7.85)" name="Group 1">
     <path transform="translate(-12.05,-8)" d="m57.1 10.55v4.25h-5.1v-4.25c0-1.4083 1.1417-2.55 2.55-2.55s2.55 1.1417 2.55 2.55z" style="fill:#b39a7c" name="Path 6"/>
     <path transform="translate(-5.15 -8)" d="m11.1 10.55v4.25h-5.1v-4.25c0-1.4083 1.1417-2.55 2.55-2.55 1.4083 0 2.55 1.1417 2.55 2.55z" style="fill:#b39a7c" name="Path 7"/>
     <path transform="translate(-12.35,-14.3)" d="m58.25 50v5.1h-2.55l-1.7-5.1z" style="fill:#b39a7c" name="Path 8"/>
     <path id="15d242d3-1904-4a6a-a194-46af70ac334e" transform="translate(-5,-14.3)" d="m9.25 50-1.7 5.1h-2.55v-5.1z" style="fill:#b39a7c" name="Path 9"/>
    </g>
    <path transform="translate(-.15 -5.25)" d="m3 42h49.3v6.8h-49.3z" style="fill:#ffda44" name="Path 10"/>
    <path transform="translate(-4.8 -2.55)" d="m49.3 25.7v5.1h-15.3v-5.1c0.0028-0.93772 0.76228-1.6972 1.7-1.7h11.9c0.93773 0.0028 1.6972 0.76228 1.7 1.7z" style="fill:#d8d7da" name="Path 11"/>
    <path transform="translate(-1.5 -2.55)" d="m27.3 25.7v5.1h-15.3v-5.1c0.0028-0.93772 0.76228-1.6972 1.7-1.7h11.9c0.93772 0.0028 1.6972 0.76228 1.7 1.7z" style="fill:#d8d7da" name="Path 12"/>
    <path transform="translate(-.44999 -3.75)" d="m50.9 37.1v3.4h-45.9v-3.4c-0.00401-1.0017 0.29204-1.9816 0.85-2.8135 0.94178-1.4286 2.5389-2.2879 4.25-2.2865l35.7 2e-6c1.7111-0.0014 3.3082 0.85787 4.25 2.2865 0.55795 0.8319 0.854 1.8118 0.85 2.8135z" style="fill:#5aaae7" name="Path 13"/>
    <path id="b6693dbb-b160-4aa1-a61b-8914cf94425e" d="m52.15 35.9h-0.85v-2.55c-9.84e-4 -1.0755-0.29483-2.1304-0.84999-3.0515l-4e-6 -19.898c0-1.8778-1.5222-3.4-3.4-3.4-1.8778 0-3.4 1.5222-3.4 3.4v3.4h-32.3v-3.4c0-1.8778-1.5222-3.4-3.4-3.4-1.8778 0-3.4 1.5222-3.4 3.4v19.898c-0.55517 0.92111-0.84901 1.976-0.85 3.0515l4e-7 2.55h-0.85c-0.46944 0-0.85 0.38056-0.85 0.85v6.8c0 0.46944 0.38056 0.85 0.85 0.85h0.85v4.25c0 0.46944 0.38056 0.85 0.85 0.85h2.55c0.36426-0.0027 0.68752-0.23405 0.8075-0.578l1.5045-4.522h36.176l1.5045 4.522c0.11998 0.34395 0.44324 0.57534 0.8075 0.578l2.55-4e-6c0.46944 0 0.85-0.38056 0.85-0.85v-4.25h0.85c0.46944 0 0.85-0.38056 0.85-0.85v-6.8c0-0.46944-0.38056-0.85-0.85-0.85zm-6.8-25.5c0-0.93888 0.76112-1.7 1.7-1.7 0.93888 0 1.7 0.76112 1.7 1.7v3.4h-3.4zm-39.1 0c0-0.93888 0.76112-1.7 1.7-1.7 0.93888 0 1.7 0.76112 1.7 1.7v3.4h-3.4zm0 5.1h42.5v12.971c-0.99693-0.69673-2.1837-1.0706-3.4-1.071v-4.25c-0.0042-1.4066-1.1434-2.5458-2.55-2.55h-11.9c-1.4066 0.0042-2.5458 1.1434-2.55 2.55l3e-6 4.25h-1.7v-4.25c-0.0042-1.4066-1.1434-2.5458-2.55-2.55h-11.9c-1.4066 0.004202-2.5458 1.1434-2.55 2.55l1.9e-6 4.25c-1.2163 4.29e-4 -2.4031 0.37427-3.4 1.071zm37.4 7.65v4.25h-13.6v-4.25c0-0.46944 0.38056-0.85 0.85-0.85h11.9c0.46944 0 0.85 0.38056 0.85 0.85zm-18.7 0v4.25h-13.6v-4.25c0-0.46944 0.38056-0.85 0.85-0.85h11.9c0.46944 0 0.85 0.38056 0.85 0.85zm-19.55 10.2c0-2.3472 1.9028-4.25 4.25-4.25h35.7c2.3472 0 4.25 1.9028 4.25 4.25v2.55h-44.2zm1.088 14.45h-1.088v-3.4h2.2185zm43.112 0h-1.088l-1.1305-3.4h2.2185zm1.7-5.1h-47.6v-5.1h47.6z" name="Path 14"/>
   </g>
  </g>
  <g transform="translate(197.66 281.5)" name="Group 5">
   <rect transform="translate(24,262)" width="150" height="150" clip-path="url(#clip-path-150-150-24-24-24-24)" style="fill:#fff;filter:url(#filter-7-drop-shadow-0-3-5.5-RGB)" name="Rectangle 1"/>
   <g transform="translate(-176,251)" name="kitchen">
    <path transform="translate(-101.06 -223.78)" d="m136 272h23.434v6.2491h-23.434z" style="fill:#4d6378" name="Path 55"/>
    <path id="cdb59c36-0120-409c-8e32-b5b84822d31c" transform="translate(-101.06 -223.78)" d="m152.4 278.25v-6.2491h-9.3736v6.2491h-7.0302v10.155h23.434v-10.155z" style="fill:#42566b" name="Path 56"/>
    <path transform="rotate(180 34.653 34.653)" d="m0 0h10.936v21.091h-10.936z" style="fill:#f6bb00" name="Path 57"/>
    <path transform="translate(1.9073e-6)" d="m24 24h10.936v17.966h-10.936z" style="fill:#f6bb00" name="Path 58"/>
    <path transform="translate(1.9073e-6 -223.78)" d="m24 272h10.936v21.091h-10.936z" style="fill:#f6bb00" name="Path 59"/>
    <path id="72fc5647-91fe-4680-8c41-3d018872d66b" transform="translate(-382.6 -245.44)" d="m448 296h1.5623v3.1245h-1.5623z" style="fill:#eda600" name="Path 60"/>
    <path transform="rotate(180 34.653 20.983)" d="m0 0h10.936v17.966h-10.936z" style="fill:#f6bb00" name="Path 61"/>
    <path id="73f9e889-66f6-439e-88b8-782641e96d7b" transform="translate(-129.94 -137.16)" d="m168 176h17.185v3.1245h-17.185z" style="fill:#42566b" name="Path 62"/>
    <path transform="translate(-129.94 -108.28)" d="m185.18 147.12-3.1245-3.1246h-10.936l-3.1245 3.1246z" style="fill:#4d6378" name="Path 63"/>
    <path id="afded3f9-7907-4806-868f-d1e9b06508df" transform="translate(-187.69 -245.44)" d="m232 296h4.6868v1.5623h-4.6868z" style="fill:#02c26a" name="Path 64"/>
    <g transform="translate(36.27 50.428)" name="Group 12">
     <circle transform="translate(-.27035 -.42844)" cx="1" cy="1" r="1" style="fill:#42566b" name="Ellipse 5"/>
     <ellipse transform="translate(2.7297 -.42844)" cx=".5" cy="1" rx=".5" ry="1" style="fill:#42566b" name="Ellipse 6"/>
     <ellipse id="eacafa74-f007-4c90-880f-1493f958cecf" transform="translate(16.73 -.42844)" cx=".5" cy="1" rx=".5" ry="1" style="fill:#42566b" name="Ellipse 7"/>
     <circle id="3f95f3f8-d6b6-42e2-bc8c-648d122073ca" transform="translate(18.73 -.42844)" cx="1" cy="1" r="1" style="fill:#42566b" name="Ellipse 8"/>
    </g>
    <path transform="translate(-129.94 -310.41)" d="m168 368h17.185v3.9057h-17.185z" style="fill:#84d8e8" name="Path 65"/>
    <path transform="translate(-101.06 -375.38)" d="m136 440h23.434v4.6868h-23.434z" style="fill:#eda600" name="Path 66"/>
    <path transform="translate(-101.06)" d="m136 24h11.717v11.717h-11.717z" style="fill:#eda600" name="Path 67"/>
    <path id="f0db0803-7483-40ed-9fe4-3a023b870e6a" transform="translate(-173.25 -57.751)" d="m216 88h1.5623v3.1245h-1.5623z" style="fill:#cf8300" name="Path 68"/>
    <path id="ffb352fc-0c33-4589-9074-507fe505cc9e" transform="translate(-21.657 -115.5)" d="m48 152h1.5623v3.1245h-1.5623z" style="fill:#eda600" name="Path 69"/>
    <path transform="translate(-21.657 -245.44)" d="m48 296h1.5623v3.1245h-1.5623z" style="fill:#eda600" name="Path 70"/>
    <path id="2527386c-3f9d-466e-91bd-060c8eed63ba" transform="rotate(180 29.185 17.859)" d="m0 0h11.717v11.717h-11.717z" style="fill:#de9400" name="Path 71"/>
    <path id="1adaaf2f-086f-4c9c-ae48-8568d6c1608b" transform="translate(-231 -57.751)" d="m280 88h1.5623v3.1245h-1.5623z" style="fill:#cf8300" name="Path 72"/>
    <path transform="translate(-382.6 -115.5)" d="m448 152h1.5623v3.1245h-1.5623z" style="fill:#eda600" name="Path 73"/>
   </g>
  </g>
  <g transform="translate(0,307)" name="Group 7">
   <rect id="4b63de33-c856-4dd4-af74-274208e2710c" transform="translate(24,262)" width="150" height="150" clip-path="url(#clip-path-150-150-24-24-24-24)" style="fill:#fff;filter:url(#filter-9-drop-shadow-0-3-5.5-RGB)" name="Rectangle 1"/>
   <g transform="translate(43.875 404.47)" name="house">
    <rect id="506afd03-5356-4c20-a16f-124b06074abf" transform="translate(35.9 6.9)" width="5.5" height="9.6" style="fill:#f05540" name="Rectangle 7"/>
    <rect id="9c9b5923-6ae0-4843-a0b8-884a6339a66f" transform="translate(33.8 2)" width="9.7" height="5.2" style="fill:#f3705a" name="Rectangle 8"/>
    <path transform="translate(-40.6 -60.9)" d="m44.8 86.8v22.1h39.2v-22.1c-7.7-7.7-12-12-19.6-19.6-7.5999 7.7-11.9 12-19.6 19.6z" style="fill:#ffd15c" name="Path 96"/>
    <path transform="translate(-40.6 -60.9)" d="m84.1 86.8c-7.7-7.7-12-12-19.6-19.6-3.9 3.8-6.9 6.8-9.9 9.8s-6 6-9.8 9.8v4.5c7.7-7.7 12-12 19.6-19.6 7.7 7.7 12 12 19.6 19.6v0.59999-5.1h0.09994z" style="fill:#f7b64c" name="Path 97"/>
    <path transform="translate(-82.167 -294.83)" d="m102.47 342.83h-11.8v-11.6c0-3.3 2.7-5.9 5.9-5.9 3.3 0 5.9 2.7 5.9 5.9z" style="fill:#415a6b" name="Path 98"/>
    <rect id="57cf2399-2c0e-4136-bec1-2da7a2652eff" transform="translate(23.8 30.5)" width="15.4" height="13.5" style="fill:#344a5e" name="Rectangle 9"/>
    <g id="47954337-973d-4a64-8ca1-e01a443faf2f" transform="translate(25.4 32.1)" name="Group 14">
     <rect width="5.3" height="10.3" style="fill:#8ad7f8" name="Rectangle 10"/>
     <rect transform="translate(6.9)" width="5.3" height="10.3" style="fill:#8ad7f8" name="Rectangle 11"/>
    </g>
    <path id="0843984d-d9ed-4030-a9f4-2d2adf9f07ab" d="m47.1 21.8-20.9-20.9c-1.2-1.2-3.3-1.2-4.5 0l-20.8 20.9c-1.2 1.2-1.2 3.3 0 4.5 1.2 1.2 3.3 1.2 4.5 0l18.6-18.6 18.6 18.6c1.2 1.2 3.3 1.2 4.5 0 1.2-1.2999 1.2-3.3 0-4.5z" style="fill:#f3705a" name="Path 99"/>
   </g>
  </g>
  <g transform="translate(274,-76)" name="Group 3">
   <g transform="translate(-246 318.66)" name="room">
    <path transform="translate(-376.7 -256.75)" d="m431.46 344.02v-1.8285c0-0.31915-0.26117-0.58035-0.58023-0.58035h-7.339c-0.31918 0-0.58026 0.2612-0.58026 0.58035v1.8285z" style="fill:#9ce8ff" name="Path 15"/>
    <g transform="translate(45.021 94.315)" name="Group 8">
     <path id="4798f74c-7475-4575-bcaa-012d1605f82a" transform="translate(-411.62 -428)" d="m411.62 428v2.7657c0 0.31915 0.2612 0.58035 0.58032 0.58035h1.0452c0.31915 0 0.58023-0.2612 0.58023-0.58035v-2.7657z" style="fill:#ffaf68" name="Path 16"/>
     <path id="e73c8466-dfb6-483e-bf49-271fcc379b3c" transform="translate(-483.06 -428)" d="m491.83 430.77c0 0.31915 0.26111 0.58035 0.58027 0.58035h1.0453c0.31903 0 0.58026-0.2612 0.58026-0.58035v-2.7657h-2.2057v2.7657z" style="fill:#ffaf68" name="Path 17"/>
    </g>
    <rect id="bdafc611-ec25-4232-8705-4b39e148213b" transform="translate(45.021 91.839)" width="10.978" height="2.8327" style="fill:#cb7c52" name="Rectangle 4"/>
    <path transform="translate(-366.6 -273.47)" d="m422.01 360.39h-9.798c-0.32464 0-0.5903 0.26565-0.5903 0.59051v4.6989h10.979v-4.6989c0-0.32495-0.26556-0.59051-0.5903-0.59051z" style="fill:#ab5436" name="Path 18"/>
    <path transform="translate(-395.29 -291.32)" d="m446.92 382.12h-2.2428c-0.4667 0-0.84494-0.37824-0.84494-0.84491 0-0.46686 0.37824-0.84491 0.84494-0.84491h2.2428c0.46683 0 0.84491 0.37805 0.84491 0.84491 0 0.46667-0.37808 0.84491-0.84491 0.84491z" style="fill:#cb7c52" name="Path 19"/>
    <path transform="translate(-30.603 -143.02)" d="m36.002 238.4v-23.66c0-0.45315-0.36717-0.82031-0.82031-0.82031-0.45314 0-0.82031 0.36716-0.82031 0.82031v23.66z" style="fill:#08375e" name="Path 20"/>
    <path id="aa94f0b8-854f-41d3-9e83-72da9e712e8d" transform="translate(-6.9914 -339.38)" d="m15.413 434.4h-6.9999c-0.30986 0-0.56339 0.25354-0.56339 0.56329v1.5276c0 0.30973 0.25353 0.56327 0.56339 0.56327h6.9999z" style="fill:#63c3ea" name="Path 21"/>
    <g transform="translate(.85859 95.015)" style="opacity:.1" name="Group 9">
     <path transform="translate(-7.85 -434.4)" d="m10.315 436.49v-1.5276c0-0.30972 0.25342-0.56326 0.56328-0.56326h-2.4653c-0.30986 0-0.56339 0.25354-0.56339 0.56326v1.5276c0 0.30975 0.25353 0.56329 0.56339 0.56329h2.4653c-0.30986 0-0.56328-0.25354-0.56328-0.56329z" style="fill:#231f20" name="Path 22"/>
    </g>
    <path id="3789ba2b-b7c3-447e-948b-b802dae283fa" transform="translate(0 -69.555)" d="m9.1572 142.22c0 0.30986-0.25353 0.56328-0.56339 0.56328h-8.0305c-0.30975 0-0.56328-0.25342-0.56328-0.56328v-10.227c0-0.30995 0.25353-0.56338 0.56328-0.56338h8.0304c0.30986 0 0.56339 0.25343 0.56339 0.56338z" style="fill:#ff9f3d" name="Path 23"/>
    <path id="c478ee90-210f-45ac-9f1b-7023d6ac493a" transform="translate(0 -69.555)" d="m2.4224 142.22v-10.227c0-0.30995 0.25353-0.56338 0.56339-0.56338h-2.4225c-0.30975 0-0.56328 0.25343-0.56328 0.56338v10.227c0 0.30986 0.25353 0.56328 0.56328 0.56328h2.4227c-0.30986 0-0.5635-0.25342-0.5635-0.56328z" style="fill:#231f20;opacity:.1" name="Path 24"/>
    <path transform="translate(-95.314 -191.61)" d="m135.23 268.48h-27.088c-0.61971 0-1.1268 0.50708-1.1268 1.1268v11.399h29.341v-11.399c0-0.61972-0.50685-1.1267-1.1267-1.1267z" style="fill:#ffbb4a" name="Path 25"/>
    <path id="2f2c27f3-600a-4d04-b15f-fbab3d622eea" transform="translate(-95.314 -191.61)" d="m110.11 268.48h-1.9667c-0.61971 0-1.1268 0.50708-1.1268 1.1268v11.399h1.9667v-11.399c0-0.61972 0.50707-1.1267 1.1268-1.1267z" style="fill:#231f20;opacity:.1" name="Path 26"/>
    <rect id="3577bf80-1874-4732-8eb4-009edc02962d" transform="translate(25.555 76.867)" width="1.6406" height="12.526" style="fill:#ff9f3d" name="Rectangle 5"/>
    <g id="e4823f70-c20c-4be4-9c11-c8636ad9954b" transform="translate(16.175 83.2)" name="Group 10">
     <path id="1dcf4c18-0ef9-4cd1-946c-88621095608c" transform="translate(-147.89 -326.38)" d="m154.08 332c0 0.30988-0.25342 0.56342-0.56326 0.56342h-5.0624c-0.30984 0-0.56326-0.25354-0.56326-0.56342v-5.0665c0-0.30972 0.25342-0.56326 0.56326-0.56326h5.0624c0.30984 0 0.56326 0.25354 0.56326 0.56326z" style="fill:#3eaf91" name="Path 27"/>
     <path id="d48d9091-b747-458c-b101-8716cb1f7c6f" transform="translate(-267.35 -326.38)" d="m288.21 332c0 0.30988-0.25342 0.56342-0.56329 0.56342h-5.0624c-0.30987 0-0.56341-0.25354-0.56341-0.56342v-5.0665c0-0.30972 0.25354-0.56326 0.56341-0.56326h5.0624c0.30987 0 0.56329 0.25354 0.56329 0.56326z" style="fill:#3eaf91" name="Path 28"/>
    </g>
    <rect transform="translate(11.705 88.976)" width="29.341" height="5.7969" style="fill:#ff9f3d" name="Rectangle 6"/>
    <path id="51e31fa9-22ca-4094-83d0-11037906d15f" transform="translate(-62.648 -255.72)" d="m74.239 340.46h-2.7507c-0.63044 0-1.1462 0.51605-1.1462 1.1467v11.2c0 0.31543 0.2578 0.57355 0.57301 0.57355h3.8969c0.31522 0 0.57314-0.25812 0.57314-0.57355v-11.2c1.06e-4 -0.63065-0.51582-1.1467-1.1461-1.1467z" style="fill:#fcc96c" name="Path 29"/>
    <path transform="translate(-62.648 -255.72)" d="m72.76 352.81v-11.2c0-0.63077 0.5157-1.1467 1.1461-1.1467h-2.4182c-0.63044 0-1.1462 0.51605-1.1462 1.1467v11.2c0 0.31543 0.2578 0.57355 0.57301 0.57355h2.4182c-0.31511 0-0.57291-0.25824-0.57291-0.57355z" style="fill:#231f20;opacity:.1" name="Path 30"/>
    <path transform="translate(-325.84 -255.72)" d="m369.75 340.46h-2.7507c-0.63043 0-1.1461 0.51605-1.1461 1.1467v11.2c0 0.31543 0.25793 0.57355 0.57315 0.57355h3.8969c0.31509 0 0.57303-0.25812 0.57303-0.57355v-11.2c0-0.63065-0.51584-1.1467-1.1463-1.1467z" style="fill:#fcc96c" name="Path 31"/>
    <path transform="translate(-325.84 -255.72)" d="m367.7 352.81v-11.2c0-0.63077 0.51569-1.1467 1.1461-1.1467h-1.8443c-0.63043 0-1.1462 0.51605-1.1462 1.1467v11.2c0 0.31543 0.25794 0.57355 0.57315 0.57355h1.8442c-0.31522 0-0.573-0.25824-0.573-0.57355z" style="fill:#231f20;opacity:.1" name="Path 32"/>
    <path transform="translate(-106.81 -21.142)" d="m145.85 77.074h-25.323c-0.32856 0-0.59729 0.26895-0.59729 0.59773v13.985c0 0.32878 0.26873 0.59773 0.59729 0.59773h25.323c0.32855 0 0.59729-0.26895 0.59729-0.59773v-13.985c0-0.32878-0.26874-0.59773-0.59729-0.59773z" style="fill:#ab5436" name="Path 33"/>
    <path transform="translate(-126.26 -40.609)" d="m142.1 109.33c-0.18047 0-0.32812-0.14766-0.32812-0.32812v-9.7425c0-0.18047 0.14765-0.32812 0.32812-0.32812h21.084c0.18045 0 0.32811 0.14765 0.32811 0.32812v9.7425c0 0.18046-0.14766 0.32812-0.32811 0.32812z" style="fill:#b1e8ff" name="Path 34"/>
    <g id="28bfdd82-3700-4591-b216-d3b3b336317a" transform="translate(5.515 53.336)" name="Group 11">
     <path transform="translate(-351.87 -198.73)" d="m391.69 222.25c-0.13156 0-0.24762-0.0863-0.28622-0.21328-0.46985-1.5263-0.79276-1.8529-2.3018-2.3284-0.12546-0.0395-0.21076-0.15673-0.21076-0.28994 0-0.13256 0.0853-0.25015 0.21076-0.28964 1.509-0.47523 1.8319-0.8016 2.3018-2.3285 0.0387-0.12655 0.15466-0.21317 0.28622-0.21317 0.13159 0 0.24741 0.0866 0.28659 0.21317 0.4701 1.5269 0.79218 1.8532 2.3013 2.3285 0.12546 0.0395 0.21076 0.15708 0.21076 0.28964 0 0.13332-0.0852 0.25046-0.21076 0.28994-1.5092 0.47546-1.8312 0.80206-2.3013 2.3284-0.0392 0.12699-0.155 0.21328-0.28659 0.21328z" style="fill:#ffbb4a" name="Path 35"/>
     <path id="51712be5-ad0c-4f7e-8a07-38a9bb01a35f" transform="translate(-383.05 -95.604)" d="m427 107.07c-0.1456 0-0.27399-0.0955-0.31687-0.23623-0.52029-1.6904-0.87784-2.0521-2.5492-2.5786-0.13892-0.0436-0.23331-0.17336-0.23331-0.32091 0-0.14677 0.0944-0.27704 0.23331-0.3208 1.6712-0.5262 2.0289-0.88779 2.5492-2.5787 0.0429-0.14023 0.17121-0.23602 0.31687-0.23602 0.1459 0 0.27398 0.0958 0.31729 0.23602 0.52084 1.6909 0.87774 2.0525 2.549 2.5787 0.13891 0.0436 0.23331 0.17403 0.23331 0.3208 0 0.14755-0.0944 0.27716-0.23331 0.32091-1.6711 0.52653-2.0281 0.88823-2.549 2.5786-0.0433 0.14076-0.17139 0.23623-0.31729 0.23623z" style="fill:#ffbb4a" name="Path 36"/>
     <path transform="translate(-50.423 -53.336)" d="m52.739 58.022c-0.10883 0-0.20475-0.07142-0.2369-0.17642-0.38883-1.2633-0.65593-1.5335-1.9049-1.927-0.10358-0.03249-0.17424-0.12961-0.17424-0.23986 0-0.10959 0.07066-0.20705 0.17424-0.23953 1.2489-0.39331 1.516-0.66325 1.9049-1.927 0.03215-0.10467 0.12807-0.1762 0.2369-0.1762 0.10883 0 0.20464 0.07153 0.23712 0.1762 0.38905 1.2637 0.6557 1.5337 1.9044 1.927 0.10379 0.0326 0.17423 0.12994 0.17423 0.23953 0 0.11036-0.07044 0.20737-0.17423 0.23986-1.2487 0.39353-1.5154 0.66368-1.9044 1.927-0.03248 0.10489-0.12829 0.17642-0.23712 0.17642z" style="fill:#ffbb4a" name="Path 37"/>
    </g>
    <path transform="translate(-239.7 -80.134)" d="m272.68 143.43-3.5453 5.4219h7.4807l-3.5455-5.4219c-0.10717-0.16385-0.28283-0.16385-0.38992-2e-5z" style="fill:#86d5b5" name="Path 38"/>
    <path transform="translate(-169.81 -58.482)" d="m195.95 119.12-5.2842 8.0808h10.958l-5.2841-8.0808c-0.1073-0.16395-0.28273-0.16395-0.38992 0z" style="fill:#3eaf91" name="Path 39"/>
    <path transform="translate(-128.93 -79.149)" d="m148.39 142.33-3.6247 5.5428h7.639l-3.6245-5.5428c-0.10719-0.16395-0.28251-0.16395-0.38981 0z" style="fill:#86d5b5" name="Path 40"/>
    <path id="c920a8a5-f9cc-48bb-b168-fe25cd5d73fe" transform="translate(-126.26 -40.609)" d="m142.1 98.932c-0.18047 0-0.32812 0.14765-0.32812 0.32812v9.7425c0 0.18046 0.14765 0.32812 0.32812 0.32812h1.5746v-10.399z" style="fill:#231f20;opacity:.1" name="Path 41"/>
    <path transform="translate(-376.7 -236.61)" d="m431.46 320.9c0 0.31915-0.26117 0.58044-0.58023 0.58044h-7.339c-0.31918 0-0.58026-0.26129-0.58026-0.58044v-1.32c0-0.31927 0.26108-0.58032 0.58026-0.58032h7.339c0.31906 0 0.58023 0.26105 0.58023 0.58032z" style="fill:#63c3ea" name="Path 42"/>
   </g>
  </g>
  <g id="1dd1611d-09f2-4521-93ff-283bd968317e" transform="translate(276.54 177.55)" name="Group 4">
   <rect transform="translate(24,262)" width="150" height="150" clip-path="url(#clip-path-150-150-24-24-24-24)" style="fill:#fff;filter:url(#filter-12-drop-shadow-0-3-5.5-RGB)" name="Rectangle 1"/>
   <g id="60866126-c018-4add-b820-b3db3d5e073b" transform="translate(-247.73 276.82)" name="bathtube">
    <path transform="translate(-100.16 -169.09)" d="m120.53 194.27c-0.11953-0.63575-0.0956-1.3084 0.0969-1.9722 0.65597-2.2615 3.0212-3.5632 5.2828-2.9073 0.36808 0.10674 0.71024 0.25942 1.0232 0.44898 0.0198-0.10074 0.0434-0.20145 0.0725-0.30196 0.53819-1.8557 2.4788-2.9237 4.3346-2.3854 1.1331 0.32861 1.9716 1.1805 2.331 2.2162 1.0575-0.92707 2.5503-1.3129 4.0011-0.89212 1.2966 0.37604 2.2766 1.3142 2.7542 2.4721 0.71159-1.1653 2.1381-1.7604 3.5125-1.3617 0.26617 0.0772 0.51364 0.18727 0.74019 0.32399-2e-3 -0.35753 0.0462-0.7211 0.15083-1.0819 0.58641-2.0218 2.7008-3.1852 4.7225-2.5989 2.0217 0.5863 3.1854 2.7006 2.599 4.7223 0 0-3.7156 5.8022-17.412 5.8022-12.144 0-14.209-2.4842-14.209-2.4842z" style="fill:#cbf4ff" name="Path 43"/>
    <path id="5dba5f5a-9166-40f8-ab94-355639acc10a" transform="translate(-20.999 -247.72)" d="m73.983 272.61-2.4205 11.929c-0.73196 3.6074-3.7126 6.2-7.3936 6.2h-21.011c-3.6811 0-6.6616-2.5926-7.3936-6.2l-2.4205-11.929s6.5312 4.5099 19.68 4.5099c13.149 0 20.959-4.5099 20.959-4.5099z" style="fill:#fcefde" name="Path 44"/>
    <path transform="translate(-286.86 -247.72)" d="m335.34 274.52-2.033 10.019c-0.73196 3.6074-3.7126 6.2001-7.3935 6.2001h4.109c3.6811 0 6.6616-2.5927 7.3936-6.2001l2.4205-11.929s-1.5739 0.9085-4.4966 1.9098z" style="fill:#fce4c6" name="Path 45"/>
    <path id="34c64c89-4f6e-4632-b8e8-800d18af09de" transform="translate(-6.5708 -215.58)" d="m39.235 245.39c-7.9428 0-15.435-1.9514-21.096-5.4948-0.67096-0.41997-0.87441-1.3043-0.45446-1.9752 0.27202-0.43446 0.73881-0.67299 1.2162-0.67299 0.25978 0 0.52267 0.0706 0.75908 0.21854 5.397 3.378 12.486 5.067 19.575 5.067 7.0892 0 14.178-1.689 19.575-5.067 0.23631-0.14794 0.49929-0.21851 0.75899-0.21851 0.47756 0 0.94425 0.23841 1.2163 0.67296 0.41995 0.6709 0.2165 1.5552-0.45446 1.9752-5.6614 3.5434-13.154 5.4948-21.096 5.4948z" style="fill:#e7c33c" name="Path 46"/>
    <path transform="translate(-103.32 -49.627)" d="m133.43 57.34-9.3349 1.9648c-0.0406 0.0086-0.0804-0.01744-0.0889-0.05808-0.37767-1.7941 0.77067-3.5546 2.5648-3.9323l2.9849-0.62823c1.7941-0.37758 3.5545 0.77068 3.9322 2.5647v9.1e-5c8e-3 0.04072-0.0175 0.08054-0.0581 0.08903z" style="fill:#e7c33c" name="Path 47"/>
    <circle id="d2dac438-3d16-4548-abaf-3567d0ebd48e" transform="matrix(.707 -.707 .707 .707 12.928 17.117)" cx="1.6243" cy="1.6243" r="1.6243" style="fill:#eed05e" name="Ellipse 2"/>
    <path transform="translate(-50.855 -396.6)" d="m74.019 438.82 2.0269-2.0268c0.4478-0.44773 1.1737-0.44773 1.6214 0 0.4478 0.44766 0.4478 1.1736 0 1.6214l-2.7299 2.7298c-0.97742 0.97733-2.303 1.5264-3.6853 1.5264h-3.9054c-0.63326 0-1.1465-0.51333-1.1465-1.1466 0-0.63318 0.51336-1.1465 1.1465-1.1465h3.2532c1.2187 0 2.3853-0.49338 3.2343-1.3676z" style="fill:#e7c33c" name="Path 48"/>
    <path transform="translate(-278.1 -396.6)" d="m320.26 438.82-2.0269-2.0268c-0.44778-0.44773-1.1737-0.44773-1.6214 0-0.44782 0.44766-0.44782 1.1736 0 1.6214l2.7299 2.7298c0.97742 0.97733 2.303 1.5264 3.6853 1.5264h3.9054c0.63321 0 1.1465-0.51333 1.1465-1.1466 0-0.63318-0.51337-1.1465-1.1465-1.1465h-3.2532c-1.2186 0-2.3854-0.49338-3.2342-1.3676z" style="fill:#e7c33c" name="Path 49"/>
    <circle id="46bc89f0-ea52-469c-996a-886ea269bb1a" transform="translate(39.913 13.786)" cx="1.7766" cy="1.7766" r="1.7766" style="fill:#cbf4ff" name="Ellipse 3"/>
    <circle id="27148ea6-a962-42c8-98c0-f03a6ba790ec" transform="translate(46.2 10.151)" cx="1.3119" cy="1.3119" r="1.3119" style="fill:#cbf4ff" name="Ellipse 4"/>
    <path d="m54.795 21.973c-0.38981-0.62266-1.0614-0.99448-1.7968-0.99448-0.05735 0-0.11432 3e-3 -0.17112 0.0077 0.03443-0.81195-0.15286-1.6203-0.55472-2.3505-0.5791-1.0521-1.5333-1.8158-2.6869-2.1504-1.1534-0.33457-2.3682-0.19979-3.4205 0.37922-1.0522 0.5791-1.816 1.5332-2.1505 2.6866-0.02712 0.0935-0.05123 0.18774-0.07214 0.28261-1.2664-0.35621-2.6051-0.02146-3.5529 0.82482-0.64046-0.92463-1.5791-1.6062-2.6843-1.9267-1.3427-0.38954-2.7578-0.19532-3.9293 0.51226-0.53956-0.88125-1.3933-1.5436-2.4029-1.8365-2.0524-0.59536-4.199 0.45921-5.0147 2.3792-0.13633-0.05305-0.27494-0.10008-0.41556-0.1408-2.6208-0.75999-5.3712 0.75369-6.1313 3.3743-0.11259 0.38808-0.17624 0.78081-0.19276 1.175-1.2766-0.43674-2.5007-0.93878-3.6594-1.5052v-3.3834c0.11706-0.03899 0.23184-0.08702 0.3426-0.14528l0.67005 0.67005c0.61764 0.61764 1.5887-0.34845 0.96846-0.96846l-0.66959-0.66959c0.17294-0.32772 0.2649-0.69452 0.2649-1.0757 0-0.38105-0.09195-0.74794-0.2649-1.0757l0.6695-0.6695c0.62184-0.62175-0.3458-1.5912-0.96846-0.96846l-0.67005 0.66996c-0.12565-0.06602-0.25631-0.11916-0.38981-0.16043v-9.5473c9.1e-5 -2.2039 1.7932-3.9969 3.9972-3.9969 2.0312 0 3.7121 1.5233 3.9635 3.4871l-0.83423 0.17559c-2.1202 0.44633-3.482 2.5343-3.0358 4.6545 0.04191 0.41949 0.40178 0.76858 0.84217 0.67608l5.1115-1.0758c0.86053-0.18107 0.57983-1.521-0.28207-1.3404l-4.3865 0.92317c0.0033-1.1816 0.83104-2.2444 2.0328-2.4973l3.1319-0.65918c0.66914-0.1408 1.3529-0.012692 1.9255 0.36087 0.4204 0.27412 0.74383 0.65644 0.94188 1.1052l-0.26718 0.056248c-0.86053 0.18116-0.57974 1.5209 0.28215 1.3404l0.99174-0.20874c0.44013-0.092682 0.61736-0.56011 0.49811-0.95832-0.44634-2.1202-2.5344-3.4821-4.6544-3.0358l-0.95339 0.20061c-0.38433-2.5845-2.6178-4.5738-5.3078-4.5738-2.9593 0-5.3668 2.4074-5.3668 5.3666v9.5469c-0.13396 0.04136-0.26499 0.0946-0.391 0.1608l-0.67005-0.66996c-0.62165-0.62193-1.5912 0.3458-0.96846 0.96846l0.66996 0.66996c-0.35237 0.67069-0.35237 1.4796 0 2.1504l-0.66996 0.66996c-0.61307 0.61289 0.34142 1.5956 0.96846 0.96846l0.67005-0.67005c0.1408 0.07396 0.28773 0.13204 0.43821 0.17496v2.6364c-0.38762-0.2165-0.76784-0.43976-1.138-0.67142-2.3253-1.4549-4.5509 2.1489-2.2474 3.5907 0.16573 0.10373 0.33429 0.20555 0.50359 0.30681l2.3859 11.759c0.58075 2.862 2.4637 5.1019 4.9447 6.1313h-2.5472c-2.3574 0-2.3621 3.6627 0 3.6627h3.9054c1.575 0 3.0558-0.61335 4.1695-1.727l1.4253-1.4253c0.10601 0.06739 13.452 0.10693 13.452 0.10693l1.3185 1.3184c1.1136 1.1137 2.5944 1.7271 4.1693 1.7271 0.87934 0 0.88062-1.3697 0-1.3697-1.2091 0-2.3459-0.4709-3.201-1.3259l-2.7298-2.7298c-0.40844-0.40835 0.22581-1.0799 0.65288-0.65288l2.2045 2.2098c0.9722 1.0011 2.3303 1.5752 3.7257 1.5752h3.2532c0.59536 0 0.59536 0.92335 0 0.92335-0.87934 0-0.88062 1.3697 0 1.3697 1.0098 0 1.8314-0.82154 1.8314-1.8314 0-1.0098-0.82154-1.8314-1.8314-1.8314h-2.5472c2.481-1.0295 4.3639-3.2694 4.9447-6.1313l2.3858-11.758c0.16929-0.10136 0.3374-0.20372 0.50368-0.30772 0.98992-0.61955 1.2912-1.929 0.67169-2.9189zm-40.233-4.1909c-0.36625-0.36625-0.36625-0.96225 0-1.3284 0.18318-0.18317 0.42369-0.27476 0.6643-0.27476 0.24061 0 0.48112 0.09159 0.6643 0.27476 0.17742 0.17742 0.27513 0.41328 0.27513 0.66421 0 0.25092-0.0977 0.48678-0.27513 0.6642-0.36634 0.36616-0.96243 0.36616-1.3286 0zm6.5644 5.6198c0.54979-1.8952 2.5388-2.9901 4.4343-2.4403 0.30114 0.08739 0.59015 0.21422 0.85916 0.37703 0.19121 0.11578 0.42679 0.13094 0.63151 0.04063 0.20445-0.09031 0.35201-0.27476 0.3952-0.49418 0.01744-0.08885 0.03652-0.16856 0.05826-0.24344 0.43218-1.4899 1.9961-2.3506 3.4861-1.9186 0.87459 0.25366 1.5754 0.92024 1.8747 1.7831 0.07469 0.21532 0.25166 0.37931 0.4719 0.43757 0.22015 0.05789 0.45501 0.0031 0.62659-0.14711 0.925-0.81085 2.1806-1.0909 3.3589-0.74931 1.0508 0.30471 1.8935 1.0612 2.3118 2.0754 0.09834 0.23842 0.32224 0.40141 0.57946 0.42159 0.25678 0.02027 0.50377-0.10565 0.63809-0.3258 0.56668-0.92783 1.6924-1.3638 2.7375-1.061 0.20244 0.05871 0.39656 0.14373 0.57718 0.25266 0.21203 0.12784 0.47665 0.1314 0.69197 9e-3 0.21522-0.12227 0.3479-0.35128 0.34662-0.59892-0.0016-0.30078 0.04008-0.59937 0.12373-0.88774 0.23266-0.80209 0.76364-1.4656 1.4954-1.8682 0.7316-0.40269 1.5764-0.49637 2.3786-0.26371 0.80209 0.23267 1.4657 0.76374 1.8683 1.4953 0.39382 0.71552 0.49116 1.539 0.27777 2.3252-5.0501 2.9974-11.656 4.6429-18.686 4.6429-4.111 0-8.0771-0.56294-11.672-1.6296-0.02775-0.4131 0.01726-0.8261 0.13514-1.2325zm2.4707 20.654c-0.85505 0.85496-1.9918 1.3259-3.201 1.3259h-3.9054c-0.59545 0-0.59536-0.92335 0-0.92335h3.2531c1.3956 0 2.7535-0.57417 3.7256-1.5752l2.2046-2.2098c0.42661-0.42671 1.0709 0.23494 0.65298 0.65288zm29.799-20.325c-5.5537 3.4761-12.917 5.3905-20.733 5.3905-4.2731 0-8.3874-0.56194-12.229-1.6703-0.84491-0.24399-1.2258 1.0718-0.37968 1.316 3.9647 1.1439 8.2068 1.7239 12.608 1.7239 7.134 0 13.916-1.5551 19.379-4.4103l-2.1518 10.604c-0.66594 3.2816-3.3641 5.5855-6.5874 5.6484-0.16454-0.12172-2.6826-2.6286-2.6826-2.6286-1.6922-1.6921-4.2859 0.97997-2.5483 2.6316h-10.819c1.7156-1.6688-0.85149-4.3281-2.5483-2.6316 0 0-2.5179 2.5069-2.6826 2.6286-3.2232-0.06291-5.9215-2.3668-6.5875-5.6484l-2.1518-10.605c1.0037 0.52468 2.0544 1.009 3.1455 1.4457 0.81642 0.32662 1.3265-0.94444 0.50888-1.2716-1.7968-0.71909-3.4816-1.568-5.0077-2.5231-0.80291-0.50268-0.0252-1.7812 0.79414-1.2686 5.8939 3.6891 13.05 5.1713 19.939 5.1713 7.5299 0 14.611-1.8366 19.939-5.1713 0.81058-0.50715 1.6118 0.75689 0.79405 1.2686z" name="Path 50"/>
    <path id="267b68eb-8072-4040-8e54-68eecb698ead" transform="translate(-288.53 -130.38)" d="m330.22 148.4c1.3572 0 2.4615-1.1042 2.4615-2.4613 0-1.3572-1.1043-2.4614-2.4615-2.4614-1.3572 0-2.4614 1.1042-2.4614 2.4614 0 1.3573 1.1042 2.4613 2.4614 2.4613zm0-3.553c0.60202 0 1.0918 0.48971 1.0918 1.0917 0 0.60203-0.48977 1.0916-1.0918 1.0916s-1.0917-0.4897-1.0917-1.0916c0-0.60193 0.48978-1.0917 1.0917-1.0917z" name="Path 51"/>
    <path id="44b567a2-3291-44f1-9202-4e9dd7102f3d" transform="translate(-351.09 -94.205)" d="m398.6 107.66c1.1011 0 1.9969-0.89578 1.9969-1.9967 0-1.101-0.89584-1.9967-1.9969-1.9967-1.101 0-1.9968 0.89576-1.9968 1.9967 0 1.101 0.89578 1.9967 1.9968 1.9967zm0-2.6238c0.34583 0 0.62711 0.28132 0.62711 0.62702 0 0.34572-0.28128 0.62705-0.62711 0.62705-0.3457 0-0.62707-0.28133-0.62707-0.62705 0-0.3457 0.28137-0.62702 0.62707-0.62702z" name="Path 52"/>
    <path transform="translate(-118.29 -218.58)" d="m144.49 240.94c-0.20574-0.12445-0.42682-0.22154-0.65709-0.28827-0.70276-0.20383-1.4432-0.12172-2.0846 0.23111-0.64128 0.35293-1.1067 0.93439-1.3106 1.6375-0.10538 0.36322 0.10375 0.7431 0.46698 0.84845 0.0637 0.0185 0.12784 0.0273 0.19101 0.0273 0.29695 0 0.57063-0.19468 0.65747-0.49426 0.21048-0.72587 0.97238-1.1451 1.6983-0.93458 0.11522 0.0334 0.22609 0.0821 0.32933 0.14454 0.32365 0.19579 0.74478 0.0922 0.94055-0.23129 0.19574-0.32361 0.0921-0.74474-0.23138-0.94052z" name="Path 53"/>
    <path transform="translate(-247.63 -210.34)" d="m283.76 232.92c0.25977-0.14299 0.58695-0.0477 0.72977 0.21178 0.0226 0.0412 0.04 0.0854 0.0513 0.13166 0.0769 0.31229 0.35666 0.52138 0.66449 0.52138 0.0541 0 0.10916-6e-3 0.16415-0.02 0.36722-0.0904 0.59168-0.46141 0.50141-0.82867-0.04-0.16252-0.10102-0.31894-0.18146-0.46494-0.50693-0.92125-1.6687-1.2582-2.5901-0.75134-0.33139 0.18245-0.45209 0.59885-0.26974 0.93022 0.18216 0.33135 0.59878 0.45217 0.93011 0.2699z" name="Path 54"/>
   </g>
  </g>
  <g id="bb2417e7-4374-41b1-afca-7e3c9c7409df" transform="translate(276.54 177.55)" name="Group 6">
   <rect id="72de2503-6d2c-4f6c-bc1d-33c167be14ee" transform="translate(24,262)" width="150" height="150" clip-path="url(#clip-path-150-150-24-24-24-24)" style="fill:#fff;filter:url(#filter-14-drop-shadow-0-3-5.5-RGB)" name="Rectangle 1"/>
   <g transform="translate(-245 196.45)" name="balcony">
    <path id="05bd469a-39ed-4fd6-9a35-6ea04dbe38ab" transform="translate(-96.362 -260)" d="m106 286h5.4553v16.457h-5.4553z" style="fill:#ff4b00" name="Path 74"/>
    <path transform="translate(-314.54 -260)" d="m346 286h5.4553v16.457h-5.4553z" style="fill:#d03b00" name="Path 75"/>
    <path id="b2f8190a-9b6c-470f-856e-248d14a0d16f" transform="translate(-150.91 -260)" d="m166 286h16.366v16.457h-16.366z" style="fill:#ffe470" name="Path 76"/>
    <path transform="translate(-232.72 -260)" d="m256 286h8.1829v16.457h-8.1829z" style="fill:#fdbf00" name="Path 77"/>
    <path id="f96eb546-ffda-421b-8893-e065d641033b" transform="translate(-110 -54.545)" d="m145.55 62.728v19.184h-24.549v-19.184l12.274-2.7276z" style="fill:#ffe470" name="Path 78"/>
    <path transform="translate(-232.72 -54.545)" d="m268.27 62.728v19.184h-12.274v-21.912z" style="fill:#fdbf00" name="Path 79"/>
    <path id="8b28d3e0-425b-4cdb-8343-6f21c5ce7d7c" transform="translate(-82.726 -150)" d="m91 169.04v5.6009l2.0457 2.7276 3.4096-2.7276v-9.6377z" style="fill:#ff4b00" name="Path 80"/>
    <path transform="translate(-328.18 -150)" d="m361 165v9.6377l2.7276 2.7276 2.7277-2.7276v-5.6009z" style="fill:#d03b00" name="Path 81"/>
    <g id="df289aab-7635-49ea-87ab-2fb79d794e2d" transform="translate(24.64 26.004)" name="Group 13">
     <path transform="translate(-434.63 -286)" d="m453.73 286v15.093l-1.3638 2.7277-1.3639-2.7277v-15.093z" style="fill:#5a5a5a" name="Path 82"/>
     <path transform="translate(-380.09 -286)" d="m393.73 286v15.093l-1.3638 2.7277-1.3638-2.7277v-15.093z" style="fill:#5a5a5a" name="Path 83"/>
     <path id="a9ee2dd1-fb61-46fb-a7b5-4716d038cb8f" transform="translate(-325.54 -286)" d="m333.73 286v15.093l-1.3638 2.7277-1.3638-2.7277v-15.093z" style="fill:#5a5a5a" name="Path 84"/>
     <path id="85b0bb04-7999-46be-9bba-618feeb1aafd" transform="translate(-271,-286)" d="m273.73 286v15.093l-1.3638 2.7277-1.3638-2.7277v-15.093z" style="fill:#5a5a5a" name="Path 85"/>
    </g>
    <path transform="translate(-191.82 -260)" d="m213.73 286v15.093l-1.3638 2.7277-1.3638-2.7277v-15.093z" style="fill:#6e6e6e" name="Path 86"/>
    <path id="e360c8a5-5f19-4701-b314-34170dcf36ae" transform="translate(-137.27 -260)" d="m153.73 286v15.093l-1.3638 2.7277-1.3638-2.7277v-15.093z" style="fill:#6e6e6e" name="Path 87"/>
    <path id="1f9d3f76-e1e8-44bc-84d8-3feb0c51047b" transform="translate(-82.726 -260)" d="m93.728 286v15.093l-1.3638 2.7277-1.3638-2.7277v-15.093z" style="fill:#6e6e6e" name="Path 88"/>
    <path transform="translate(-28.181 -260)" d="m33.728 286v15.093l-1.3638 2.7277-1.3638-2.7277v-15.093z" style="fill:#6e6e6e" name="Path 89"/>
    <path transform="translate(-82.726)" d="m121 15.002v4.0368c-1.882-0.13638-3.7097-0.57288-5.4553-1.3091-1.4459-0.57288-2.8097-1.3912-4.0641-2.3732-2.4549-1.9094-4.3099-4.3642-5.4826-7.1462-1.3912 3.3275-3.7914 6.1915-6.9555 8.1829-0.84565 0.51818-1.6913 0.98202-2.5913 1.3365-1.7456 0.7636-3.6006 1.1727-5.4553 1.3091v-4.0368c0-7.8011 6.0008-14.238 13.638-14.92 0.4365-0.05434 0.90034-0.081687 1.3638-0.081687 0.4635 0 0.92733 0.027347 1.3638 0.081687 7.6374 0.68191 13.638 7.1192 13.638 14.92z" style="fill:#ff7816" name="Path 90"/>
    <path transform="translate(-232.72)" d="m256 8.2103v-8.2103c0.4635 0 0.92731 0.027347 1.3638 0.081687 7.6374 0.68191 13.638 7.1192 13.638 14.92v4.0368c-1.882-0.13638-3.7097-0.57288-5.4553-1.3091-1.4459-0.57288-2.8097-1.3912-4.0641-2.3732-2.4549-1.9094-4.3099-4.3642-5.4827-7.1462z" style="fill:#ff4b00" name="Path 91"/>
    <path transform="translate(0 -246.36)" d="m0 271h46.552v2.7277h-46.552z" style="fill:#6e6e6e" name="Path 92"/>
    <path transform="translate(-232.72 -246.36)" d="m256 271h23.276v2.7277h-23.276z" style="fill:#5a5a5a" name="Path 93"/>
    <path transform="translate(0 -410.9)" d="m0 452h46.552v5.4553h-46.552z" style="fill:#ececf1" name="Path 94"/>
    <path id="c14f2ddb-bf6e-4662-8497-3a81bfc3153b" transform="translate(-232.72 -410.9)" d="m256 452h23.276v5.4553h-23.276z" style="fill:#d3d3d8" name="Path 95"/>
   </g>
  </g>
 </g>
 <g id="3f7b9026-6abd-4a0a-9ecf-1705bb5b7ebe" transform="translate(221 -252)" name="bottom bar">
  <rect id="09d5f8dd-914c-4c53-9427-bdadc496af3c" transform="translate(0,747)" width="375" height="67" style="fill:#fff;filter:url(#filter-15-drop-shadow-0--7-3-RGB)" name="Rectangle 12"/>
  <g transform="translate(-55.208 590.93)" name="Icon feather-settings">
   <path transform="translate(-4.412 -4.412)" d="m20.316 16.908c0 1.8822-1.5258 3.408-3.408 3.408-1.8822 0-3.408-1.5258-3.408-3.408 0-1.8822 1.5258-3.408 3.408-3.408 1.8822 0 3.408 1.5258 3.408 3.408z" style="fill:none;stroke-linecap:round;stroke-linejoin:round;stroke-width:2.5px;stroke:#002d67" name="Path 1"/>
   <path transform="translate(-1.5 -1.5)" d="m22.402 17.404c-0.30939 0.70101-0.16093 1.5198 0.37488 2.0675l0.06816 0.06816c0.42663 0.42616 0.66634 1.0044 0.66634 1.6074s-0.23972 1.1813-0.66634 1.6074c-0.42615 0.42663-1.0044 0.66635-1.6074 0.66635-0.60301 0-1.1813-0.23972-1.6074-0.66635l-0.06816-0.06816c-0.54776-0.53581-1.3665-0.68426-2.0675-0.37488-0.68667 0.2943-1.133 0.96828-1.136 1.7154v0.19312c0 1.2548-1.0172 2.272-2.272 2.272-1.2548 0-2.272-1.0172-2.272-2.272v-0.10224c-0.018-0.76944-0.50453-1.4497-1.2269-1.7154-0.70101-0.30939-1.5198-0.16094-2.0675 0.37487l-0.068161 0.06816c-0.42615 0.42663-1.0044 0.66634-1.6074 0.66634-0.60301 0-1.1813-0.23972-1.6074-0.66634-0.42663-0.42615-0.66634-1.0044-0.66634-1.6074 0-0.60301 0.23972-1.1813 0.66634-1.6074l0.068159-0.06816c0.53581-0.54776 0.68426-1.3665 0.37488-2.0675-0.2943-0.68668-0.96827-1.133-1.7154-1.136l-0.19312-1e-6c-1.2548 0-2.272-1.0172-2.272-2.272 0-1.2548 1.0172-2.272 2.272-2.272h0.10224c0.76944-0.018 1.4497-0.50453 1.7154-1.2269 0.30938-0.70101 0.16093-1.5198-0.37488-2.0675l-0.068159-0.06816c-0.42663-0.42615-0.66634-1.0044-0.66634-1.6074 0-0.60301 0.23972-1.1813 0.66634-1.6074 0.42615-0.42663 1.0044-0.66634 1.6074-0.66634 0.60301 0 1.1813 0.23972 1.6074 0.66634l0.06816 0.068159c0.54776 0.53581 1.3665 0.68426 2.0675 0.37488h0.09088c0.68668-0.2943 1.133-0.96827 1.136-1.7154v-0.19312c0-1.2548 1.0172-2.272 2.272-2.272 1.2548 0 2.272 1.0172 2.272 2.272v0.10224c3e-3 0.74708 0.44932 1.4211 1.136 1.7154 0.70101 0.30938 1.5197 0.16093 2.0675-0.37488l0.06816-0.06816c0.42616-0.42663 1.0044-0.66634 1.6074-0.66634s1.1813 0.23972 1.6074 0.66634c0.42663 0.42615 0.66635 1.0044 0.66635 1.6074 0 0.60301-0.23972 1.1813-0.66635 1.6074l-0.06816 0.06816c-0.53581 0.54776-0.68426 1.3665-0.37488 2.0675v0.09088c0.2943 0.68668 0.96828 1.133 1.7154 1.136h0.19312c1.2548 0 2.272 1.0172 2.272 2.272 0 1.2548-1.0172 2.272-2.272 2.272h-0.10224c-0.74708 3e-3 -1.4211 0.44932-1.7154 1.136z" style="fill:none;stroke-linecap:round;stroke-linejoin:round;stroke-width:2.5px;stroke:#588dd0" name="Path 2"/>
  </g>
  <g id="6fc2250a-eec0-4df6-aa46-119cb3d69a8f" transform="translate(-105.84 587.91)" name="Icon feather-home">
   <path id="6037506a-f2ab-4312-8e67-f6a2ac2ff3dd" transform="translate(-5.6257 -4.8762)" d="m13.5 31.124v-13.124h7.8743v13.124" style="fill:none;stroke-linecap:round;stroke-linejoin:round;stroke-width:3px;stroke:#002d67" name="Path 4"/>
   <path id="16cff26a-a2b0-49c4-8c57-5bbdd800ad9e" transform="translate(-4.5,-3)" d="m4.5 12.187 11.811-9.1866 11.811 9.1866v14.436c0 1.4496-1.1751 2.6248-2.6248 2.6248h-18.373c-1.4496 0-2.6248-1.1751-2.6248-2.6248z" style="fill:none;stroke-linecap:round;stroke-linejoin:round;stroke-width:3px;stroke:#588dd0" name="Path 3"/>
  </g>
  <g transform="translate(-237.71 -171.9)" name="bulb">
   <path transform="translate(83.5,757)" d="m12.886 28.585c0 0.74063 0.60597 1.3466 1.3466 1.3466h5.3864c0.74063 0 1.3466-0.60597 1.3466-1.3466v-1.3466h-8.0796zm4.0398-25.585c-5.1979 0-9.4262 4.2283-9.4262 9.4262 0 3.2049 1.6025 6.0193 4.0398 7.7295v3.0433c0 0.74063 0.60597 1.3466 1.3466 1.3466h8.0796c0.74063 0 1.3466-0.60597 1.3466-1.3466v-3.0433c2.4374-1.7102 4.0398-4.5246 4.0398-7.7295 0-5.1979-4.2283-9.4262-9.4262-9.4262zm3.8378 14.947-1.1446 0.80796v3.0972h-5.3864v-3.0972l-1.1446-0.80796c-1.8179-1.2658-2.8952-3.3261-2.8952-5.5211 0-3.7166 3.0164-6.733 6.733-6.733s6.733 3.0164 6.733 6.733c0 2.195-1.0773 4.2553-2.8952 5.5211z" style="fill:#578cd0" name="Icon material-lightbulb-outline"/>
   <rect id="c4ecfdbc-1f68-4db6-a37b-83943ab8debb" transform="translate(96,784)" width="9" height="3" clip-path="url(#clip-path-9-3-0-0-1-1)" style="fill:#002d67" name="Rectangle 3"/>
  </g>
 </g>
 <metadata>
  <rdf:RDF>
   <cc:Work rdf:about="">
    <dc:title>Control Panel</dc:title>
   </cc:Work>
  </rdf:RDF>
 </metadata>
</svg>
