<svg enable-background="new 1846 0 375 812" viewBox="1846 0 86.58 102.775" width="86.58" height="102.775" xmlns="http://www.w3.org/2000/svg"><defs><filter id="a" x="0" y="0" width="1" height="1"><feDropShadow dx="0" dy="3" flood-color="rgba(10,77,162,0.058823529411764705)" in="SourceGraphic" stdDeviation="5.5"/></filter><filter id="c" x="0" y="0" width="1" height="1"><feDropShadow dx="0" dy="3" flood-color="rgba(10,77,162,0.058823529411764705)" in="SourceGraphic" stdDeviation="5.5"/></filter><filter id="e" x="0" y="0" width="1" height="1"><feDropShadow dx="0" dy="3" flood-color="#002D67" in="SourceGraphic" stdDeviation="8"/></filter><filter id="f" x="0" y="0" width="1" height="1"><feDropShadow dx="0" dy="3" flood-color="#FFC72F" in="SourceGraphic" stdDeviation="8"/></filter><filter id="d" x="0" y="0" width="1" height="1"><feDropShadow dx="0" dy="3" flood-color="rgba(0,45,103,0.09803921568627451)" in="SourceGraphic" stdDeviation="3"/></filter><clipPath id="b"><path d="M12 0h100a12 12 0 0 1 12 12v21a12 12 0 0 1-12 12H12A12 12 0 0 1 0 33V12A12 12 0 0 1 12 0Z"/></clipPath><clipPath id="g"><path d="M2 0a2 2 0 0 1 2 2v54a2 2 0 0 1-2 2 2 2 0 0 1-2-2V2a2 2 0 0 1 2-2Z"/></clipPath></defs><path style="fill:#000;stroke:#000;stroke-width:9.32032;stroke-miterlimit:4;stroke-dasharray:none;stroke-opacity:1" d="M1946.407-17.912h104v118h-104z"/><path style="fill:#fff;stroke:none;stroke-width:1px;filter:url(#a)" transform="translate(2168.416 48.925)" clip-path="url(#b)" d="M0 0h124v45H0z"/><path d="M102.765 0a6.374 6.374 0 0 0-6.367 6.367c0 2.02.953 3.906 2.564 5.107v.531a1.876 1.876 0 0 0-.134 2.694 1.873 1.873 0 0 0-.507 1.282c0 .844.558 1.56 1.325 1.797a3.167 3.167 0 0 0 3.12 2.647 3.167 3.167 0 0 0 3.12-2.647 1.884 1.884 0 0 0 1.324-1.797c0-.495-.193-.946-.507-1.282a1.873 1.873 0 0 0-.134-2.694v-.531a6.359 6.359 0 0 0 2.563-5.107A6.374 6.374 0 0 0 102.765 0Zm2.564 12.734a.684.684 0 0 1 0 1.367h-5.127a.684.684 0 0 1 0-1.367zm-2.564 6.495a1.97 1.97 0 0 1-1.872-1.367h3.745a1.969 1.969 0 0 1-1.873 1.367zm2.564-2.564h-5.127a.684.684 0 0 1 0-1.367h5.127a.684.684 0 0 1 0 1.367zm.308-5.998a.598.598 0 0 0-.265.497v.374H104.646v-2.36l.859-.859a.598.598 0 1 0-.846-.846l-1.035 1.035a.598.598 0 0 0-.175.423v2.606h-1.367V8.931a.598.598 0 0 0-.175-.423l-1.035-1.035a.598.598 0 0 0-.846.846l.86.86v2.358h-.684l-.043.001v-.374c0-.2-.1-.386-.266-.497a5.166 5.166 0 0 1-2.298-4.3c0-2.85 2.32-5.17 5.17-5.17 2.851 0 5.17 2.32 5.17 5.17 0 1.729-.859 3.336-2.298 4.3zm0 0" style="fill:#002d67;stroke:none;stroke-width:1px" transform="translate(1921.616 171.545)"/><path d="M2.479 145.2a.598.598 0 0 0-.599-.598H.598a.598.598 0 1 0 0 1.196H1.88c.33 0 .599-.268.599-.598zm0 0" style="fill:#002d67;stroke:none;stroke-width:1px" transform="translate(2014.169 32.712)"/><path d="M451.747 144.602h-1.281a.598.598 0 0 0 0 1.196h1.281a.598.598 0 0 0 0-1.196zm0 0" style="fill:#002d67;stroke:none;stroke-width:1px" transform="translate(1582.248 32.712)"/><path d="m33.695 249.112-1.11.64a.599.599 0 0 0 .598 1.037l1.11-.64a.599.599 0 0 0-.598-1.037zm0 0" style="fill:#002d67;stroke:none;stroke-width:1px" transform="translate(1983.171 -67.552)"/><path d="M422.48 25.937a.596.596 0 0 0 .299-.08l1.11-.641a.598.598 0 1 0-.598-1.036l-1.11.64a.598.598 0 0 0 .3 1.117zm0 0" style="fill:#002d67;stroke:none;stroke-width:1px" transform="translate(1609.118 148.407)"/><path d="m423.888 249.757-1.11-.641a.599.599 0 0 0-.599 1.036l1.11.641a.595.595 0 0 0 .818-.22.598.598 0 0 0-.219-.816zm0 0" style="fill:#002d67;stroke:none;stroke-width:1px" transform="translate(1609.119 -67.556)"/><path d="m34.295 24.821-1.11-.64a.598.598 0 1 0-.598 1.036l1.11.64a.596.596 0 0 0 .818-.218.599.599 0 0 0-.22-.818zm0 0" style="fill:#002d67;stroke:none;stroke-width:1px" transform="translate(1983.17 148.406)"/><path style="fill:#fff;stroke:none;stroke-width:1px;filter:url(#c)" transform="translate(2401.868 46.804)" clip-path="url(#b)" d="M0 0h124v45H0z"/><path d="M163.183 154.6h-12.281c-.6 0-1.602.227-1.602 1.771v2.362h15.485v-2.362c0-1.539-1.002-1.771-1.602-1.771z" style="fill:#002d67;stroke:none;stroke-width:1px" transform="translate(1930.839 44.815)"/><path d="M3.886 88.255H1.548V80H0v16.003h1.548V91.87h20.649v4.128h1.548v-7.743z" style="fill:#002d67;stroke:none;stroke-width:1px" transform="translate(2072.914 115.805)"/><circle cx="2.163" cy="2.163" r="2.163" style="fill:#002d67;stroke:none;stroke-width:1px" transform="translate(2074.879 199.318)"/><path d="M-176.184 285.648h-11.855v-.847h3.387c.468 0 .847-.38.847-.847v-5.08a.847.847 0 0 0-.847-.847h-8.468a.847.847 0 0 0-.847.846v5.081c0 .468.38.847.847.847h3.387v.847h-5.08a.847.847 0 0 0-.847.846v11.855h1.693v-8.468h10.162v5.928c0 .468.379.847.847.847h5.927v1.693h1.694v-11.855a.847.847 0 0 0-.847-.846zm-16.089-5.928h6.774v3.387h-6.774zm-1.694 7.621h16.936v.847h-16.936zm16.936 2.54v1.694h-5.08v-1.694zm-5.08 5.081v-1.693h5.08v1.693z" style="fill:#f2f2f2;stroke:none;stroke-width:1px" transform="translate(2144.416 -148.075)"/><g style="opacity:.995557"><path d="M116.235 96.78c0-4.766-3.877-8.644-8.643-8.644-4.767 0-8.644 3.878-8.644 8.644a8.674 8.674 0 0 0 3.925 7.243v2.723a4.723 4.723 0 0 0 4.719 4.718 4.724 4.724 0 0 0 4.718-4.718v-2.723a8.673 8.673 0 0 0 3.925-7.243zm-5.591 9.966a3.055 3.055 0 0 1-3.052 3.052 3.055 3.055 0 0 1-3.052-3.052v-.696h6.104zm.418-3.911a.833.833 0 0 0-.418.722v.826h-2.22v-4.308a2.704 2.704 0 0 0 1.867-2.567.833.833 0 0 0-1.666 0 1.034 1.034 0 0 1-2.066 0 .833.833 0 0 0-1.667 0c0 1.198.785 2.215 1.866 2.567v4.308h-2.218v-.826a.833.833 0 0 0-.418-.722 7.002 7.002 0 0 1-3.508-6.055 6.985 6.985 0 0 1 6.978-6.978 6.985 6.985 0 0 1 6.977 6.978 7.002 7.002 0 0 1-3.507 6.055z" style="fill:#cecece;stroke:none;stroke-width:1px" transform="translate(2043.26 116.182)"/><path d="M241.694 0a.833.833 0 0 0-.833.833v1.463a.833.833 0 0 0 1.666 0V.833a.833.833 0 0 0-.833-.833Z" style="fill:#cecece;stroke:none;stroke-width:1px" transform="translate(1909.158 199.467)"/><path d="m176.849 12.854-.517-1.369a.833.833 0 0 0-1.559.59l.517 1.368a.833.833 0 1 0 1.559-.59z" style="fill:#cecece;stroke:none;stroke-width:1px" transform="translate(1971.66 189.123)"/><path d="M299.245 11a.833.833 0 0 0-1.074.485l-.517 1.368a.833.833 0 0 0 1.558.59l.518-1.37a.833.833 0 0 0-.485-1.073z" style="fill:#cecece;stroke:none;stroke-width:1px" transform="translate(1855.542 189.124)"/></g><path d="M116.235 96.78c0-4.766-3.877-8.644-8.643-8.644-4.767 0-8.644 3.878-8.644 8.644a8.674 8.674 0 0 0 3.925 7.243v2.723a4.723 4.723 0 0 0 4.719 4.718 4.724 4.724 0 0 0 4.718-4.718v-2.723a8.673 8.673 0 0 0 3.925-7.243zm-5.591 9.966a3.055 3.055 0 0 1-3.052 3.052 3.055 3.055 0 0 1-3.052-3.052v-.696h6.104zm.418-3.911a.833.833 0 0 0-.418.722v.826h-2.22v-4.308a2.704 2.704 0 0 0 1.867-2.567.833.833 0 0 0-1.666 0 1.034 1.034 0 0 1-2.066 0 .833.833 0 0 0-1.667 0c0 1.198.785 2.215 1.866 2.567v4.308h-2.218v-.826a.833.833 0 0 0-.418-.722 7.002 7.002 0 0 1-3.508-6.055 6.985 6.985 0 0 1 6.978-6.978 6.985 6.985 0 0 1 6.977 6.978 7.002 7.002 0 0 1-3.507 6.055z" style="fill:#ffd239;stroke:none;stroke-width:1px" transform="translate(2072.752 116.56)"/><path d="M241.694 0a.833.833 0 0 0-.833.833v1.463a.833.833 0 0 0 1.666 0V.833a.833.833 0 0 0-.833-.833Z" style="fill:#ffd239;stroke:none;stroke-width:1px" transform="translate(1938.65 199.846)"/><path d="m176.849 12.854-.517-1.369a.833.833 0 0 0-1.559.59l.517 1.368a.833.833 0 1 0 1.559-.59z" style="fill:#ffd239;stroke:none;stroke-width:1px" transform="translate(2001.15 189.502)"/><path d="M299.245 11a.833.833 0 0 0-1.074.485l-.517 1.368a.833.833 0 0 0 1.558.59l.518-1.37a.833.833 0 0 0-.485-1.073z" style="fill:#ffd239;stroke:none;stroke-width:1px" transform="translate(1885.033 189.502)"/><path d="M116.235 96.78c0-4.766-3.877-8.644-8.643-8.644-4.767 0-8.644 3.878-8.644 8.644a8.674 8.674 0 0 0 3.925 7.243v2.723a4.723 4.723 0 0 0 4.719 4.718 4.724 4.724 0 0 0 4.718-4.718v-2.723a8.673 8.673 0 0 0 3.925-7.243zm-5.591 9.966a3.055 3.055 0 0 1-3.052 3.052 3.055 3.055 0 0 1-3.052-3.052v-.696h6.104zm.418-3.911a.833.833 0 0 0-.418.722v.826h-2.22v-4.308a2.704 2.704 0 0 0 1.867-2.567.833.833 0 0 0-1.666 0 1.034 1.034 0 0 1-2.066 0 .833.833 0 0 0-1.667 0c0 1.198.785 2.215 1.866 2.567v4.308h-2.218v-.826a.833.833 0 0 0-.418-.722 7.002 7.002 0 0 1-3.508-6.055 6.985 6.985 0 0 1 6.978-6.978 6.985 6.985 0 0 1 6.977 6.978 7.002 7.002 0 0 1-3.507 6.055z" style="fill:#cecece;stroke:none;stroke-width:1px" transform="translate(1942.534 100.425)"/><g transform="translate(1658.786 -97.685)"><circle cx="16" cy="16" r="16" style="fill:#fff;stroke:none;stroke-width:1px;filter:url(#d)" transform="translate(316.8 250.8)"/><path d="M14.421 1.913a8.75 8.75 0 0 1 3.677 7.138c0 4.836-3.917 8.757-8.75 8.768-4.826.01-8.778-3.925-8.786-8.754a8.769 8.769 0 0 1 3.67-7.149.851.851 0 0 1 1.238.272l.558.994a.848.848 0 0 1-.233 1.096 5.91 5.91 0 0 0-2.404 4.77 5.935 5.935 0 0 0 5.94 5.942c3.238 0 5.96-2.623 5.939-5.978a5.942 5.942 0 0 0-2.408-4.738.843.843 0 0 1-.23-1.092l.56-.994a.847.847 0 0 1 1.23-.275zm-3.676 7.42V.85A.846.846 0 0 0 9.896 0H8.765a.846.846 0 0 0-.849.849v8.485c0 .47.379.848.849.848h1.131c.47 0 .849-.378.849-.848z" style="fill:#ff9696;stroke:none;stroke-width:1px" transform="translate(323.21 257.587)"/></g><g transform="matrix(.62288 0 0 .62288 1718.933 2.492)"><circle cx="11" cy="11" r="11" style="fill:#002d67;stroke:none;stroke-width:1px;filter:url(#e)" transform="translate(263 139)"/><circle cx="11" cy="11" r="11" style="fill:#ffd139;stroke:none;stroke-width:1px;filter:url(#f)" transform="translate(263 139)"/><path d="M30.334 1.617h79.054c3.314 0 4.206 2.324 6 6L139 62a6 6 0 0 1-6 6H6a6 6 0 0 1-6-6L24.334 7.617c1.503-3.38 2.686-6 6-6z" style="fill:#fff;stroke:none;stroke-width:1px" transform="translate(204 85)"/><path style="fill:#fff;stroke:none;stroke-width:1px" transform="translate(271 -4)" d="M0 0h5v102H0z"/><path style="opacity:.151479;fill:#568bd0;stroke:none;stroke-width:1px" transform="rotate(-23 378.224 -700.637)" clip-path="url(#g)" d="M0 0h4v58H0z"/></g><path d="M1939.477 124.412h-8.551l3.317-3.173c.475-.5.475-1.306 0-1.806-.476-.5-1.247-.5-1.727 0l-5.522 5.355c-.24.231-.36.547-.36.895v.016c0 .347.12.663.36.895l5.518 5.354c.48.5 1.25.5 1.726 0s.476-1.306 0-1.806l-3.316-3.173h8.551c.675 0 1.223-.57 1.223-1.278 0-.72-.544-1.279-1.219-1.279z" style="fill:#fff;stroke:none;stroke-width:1px"/><path style="fill:red;stroke:red;stroke-width:12.689;stroke-miterlimit:4;stroke-dasharray:none;stroke-opacity:1" d="M1933.968 263.025h115.425v116.132h-115.425z"/><text style="font-weight:700;font-size:16px;line-height:18px;font-family:CircularStd-Bold,'Circular Std';fill:#002d67" x="2121.028" y="218.19"><tspan x="2121.028" y="218.19">+</tspan></text></svg>