<?xml version="1.0" encoding="UTF-8" standalone="no"?>
<svg
   enable-background="new 1846 0 375 812"
   id="12fbf37a-3ab2-4bee-97f4-b878f6e427e6"
   viewBox="1846 0 86.579821 102.7746"
   width="86.579819"
   height="102.7746"
   version="1.1"
   sodipodi:docname="lamp.svg"
   inkscape:version="1.1.1 (3bf5ae0d25, 2021-09-20)"
   xmlns:inkscape="http://www.inkscape.org/namespaces/inkscape"
   xmlns:sodipodi="http://sodipodi.sourceforge.net/DTD/sodipodi-0.dtd"
   xmlns="http://www.w3.org/2000/svg"
   xmlns:svg="http://www.w3.org/2000/svg"
   xmlns:rdf="http://www.w3.org/1999/02/22-rdf-syntax-ns#"
   xmlns:cc="http://creativecommons.org/ns#"
   xmlns:dc="http://purl.org/dc/elements/1.1/">
  <sodipodi:namedview
     id="namedview382"
     pagecolor="#ffffff"
     bordercolor="#666666"
     borderopacity="1.0"
     inkscape:pageshadow="2"
     inkscape:pageopacity="0.0"
     inkscape:pagecheckerboard="0"
     showgrid="false"
     fit-margin-top="0"
     fit-margin-left="0"
     fit-margin-right="0"
     fit-margin-bottom="0"
     inkscape:zoom="2.8284271"
     inkscape:cx="175.89281"
     inkscape:cy="73.715882"
     inkscape:window-width="1920"
     inkscape:window-height="1001"
     inkscape:window-x="-9"
     inkscape:window-y="-9"
     inkscape:window-maximized="1"
     inkscape:current-layer="12fbf37a-3ab2-4bee-97f4-b878f6e427e6" />
  <defs
     id="defs102">
    <clipPath
       id="1f9b68c1-60d3-4b44-8eb0-5302c187f151">
      <path
         d="m 338.66669,-26.66667 h 16.66662 v 0 c 1.47278,0 2.66669,1.193911 2.66669,2.66667 v 6 0 c 0,1.472759 -1.19391,2.66667 -2.66669,2.66667 h -16.66662 v 0 C 337.19391,-15.33333 336,-16.527241 336,-18 v -6 0 c 0,-1.472759 1.19391,-2.66667 2.66669,-2.66667 z"
         id="c4499fc1-f79a-4aa4-b54f-5fd5e95c0faf"
         name="Shape"
         style="fill:#ffffff;stroke:none;stroke-width:1px"
         transform="translate(0,44)" />
    </clipPath>
    <clipPath
       id="84337bf4-535b-41f4-a6a0-80b0d8915984">
      <path
         d="m 359,-23 v 4 c 0.80469,-0.338779 1.328,-1.126869 1.328,-2 0,-0.873131 -0.52331,-1.661221 -1.328,-2"
         id="2644981c-4b07-411e-8f38-c306022136b1"
         name="Shape"
         style="fill:#ffffff;stroke:none;stroke-width:1px"
         transform="translate(0,44)" />
    </clipPath>
    <clipPath
       id="8c3da31f-de43-4cd3-9b0e-0ccfb73df357">
      <path
         d="m 339.33331,-24.66667 h 15.33338 v 0 c 0.73633,0 1.33331,0.59696 1.33331,1.33334 v 4.66666 0 c 0,0.73638 -0.59698,1.33334 -1.33331,1.33334 h -15.33338 v 0 c -0.73633,0 -1.33331,-0.59696 -1.33331,-1.33334 v -4.66666 0 c 0,-0.73638 0.59698,-1.33334 1.33331,-1.33334 z"
         id="276c75d0-2370-424b-9f45-3cf2eb4e73cc"
         name="Shape"
         style="fill:#ffffff;stroke:none;stroke-width:1px"
         transform="translate(0,44)" />
    </clipPath>
    <clipPath
       id="dc923a7c-e33d-4779-8b50-7f255a2ec9bd">
      <path
         d="m 323.33029,-24.392 c 2.21591,1.01e-4 4.34711,0.85153 5.953,2.37833 0.12101,0.11788 0.31431,0.11639 0.43342,-0.0033 l 1.156,-1.16667 c 0.0603,-0.06072 0.0939,-0.142969 0.0934,-0.22855 -4.8e-4,-0.08558 -0.0351,-0.167431 -0.0961,-0.227449 -4.21509,-4.039542 -10.8649,-4.039542 -15.07999,0 -0.0611,0.05997 -0.0957,0.1418 -0.0963,0.227378 -4.9e-4,0.08558 0.033,0.16786 0.0933,0.228621 l 1.15631,1.16667 c 0.11911,0.1199 0.3125,0.121389 0.43341,0.0033 1.60608,-1.526899 3.73749,-2.37834 5.95358,-2.37833 z m 0,3.795669 c 1.2175,-8e-5 2.3916,0.45245 3.29401,1.269661 0.1221,0.11598 0.31439,0.11347 0.43341,-0.0057 l 1.1546,-1.16667 c 0.0608,-0.06119 0.0946,-0.144208 0.0937,-0.23048 -8.9e-4,-0.08626 -0.0363,-0.168569 -0.0983,-0.228519 -2.7482,-2.55638 -7.00421,-2.55638 -9.75241,0 -0.062,0.05995 -0.0975,0.142299 -0.0983,0.22859 -7.9e-4,0.08629 0.0331,0.1693 0.094,0.230409 l 1.1543,1.16667 c 0.11901,0.119131 0.31131,0.121641 0.43341,0.0057 0.90179,-0.816669 2.07489,-1.269161 3.29159,-1.269661 z m 2.219,2.784331 c 0.0618,-0.06061 0.0958,-0.144011 0.094,-0.230509 -0.002,-0.08651 -0.0391,-0.168461 -0.1033,-0.22649 -1.27561,-1.07888 -3.1438,-1.07888 -4.41931,0 -0.0643,0.05799 -0.10169,0.13991 -0.10349,0.22641 -0.002,0.08651 0.0321,0.169939 0.0938,0.230589 l 1.99771,2.01567 c 0.0585,0.05924 0.13831,0.09257 0.22159,0.09257 0.0833,0 0.16312,-0.03333 0.22171,-0.09257 z"
         id="731a06b6-ab90-4b5c-8793-f208fce0b810"
         name="Shape"
         style="fill:#ffffff;stroke:none;stroke-width:1px"
         transform="translate(0,44)" />
    </clipPath>
    <clipPath
       id="243bde36-ab8f-42a7-a7b1-40bcda06243d">
      <path
         d="m 294.66669,-19.66667 h 1 c 0.5523,0 1,0.44772 1,1 v 2 c 0,0.55229 -0.4477,1 -1,1 h -1 c -0.55228,0 -1,-0.44771 -1,-1 v -2 c 0,-0.55228 0.44772,-1 1,-1 z m 4.66662,-2 h 1 c 0.55228,0 1,0.44772 1,1 v 4 c 0,0.55229 -0.44772,1 -1,1 h -1 c -0.5523,0 -1,-0.44771 -1,-1 v -4 c 0,-0.55228 0.4477,-1 1,-1 z M 304,-24 h 1 c 0.55231,0 1,0.44772 1,1 v 6.33333 c 0,0.55229 -0.44769,1 -1,1 h -1 c -0.55231,0 -1,-0.44771 -1,-1 V -23 c 0,-0.55228 0.44769,-1 1,-1 z m 4.66669,-2.33333 h 1 c 0.5523,0 1,0.44771 1,1 v 8.66666 c 0,0.55229 -0.4477,1 -1,1 h -1 c -0.55228,0 -1,-0.44771 -1,-1 v -8.66666 c 0,-0.55229 0.44772,-1 1,-1 z"
         id="5c52475f-e6e4-4c68-b667-7f03d6a741e4"
         name="Shape"
         style="fill:#ffffff;stroke:none;stroke-width:1px"
         transform="translate(0,44)" />
    </clipPath>
    <clipPath
       id="b5a84f95-ca84-4b45-b62c-53a0ddcb3ad9">
      <path
         d="m 338.66669,-26.66667 h 16.66662 v 0 c 1.47278,0 2.66669,1.193911 2.66669,2.66667 v 6 0 c 0,1.472759 -1.19391,2.66667 -2.66669,2.66667 h -16.66662 v 0 C 337.19391,-15.33333 336,-16.527241 336,-18 v -6 0 c 0,-1.472759 1.19391,-2.66667 2.66669,-2.66667 z"
         id="5b9643e2-1363-44ad-8abe-eac62c1593a7"
         name="Shape"
         style="fill:#ffffff;stroke:none;stroke-width:1px"
         transform="translate(0,44)" />
    </clipPath>
    <clipPath
       id="32aaad2c-058c-4a84-8758-ad378ca72552">
      <path
         d="m 359,-23 v 4 c 0.80469,-0.338779 1.328,-1.126869 1.328,-2 0,-0.873131 -0.52331,-1.661221 -1.328,-2"
         id="d957b578-e5c9-4d23-891c-74d9e78c7a37"
         name="Shape"
         style="fill:#ffffff;stroke:none;stroke-width:1px"
         transform="translate(0,44)" />
    </clipPath>
    <clipPath
       id="cdea55a0-3aa5-452e-991f-c246bd5d5af0">
      <path
         d="m 339.33331,-24.66667 h 15.33338 v 0 c 0.73633,0 1.33331,0.59696 1.33331,1.33334 v 4.66666 0 c 0,0.73638 -0.59698,1.33334 -1.33331,1.33334 h -15.33338 v 0 c -0.73633,0 -1.33331,-0.59696 -1.33331,-1.33334 v -4.66666 0 c 0,-0.73638 0.59698,-1.33334 1.33331,-1.33334 z"
         id="0fdcf10d-0486-4458-a34d-8af09d42cfa7"
         name="Shape"
         style="fill:#ffffff;stroke:none;stroke-width:1px"
         transform="translate(0,44)" />
    </clipPath>
    <clipPath
       id="783a7014-67e9-4b4b-b843-5778e0393a29">
      <path
         d="m 323.33029,-24.392 c 2.21591,1.01e-4 4.34711,0.85153 5.953,2.37833 0.12101,0.11788 0.31431,0.11639 0.43342,-0.0033 l 1.156,-1.16667 c 0.0603,-0.06072 0.0939,-0.142969 0.0934,-0.22855 -4.8e-4,-0.08558 -0.0351,-0.167431 -0.0961,-0.227449 -4.21509,-4.039542 -10.8649,-4.039542 -15.07999,0 -0.0611,0.05997 -0.0957,0.1418 -0.0963,0.227378 -4.9e-4,0.08558 0.033,0.16786 0.0933,0.228621 l 1.15631,1.16667 c 0.11911,0.1199 0.3125,0.121389 0.43341,0.0033 1.60608,-1.526899 3.73749,-2.37834 5.95358,-2.37833 z m 0,3.795669 c 1.2175,-8e-5 2.3916,0.45245 3.29401,1.269661 0.1221,0.11598 0.31439,0.11347 0.43341,-0.0057 l 1.1546,-1.16667 c 0.0608,-0.06119 0.0946,-0.144208 0.0937,-0.23048 -8.9e-4,-0.08626 -0.0363,-0.168569 -0.0983,-0.228519 -2.7482,-2.55638 -7.00421,-2.55638 -9.75241,0 -0.062,0.05995 -0.0975,0.142299 -0.0983,0.22859 -7.9e-4,0.08629 0.0331,0.1693 0.094,0.230409 l 1.1543,1.16667 c 0.11901,0.119131 0.31131,0.121641 0.43341,0.0057 0.90179,-0.816669 2.07489,-1.269161 3.29159,-1.269661 z m 2.219,2.784331 c 0.0618,-0.06061 0.0958,-0.144011 0.094,-0.230509 -0.002,-0.08651 -0.0391,-0.168461 -0.1033,-0.22649 -1.27561,-1.07888 -3.1438,-1.07888 -4.41931,0 -0.0643,0.05799 -0.10169,0.13991 -0.10349,0.22641 -0.002,0.08651 0.0321,0.169939 0.0938,0.230589 l 1.99771,2.01567 c 0.0585,0.05924 0.13831,0.09257 0.22159,0.09257 0.0833,0 0.16312,-0.03333 0.22171,-0.09257 z"
         id="33b43f36-d24c-4c82-ad41-324bc05b5d59"
         name="Shape"
         style="fill:#ffffff;stroke:none;stroke-width:1px"
         transform="translate(0,44)" />
    </clipPath>
    <clipPath
       id="d1a4d933-3d1b-440c-b0bf-492d40731409">
      <path
         d="m 294.66669,-19.66667 h 1 c 0.5523,0 1,0.44772 1,1 v 2 c 0,0.55229 -0.4477,1 -1,1 h -1 c -0.55228,0 -1,-0.44771 -1,-1 v -2 c 0,-0.55228 0.44772,-1 1,-1 z m 4.66662,-2 h 1 c 0.55228,0 1,0.44772 1,1 v 4 c 0,0.55229 -0.44772,1 -1,1 h -1 c -0.5523,0 -1,-0.44771 -1,-1 v -4 c 0,-0.55228 0.4477,-1 1,-1 z M 304,-24 h 1 c 0.55231,0 1,0.44772 1,1 v 6.33333 c 0,0.55229 -0.44769,1 -1,1 h -1 c -0.55231,0 -1,-0.44771 -1,-1 V -23 c 0,-0.55228 0.44769,-1 1,-1 z m 4.66669,-2.33333 h 1 c 0.5523,0 1,0.44771 1,1 v 8.66666 c 0,0.55229 -0.4477,1 -1,1 h -1 c -0.55228,0 -1,-0.44771 -1,-1 v -8.66666 c 0,-0.55229 0.44772,-1 1,-1 z"
         id="73c235c0-66d7-4dca-b8d3-097e43d996bb"
         name="Shape"
         style="fill:#ffffff;stroke:none;stroke-width:1px"
         transform="translate(0,44)" />
    </clipPath>
    <clipPath
       id="ba1cc352-3b8e-46d1-8495-aea9e47b1e01">
      <path
         d="m 338.66669,-26.66667 h 16.66662 v 0 c 1.47278,0 2.66669,1.193911 2.66669,2.66667 v 6 0 c 0,1.472759 -1.19391,2.66667 -2.66669,2.66667 h -16.66662 v 0 C 337.19391,-15.33333 336,-16.527241 336,-18 v -6 0 c 0,-1.472759 1.19391,-2.66667 2.66669,-2.66667 z"
         id="75d7e9f0-9856-4e05-ab20-657dfe840b74"
         name="Shape"
         style="fill:#ffffff;stroke:none;stroke-width:1px"
         transform="translate(0,44)" />
    </clipPath>
    <clipPath
       id="787f8062-2c6f-4f49-9df6-7cf1b5a877b7">
      <path
         d="m 359,-23 v 4 c 0.80469,-0.338779 1.328,-1.126869 1.328,-2 0,-0.873131 -0.52331,-1.661221 -1.328,-2"
         id="76445036-7c6a-4135-81d8-0d19d9274ba0"
         name="Shape"
         style="fill:#ffffff;stroke:none;stroke-width:1px"
         transform="translate(0,44)" />
    </clipPath>
    <clipPath
       id="a619367f-e62c-4f24-99e5-d3a19068128b">
      <path
         d="m 339.33331,-24.66667 h 15.33338 v 0 c 0.73633,0 1.33331,0.59696 1.33331,1.33334 v 4.66666 0 c 0,0.73638 -0.59698,1.33334 -1.33331,1.33334 h -15.33338 v 0 c -0.73633,0 -1.33331,-0.59696 -1.33331,-1.33334 v -4.66666 0 c 0,-0.73638 0.59698,-1.33334 1.33331,-1.33334 z"
         id="ba1021b3-159e-49fb-86c5-6ce389f05b9d"
         name="Shape"
         style="fill:#ffffff;stroke:none;stroke-width:1px"
         transform="translate(0,44)" />
    </clipPath>
    <clipPath
       id="a458850d-fd07-403d-9655-a92581228f79">
      <path
         d="m 323.33029,-24.392 c 2.21591,1.01e-4 4.34711,0.85153 5.953,2.37833 0.12101,0.11788 0.31431,0.11639 0.43342,-0.0033 l 1.156,-1.16667 c 0.0603,-0.06072 0.0939,-0.142969 0.0934,-0.22855 -4.8e-4,-0.08558 -0.0351,-0.167431 -0.0961,-0.227449 -4.21509,-4.039542 -10.8649,-4.039542 -15.07999,0 -0.0611,0.05997 -0.0957,0.1418 -0.0963,0.227378 -4.9e-4,0.08558 0.033,0.16786 0.0933,0.228621 l 1.15631,1.16667 c 0.11911,0.1199 0.3125,0.121389 0.43341,0.0033 1.60608,-1.526899 3.73749,-2.37834 5.95358,-2.37833 z m 0,3.795669 c 1.2175,-8e-5 2.3916,0.45245 3.29401,1.269661 0.1221,0.11598 0.31439,0.11347 0.43341,-0.0057 l 1.1546,-1.16667 c 0.0608,-0.06119 0.0946,-0.144208 0.0937,-0.23048 -8.9e-4,-0.08626 -0.0363,-0.168569 -0.0983,-0.228519 -2.7482,-2.55638 -7.00421,-2.55638 -9.75241,0 -0.062,0.05995 -0.0975,0.142299 -0.0983,0.22859 -7.9e-4,0.08629 0.0331,0.1693 0.094,0.230409 l 1.1543,1.16667 c 0.11901,0.119131 0.31131,0.121641 0.43341,0.0057 0.90179,-0.816669 2.07489,-1.269161 3.29159,-1.269661 z m 2.219,2.784331 c 0.0618,-0.06061 0.0958,-0.144011 0.094,-0.230509 -0.002,-0.08651 -0.0391,-0.168461 -0.1033,-0.22649 -1.27561,-1.07888 -3.1438,-1.07888 -4.41931,0 -0.0643,0.05799 -0.10169,0.13991 -0.10349,0.22641 -0.002,0.08651 0.0321,0.169939 0.0938,0.230589 l 1.99771,2.01567 c 0.0585,0.05924 0.13831,0.09257 0.22159,0.09257 0.0833,0 0.16312,-0.03333 0.22171,-0.09257 z"
         id="11594721-00af-46f6-b467-d96f9b57d194"
         name="Shape"
         style="fill:#ffffff;stroke:none;stroke-width:1px"
         transform="translate(0,44)" />
    </clipPath>
    <clipPath
       id="e27f3b71-af00-4552-8948-5a9155fa8767">
      <path
         d="m 294.66669,-19.66667 h 1 c 0.5523,0 1,0.44772 1,1 v 2 c 0,0.55229 -0.4477,1 -1,1 h -1 c -0.55228,0 -1,-0.44771 -1,-1 v -2 c 0,-0.55228 0.44772,-1 1,-1 z m 4.66662,-2 h 1 c 0.55228,0 1,0.44772 1,1 v 4 c 0,0.55229 -0.44772,1 -1,1 h -1 c -0.5523,0 -1,-0.44771 -1,-1 v -4 c 0,-0.55228 0.4477,-1 1,-1 z M 304,-24 h 1 c 0.55231,0 1,0.44772 1,1 v 6.33333 c 0,0.55229 -0.44769,1 -1,1 h -1 c -0.55231,0 -1,-0.44771 -1,-1 V -23 c 0,-0.55228 0.44769,-1 1,-1 z m 4.66669,-2.33333 h 1 c 0.5523,0 1,0.44771 1,1 v 8.66666 c 0,0.55229 -0.4477,1 -1,1 h -1 c -0.55228,0 -1,-0.44771 -1,-1 v -8.66666 c 0,-0.55229 0.44772,-1 1,-1 z"
         id="b5b67ccf-11bf-472e-892b-8e960821c956"
         name="Shape"
         style="fill:#ffffff;stroke:none;stroke-width:1px"
         transform="translate(0,44)" />
    </clipPath>
    <clipPath
       id="ecd1c285-b691-42f0-92e3-765bd2713c77">
      <path
         d="m 338.66669,-26.66667 h 16.66662 v 0 c 1.47278,0 2.66669,1.193911 2.66669,2.66667 v 6 0 c 0,1.472759 -1.19391,2.66667 -2.66669,2.66667 h -16.66662 v 0 C 337.19391,-15.33333 336,-16.527241 336,-18 v -6 0 c 0,-1.472759 1.19391,-2.66667 2.66669,-2.66667 z"
         id="c8793ba7-7685-47f7-9df9-4068e50092e8"
         name="Shape"
         style="fill:#ffffff;stroke:none;stroke-width:1px"
         transform="translate(0,44)" />
    </clipPath>
    <clipPath
       id="ca90898a-14ca-49f9-b6f5-d848d204bce2">
      <path
         d="m 359,-23 v 4 c 0.80469,-0.338779 1.328,-1.126869 1.328,-2 0,-0.873131 -0.52331,-1.661221 -1.328,-2"
         id="b941fa5c-6063-49d3-84c0-11711918757c"
         name="Shape"
         style="fill:#ffffff;stroke:none;stroke-width:1px"
         transform="translate(0,44)" />
    </clipPath>
    <clipPath
       id="d3f1fdde-3a22-4f6f-85bc-a33b1ba60d58">
      <path
         d="m 339.33331,-24.66667 h 15.33338 v 0 c 0.73633,0 1.33331,0.59696 1.33331,1.33334 v 4.66666 0 c 0,0.73638 -0.59698,1.33334 -1.33331,1.33334 h -15.33338 v 0 c -0.73633,0 -1.33331,-0.59696 -1.33331,-1.33334 v -4.66666 0 c 0,-0.73638 0.59698,-1.33334 1.33331,-1.33334 z"
         id="27dfd55b-aa79-49fb-a6d6-5d893cc69ffd"
         name="Shape"
         style="fill:#ffffff;stroke:none;stroke-width:1px"
         transform="translate(0,44)" />
    </clipPath>
    <clipPath
       id="e119301a-bebd-45c9-84fe-f72161cbb52d">
      <path
         d="m 323.33029,-24.392 c 2.21591,1.01e-4 4.34711,0.85153 5.953,2.37833 0.12101,0.11788 0.31431,0.11639 0.43342,-0.0033 l 1.156,-1.16667 c 0.0603,-0.06072 0.0939,-0.142969 0.0934,-0.22855 -4.8e-4,-0.08558 -0.0351,-0.167431 -0.0961,-0.227449 -4.21509,-4.039542 -10.8649,-4.039542 -15.07999,0 -0.0611,0.05997 -0.0957,0.1418 -0.0963,0.227378 -4.9e-4,0.08558 0.033,0.16786 0.0933,0.228621 l 1.15631,1.16667 c 0.11911,0.1199 0.3125,0.121389 0.43341,0.0033 1.60608,-1.526899 3.73749,-2.37834 5.95358,-2.37833 z m 0,3.795669 c 1.2175,-8e-5 2.3916,0.45245 3.29401,1.269661 0.1221,0.11598 0.31439,0.11347 0.43341,-0.0057 l 1.1546,-1.16667 c 0.0608,-0.06119 0.0946,-0.144208 0.0937,-0.23048 -8.9e-4,-0.08626 -0.0363,-0.168569 -0.0983,-0.228519 -2.7482,-2.55638 -7.00421,-2.55638 -9.75241,0 -0.062,0.05995 -0.0975,0.142299 -0.0983,0.22859 -7.9e-4,0.08629 0.0331,0.1693 0.094,0.230409 l 1.1543,1.16667 c 0.11901,0.119131 0.31131,0.121641 0.43341,0.0057 0.90179,-0.816669 2.07489,-1.269161 3.29159,-1.269661 z m 2.219,2.784331 c 0.0618,-0.06061 0.0958,-0.144011 0.094,-0.230509 -0.002,-0.08651 -0.0391,-0.168461 -0.1033,-0.22649 -1.27561,-1.07888 -3.1438,-1.07888 -4.41931,0 -0.0643,0.05799 -0.10169,0.13991 -0.10349,0.22641 -0.002,0.08651 0.0321,0.169939 0.0938,0.230589 l 1.99771,2.01567 c 0.0585,0.05924 0.13831,0.09257 0.22159,0.09257 0.0833,0 0.16312,-0.03333 0.22171,-0.09257 z"
         id="189b05d0-58a3-4838-8548-722e8be1d308"
         name="Shape"
         style="fill:#ffffff;stroke:none;stroke-width:1px"
         transform="translate(0,44)" />
    </clipPath>
    <clipPath
       id="7570ca69-6836-4514-ad51-2d0a1c4a7e38">
      <path
         d="m 294.66669,-19.66667 h 1 c 0.5523,0 1,0.44772 1,1 v 2 c 0,0.55229 -0.4477,1 -1,1 h -1 c -0.55228,0 -1,-0.44771 -1,-1 v -2 c 0,-0.55228 0.44772,-1 1,-1 z m 4.66662,-2 h 1 c 0.55228,0 1,0.44772 1,1 v 4 c 0,0.55229 -0.44772,1 -1,1 h -1 c -0.5523,0 -1,-0.44771 -1,-1 v -4 c 0,-0.55228 0.4477,-1 1,-1 z M 304,-24 h 1 c 0.55231,0 1,0.44772 1,1 v 6.33333 c 0,0.55229 -0.44769,1 -1,1 h -1 c -0.55231,0 -1,-0.44771 -1,-1 V -23 c 0,-0.55228 0.44769,-1 1,-1 z m 4.66669,-2.33333 h 1 c 0.5523,0 1,0.44771 1,1 v 8.66666 c 0,0.55229 -0.4477,1 -1,1 h -1 c -0.55228,0 -1,-0.44771 -1,-1 v -8.66666 c 0,-0.55229 0.44772,-1 1,-1 z"
         id="e5af47e1-f498-400b-87c7-91e31c8e4d28"
         name="Shape"
         style="fill:#ffffff;stroke:none;stroke-width:1px"
         transform="translate(0,44)" />
    </clipPath>
    <clipPath
       id="09f87617-780a-49d9-b37b-8909ed00be9d">
      <path
         d="m 338.66669,-26.66667 h 16.66662 v 0 c 1.47278,0 2.66669,1.193911 2.66669,2.66667 v 6 0 c 0,1.472759 -1.19391,2.66667 -2.66669,2.66667 h -16.66662 v 0 C 337.19391,-15.33333 336,-16.527241 336,-18 v -6 0 c 0,-1.472759 1.19391,-2.66667 2.66669,-2.66667 z"
         id="3970dcd8-5889-4ed6-8c9d-02eaa555ebc5"
         name="Shape"
         style="fill:#ffffff;stroke:none;stroke-width:1px"
         transform="translate(0,44)" />
    </clipPath>
    <clipPath
       id="a0de8b21-030f-4fa5-a8b4-063bd91a46aa">
      <path
         d="m 359,-23 v 4 c 0.80469,-0.338779 1.328,-1.126869 1.328,-2 0,-0.873131 -0.52331,-1.661221 -1.328,-2"
         id="6f9bde21-51d2-4ceb-815e-281d124edb4a"
         name="Shape"
         style="fill:#ffffff;stroke:none;stroke-width:1px"
         transform="translate(0,44)" />
    </clipPath>
    <clipPath
       id="982e4a8f-5cf6-4523-882c-966d8cd3f430">
      <path
         d="m 339.33331,-24.66667 h 15.33338 v 0 c 0.73633,0 1.33331,0.59696 1.33331,1.33334 v 4.66666 0 c 0,0.73638 -0.59698,1.33334 -1.33331,1.33334 h -15.33338 v 0 c -0.73633,0 -1.33331,-0.59696 -1.33331,-1.33334 v -4.66666 0 c 0,-0.73638 0.59698,-1.33334 1.33331,-1.33334 z"
         id="e41386f0-11d3-444a-a8cc-ac35acac9a80"
         name="Shape"
         style="fill:#ffffff;stroke:none;stroke-width:1px"
         transform="translate(0,44)" />
    </clipPath>
    <clipPath
       id="0724311b-bb3c-438a-a2ab-3c26e4f17027">
      <path
         d="m 323.33029,-24.392 c 2.21591,1.01e-4 4.34711,0.85153 5.953,2.37833 0.12101,0.11788 0.31431,0.11639 0.43342,-0.0033 l 1.156,-1.16667 c 0.0603,-0.06072 0.0939,-0.142969 0.0934,-0.22855 -4.8e-4,-0.08558 -0.0351,-0.167431 -0.0961,-0.227449 -4.21509,-4.039542 -10.8649,-4.039542 -15.07999,0 -0.0611,0.05997 -0.0957,0.1418 -0.0963,0.227378 -4.9e-4,0.08558 0.033,0.16786 0.0933,0.228621 l 1.15631,1.16667 c 0.11911,0.1199 0.3125,0.121389 0.43341,0.0033 1.60608,-1.526899 3.73749,-2.37834 5.95358,-2.37833 z m 0,3.795669 c 1.2175,-8e-5 2.3916,0.45245 3.29401,1.269661 0.1221,0.11598 0.31439,0.11347 0.43341,-0.0057 l 1.1546,-1.16667 c 0.0608,-0.06119 0.0946,-0.144208 0.0937,-0.23048 -8.9e-4,-0.08626 -0.0363,-0.168569 -0.0983,-0.228519 -2.7482,-2.55638 -7.00421,-2.55638 -9.75241,0 -0.062,0.05995 -0.0975,0.142299 -0.0983,0.22859 -7.9e-4,0.08629 0.0331,0.1693 0.094,0.230409 l 1.1543,1.16667 c 0.11901,0.119131 0.31131,0.121641 0.43341,0.0057 0.90179,-0.816669 2.07489,-1.269161 3.29159,-1.269661 z m 2.219,2.784331 c 0.0618,-0.06061 0.0958,-0.144011 0.094,-0.230509 -0.002,-0.08651 -0.0391,-0.168461 -0.1033,-0.22649 -1.27561,-1.07888 -3.1438,-1.07888 -4.41931,0 -0.0643,0.05799 -0.10169,0.13991 -0.10349,0.22641 -0.002,0.08651 0.0321,0.169939 0.0938,0.230589 l 1.99771,2.01567 c 0.0585,0.05924 0.13831,0.09257 0.22159,0.09257 0.0833,0 0.16312,-0.03333 0.22171,-0.09257 z"
         id="4f091ddf-112e-4196-8cbf-78e0f7c69db3"
         name="Shape"
         style="fill:#ffffff;stroke:none;stroke-width:1px"
         transform="translate(0,44)" />
    </clipPath>
    <clipPath
       id="74cd91e9-5410-4918-a88b-d273a166f23e">
      <path
         d="m 294.66669,-19.66667 h 1 c 0.5523,0 1,0.44772 1,1 v 2 c 0,0.55229 -0.4477,1 -1,1 h -1 c -0.55228,0 -1,-0.44771 -1,-1 v -2 c 0,-0.55228 0.44772,-1 1,-1 z m 4.66662,-2 h 1 c 0.55228,0 1,0.44772 1,1 v 4 c 0,0.55229 -0.44772,1 -1,1 h -1 c -0.5523,0 -1,-0.44771 -1,-1 v -4 c 0,-0.55228 0.4477,-1 1,-1 z M 304,-24 h 1 c 0.55231,0 1,0.44772 1,1 v 6.33333 c 0,0.55229 -0.44769,1 -1,1 h -1 c -0.55231,0 -1,-0.44771 -1,-1 V -23 c 0,-0.55228 0.44769,-1 1,-1 z m 4.66669,-2.33333 h 1 c 0.5523,0 1,0.44771 1,1 v 8.66666 c 0,0.55229 -0.4477,1 -1,1 h -1 c -0.55228,0 -1,-0.44771 -1,-1 v -8.66666 c 0,-0.55229 0.44772,-1 1,-1 z"
         id="29756d5e-3ce7-42b8-a43c-2a729e1eaf70"
         name="Shape"
         style="fill:#ffffff;stroke:none;stroke-width:1px"
         transform="translate(0,44)" />
    </clipPath>
    <clipPath
       id="1c0d8f15-aaca-4084-a131-e387db544555">
      <path
         d="m 338.66669,-26.66667 h 16.66662 v 0 c 1.47278,0 2.66669,1.193911 2.66669,2.66667 v 6 0 c 0,1.472759 -1.19391,2.66667 -2.66669,2.66667 h -16.66662 v 0 C 337.19391,-15.33333 336,-16.527241 336,-18 v -6 0 c 0,-1.472759 1.19391,-2.66667 2.66669,-2.66667 z"
         id="b81bd21d-cf45-4f17-b2c0-c57f96b821fb"
         name="Shape"
         style="fill:#ffffff;stroke:none;stroke-width:1px"
         transform="translate(0,44)" />
    </clipPath>
    <clipPath
       id="655bcf11-18ba-4026-aaca-5bbd9b561786">
      <path
         d="m 359,-23 v 4 c 0.80469,-0.338779 1.328,-1.126869 1.328,-2 0,-0.873131 -0.52331,-1.661221 -1.328,-2"
         id="9b793483-adac-4278-80d9-ef1a244e3b89"
         name="Shape"
         style="fill:#ffffff;stroke:none;stroke-width:1px"
         transform="translate(0,44)" />
    </clipPath>
    <clipPath
       id="5d971f2b-984e-4f9f-8e57-d68b6324f1d1">
      <path
         d="m 339.33331,-24.66667 h 15.33338 v 0 c 0.73633,0 1.33331,0.59696 1.33331,1.33334 v 4.66666 0 c 0,0.73638 -0.59698,1.33334 -1.33331,1.33334 h -15.33338 v 0 c -0.73633,0 -1.33331,-0.59696 -1.33331,-1.33334 v -4.66666 0 c 0,-0.73638 0.59698,-1.33334 1.33331,-1.33334 z"
         id="af4a2dad-a74f-45ec-ba89-32e41260b017"
         name="Shape"
         style="fill:#ffffff;stroke:none;stroke-width:1px"
         transform="translate(0,44)" />
    </clipPath>
    <clipPath
       id="28b13107-2dc0-49a8-9358-cc9c15a9540d">
      <path
         d="m 323.33029,-24.392 c 2.21591,1.01e-4 4.34711,0.85153 5.953,2.37833 0.12101,0.11788 0.31431,0.11639 0.43342,-0.0033 l 1.156,-1.16667 c 0.0603,-0.06072 0.0939,-0.142969 0.0934,-0.22855 -4.8e-4,-0.08558 -0.0351,-0.167431 -0.0961,-0.227449 -4.21509,-4.039542 -10.8649,-4.039542 -15.07999,0 -0.0611,0.05997 -0.0957,0.1418 -0.0963,0.227378 -4.9e-4,0.08558 0.033,0.16786 0.0933,0.228621 l 1.15631,1.16667 c 0.11911,0.1199 0.3125,0.121389 0.43341,0.0033 1.60608,-1.526899 3.73749,-2.37834 5.95358,-2.37833 z m 0,3.795669 c 1.2175,-8e-5 2.3916,0.45245 3.29401,1.269661 0.1221,0.11598 0.31439,0.11347 0.43341,-0.0057 l 1.1546,-1.16667 c 0.0608,-0.06119 0.0946,-0.144208 0.0937,-0.23048 -8.9e-4,-0.08626 -0.0363,-0.168569 -0.0983,-0.228519 -2.7482,-2.55638 -7.00421,-2.55638 -9.75241,0 -0.062,0.05995 -0.0975,0.142299 -0.0983,0.22859 -7.9e-4,0.08629 0.0331,0.1693 0.094,0.230409 l 1.1543,1.16667 c 0.11901,0.119131 0.31131,0.121641 0.43341,0.0057 0.90179,-0.816669 2.07489,-1.269161 3.29159,-1.269661 z m 2.219,2.784331 c 0.0618,-0.06061 0.0958,-0.144011 0.094,-0.230509 -0.002,-0.08651 -0.0391,-0.168461 -0.1033,-0.22649 -1.27561,-1.07888 -3.1438,-1.07888 -4.41931,0 -0.0643,0.05799 -0.10169,0.13991 -0.10349,0.22641 -0.002,0.08651 0.0321,0.169939 0.0938,0.230589 l 1.99771,2.01567 c 0.0585,0.05924 0.13831,0.09257 0.22159,0.09257 0.0833,0 0.16312,-0.03333 0.22171,-0.09257 z"
         id="b4e1cc84-69ab-4e76-800a-13fc56faa789"
         name="Shape"
         style="fill:#ffffff;stroke:none;stroke-width:1px"
         transform="translate(0,44)" />
    </clipPath>
    <clipPath
       id="99b9e8e5-50ab-4060-a14d-82a561a8ca08">
      <path
         d="m 294.66669,-19.66667 h 1 c 0.5523,0 1,0.44772 1,1 v 2 c 0,0.55229 -0.4477,1 -1,1 h -1 c -0.55228,0 -1,-0.44771 -1,-1 v -2 c 0,-0.55228 0.44772,-1 1,-1 z m 4.66662,-2 h 1 c 0.55228,0 1,0.44772 1,1 v 4 c 0,0.55229 -0.44772,1 -1,1 h -1 c -0.5523,0 -1,-0.44771 -1,-1 v -4 c 0,-0.55228 0.4477,-1 1,-1 z M 304,-24 h 1 c 0.55231,0 1,0.44772 1,1 v 6.33333 c 0,0.55229 -0.44769,1 -1,1 h -1 c -0.55231,0 -1,-0.44771 -1,-1 V -23 c 0,-0.55228 0.44769,-1 1,-1 z m 4.66669,-2.33333 h 1 c 0.5523,0 1,0.44771 1,1 v 8.66666 c 0,0.55229 -0.4477,1 -1,1 h -1 c -0.55228,0 -1,-0.44771 -1,-1 v -8.66666 c 0,-0.55229 0.44772,-1 1,-1 z"
         id="211fec9d-e9ff-4b28-8414-55fdf245bae6"
         name="Shape"
         style="fill:#ffffff;stroke:none;stroke-width:1px"
         transform="translate(0,44)" />
    </clipPath>
    <clipPath
       id="a5a18629-e785-4f11-bfb5-492fd5e527bc">
      <path
         d="m 338.66669,-26.66667 h 16.66662 v 0 c 1.47278,0 2.66669,1.193911 2.66669,2.66667 v 6 0 c 0,1.472759 -1.19391,2.66667 -2.66669,2.66667 h -16.66662 v 0 C 337.19391,-15.33333 336,-16.527241 336,-18 v -6 0 c 0,-1.472759 1.19391,-2.66667 2.66669,-2.66667 z"
         id="c4c9aef8-de4f-4bf0-9806-b3d99e547b3d"
         name="Shape"
         style="fill:#ffffff;stroke:none;stroke-width:1px"
         transform="translate(0,44)" />
    </clipPath>
    <clipPath
       id="ad35c81f-6928-4b14-aa9f-dad456d4ddf6">
      <path
         d="m 359,-23 v 4 c 0.80469,-0.338779 1.328,-1.126869 1.328,-2 0,-0.873131 -0.52331,-1.661221 -1.328,-2"
         id="939aa1e7-597b-4470-9e87-2c53b36006a1"
         name="Shape"
         style="fill:#ffffff;stroke:none;stroke-width:1px"
         transform="translate(0,44)" />
    </clipPath>
    <clipPath
       id="225da37f-0e79-4e7d-bfc9-5bc6e795bf16">
      <path
         d="m 339.33331,-24.66667 h 15.33338 v 0 c 0.73633,0 1.33331,0.59696 1.33331,1.33334 v 4.66666 0 c 0,0.73638 -0.59698,1.33334 -1.33331,1.33334 h -15.33338 v 0 c -0.73633,0 -1.33331,-0.59696 -1.33331,-1.33334 v -4.66666 0 c 0,-0.73638 0.59698,-1.33334 1.33331,-1.33334 z"
         id="17304a9e-59e1-4691-acc2-501d8b9b9beb"
         name="Shape"
         style="fill:#ffffff;stroke:none;stroke-width:1px"
         transform="translate(0,44)" />
    </clipPath>
    <clipPath
       id="4bd7f7f4-e534-4122-b3be-26b2027884c9">
      <path
         d="m 323.33029,-24.392 c 2.21591,1.01e-4 4.34711,0.85153 5.953,2.37833 0.12101,0.11788 0.31431,0.11639 0.43342,-0.0033 l 1.156,-1.16667 c 0.0603,-0.06072 0.0939,-0.142969 0.0934,-0.22855 -4.8e-4,-0.08558 -0.0351,-0.167431 -0.0961,-0.227449 -4.21509,-4.039542 -10.8649,-4.039542 -15.07999,0 -0.0611,0.05997 -0.0957,0.1418 -0.0963,0.227378 -4.9e-4,0.08558 0.033,0.16786 0.0933,0.228621 l 1.15631,1.16667 c 0.11911,0.1199 0.3125,0.121389 0.43341,0.0033 1.60608,-1.526899 3.73749,-2.37834 5.95358,-2.37833 z m 0,3.795669 c 1.2175,-8e-5 2.3916,0.45245 3.29401,1.269661 0.1221,0.11598 0.31439,0.11347 0.43341,-0.0057 l 1.1546,-1.16667 c 0.0608,-0.06119 0.0946,-0.144208 0.0937,-0.23048 -8.9e-4,-0.08626 -0.0363,-0.168569 -0.0983,-0.228519 -2.7482,-2.55638 -7.00421,-2.55638 -9.75241,0 -0.062,0.05995 -0.0975,0.142299 -0.0983,0.22859 -7.9e-4,0.08629 0.0331,0.1693 0.094,0.230409 l 1.1543,1.16667 c 0.11901,0.119131 0.31131,0.121641 0.43341,0.0057 0.90179,-0.816669 2.07489,-1.269161 3.29159,-1.269661 z m 2.219,2.784331 c 0.0618,-0.06061 0.0958,-0.144011 0.094,-0.230509 -0.002,-0.08651 -0.0391,-0.168461 -0.1033,-0.22649 -1.27561,-1.07888 -3.1438,-1.07888 -4.41931,0 -0.0643,0.05799 -0.10169,0.13991 -0.10349,0.22641 -0.002,0.08651 0.0321,0.169939 0.0938,0.230589 l 1.99771,2.01567 c 0.0585,0.05924 0.13831,0.09257 0.22159,0.09257 0.0833,0 0.16312,-0.03333 0.22171,-0.09257 z"
         id="b2a211e7-623d-43b9-8b74-8c0361bc1411"
         name="Shape"
         style="fill:#ffffff;stroke:none;stroke-width:1px"
         transform="translate(0,44)" />
    </clipPath>
    <clipPath
       id="f8912c57-0949-4cea-9162-c5ec3ab2f200">
      <path
         d="m 294.66669,-19.66667 h 1 c 0.5523,0 1,0.44772 1,1 v 2 c 0,0.55229 -0.4477,1 -1,1 h -1 c -0.55228,0 -1,-0.44771 -1,-1 v -2 c 0,-0.55228 0.44772,-1 1,-1 z m 4.66662,-2 h 1 c 0.55228,0 1,0.44772 1,1 v 4 c 0,0.55229 -0.44772,1 -1,1 h -1 c -0.5523,0 -1,-0.44771 -1,-1 v -4 c 0,-0.55228 0.4477,-1 1,-1 z M 304,-24 h 1 c 0.55231,0 1,0.44772 1,1 v 6.33333 c 0,0.55229 -0.44769,1 -1,1 h -1 c -0.55231,0 -1,-0.44771 -1,-1 V -23 c 0,-0.55228 0.44769,-1 1,-1 z m 4.66669,-2.33333 h 1 c 0.5523,0 1,0.44771 1,1 v 8.66666 c 0,0.55229 -0.4477,1 -1,1 h -1 c -0.55228,0 -1,-0.44771 -1,-1 v -8.66666 c 0,-0.55229 0.44772,-1 1,-1 z"
         id="12a2c804-f38c-4cbf-a6eb-54a40378fec1"
         name="Shape"
         style="fill:#ffffff;stroke:none;stroke-width:1px"
         transform="translate(0,44)" />
    </clipPath>
    <clipPath
       id="93745ec3-e2bd-416a-a774-099e5765dae8">
      <path
         d="m 338.66669,-26.66667 h 16.66662 v 0 c 1.47278,0 2.66669,1.193911 2.66669,2.66667 v 6 0 c 0,1.472759 -1.19391,2.66667 -2.66669,2.66667 h -16.66662 v 0 C 337.19391,-15.33333 336,-16.527241 336,-18 v -6 0 c 0,-1.472759 1.19391,-2.66667 2.66669,-2.66667 z"
         id="5b1fb717-ccab-40fe-92fe-9b82ebeaacc8"
         name="Shape"
         style="fill:#ffffff;stroke:none;stroke-width:1px"
         transform="translate(0,44)" />
    </clipPath>
    <clipPath
       id="46320877-de0e-4c72-970e-5d8fb34616bd">
      <path
         d="m 359,-23 v 4 c 0.80469,-0.338779 1.328,-1.126869 1.328,-2 0,-0.873131 -0.52331,-1.661221 -1.328,-2"
         id="0920247d-3f91-44f4-94ae-d7fdb26fb9ce"
         name="Shape"
         style="fill:#ffffff;stroke:none;stroke-width:1px"
         transform="translate(0,44)" />
    </clipPath>
    <clipPath
       id="8db88eb6-392d-4f3c-b08b-4ceb10c2c96d">
      <path
         d="m 339.33331,-24.66667 h 15.33338 v 0 c 0.73633,0 1.33331,0.59696 1.33331,1.33334 v 4.66666 0 c 0,0.73638 -0.59698,1.33334 -1.33331,1.33334 h -15.33338 v 0 c -0.73633,0 -1.33331,-0.59696 -1.33331,-1.33334 v -4.66666 0 c 0,-0.73638 0.59698,-1.33334 1.33331,-1.33334 z"
         id="f164a9c5-c783-42a4-8886-5ef8db6319ad"
         name="Shape"
         style="fill:#ffffff;stroke:none;stroke-width:1px"
         transform="translate(0,44)" />
    </clipPath>
    <clipPath
       id="ba64f009-9541-4079-bd63-c1c95da3ddb8">
      <path
         d="m 323.33029,-24.392 c 2.21591,1.01e-4 4.34711,0.85153 5.953,2.37833 0.12101,0.11788 0.31431,0.11639 0.43342,-0.0033 l 1.156,-1.16667 c 0.0603,-0.06072 0.0939,-0.142969 0.0934,-0.22855 -4.8e-4,-0.08558 -0.0351,-0.167431 -0.0961,-0.227449 -4.21509,-4.039542 -10.8649,-4.039542 -15.07999,0 -0.0611,0.05997 -0.0957,0.1418 -0.0963,0.227378 -4.9e-4,0.08558 0.033,0.16786 0.0933,0.228621 l 1.15631,1.16667 c 0.11911,0.1199 0.3125,0.121389 0.43341,0.0033 1.60608,-1.526899 3.73749,-2.37834 5.95358,-2.37833 z m 0,3.795669 c 1.2175,-8e-5 2.3916,0.45245 3.29401,1.269661 0.1221,0.11598 0.31439,0.11347 0.43341,-0.0057 l 1.1546,-1.16667 c 0.0608,-0.06119 0.0946,-0.144208 0.0937,-0.23048 -8.9e-4,-0.08626 -0.0363,-0.168569 -0.0983,-0.228519 -2.7482,-2.55638 -7.00421,-2.55638 -9.75241,0 -0.062,0.05995 -0.0975,0.142299 -0.0983,0.22859 -7.9e-4,0.08629 0.0331,0.1693 0.094,0.230409 l 1.1543,1.16667 c 0.11901,0.119131 0.31131,0.121641 0.43341,0.0057 0.90179,-0.816669 2.07489,-1.269161 3.29159,-1.269661 z m 2.219,2.784331 c 0.0618,-0.06061 0.0958,-0.144011 0.094,-0.230509 -0.002,-0.08651 -0.0391,-0.168461 -0.1033,-0.22649 -1.27561,-1.07888 -3.1438,-1.07888 -4.41931,0 -0.0643,0.05799 -0.10169,0.13991 -0.10349,0.22641 -0.002,0.08651 0.0321,0.169939 0.0938,0.230589 l 1.99771,2.01567 c 0.0585,0.05924 0.13831,0.09257 0.22159,0.09257 0.0833,0 0.16312,-0.03333 0.22171,-0.09257 z"
         id="bed100b1-c46f-463b-9a67-e7ee47d4bafd"
         name="Shape"
         style="fill:#ffffff;stroke:none;stroke-width:1px"
         transform="translate(0,44)" />
    </clipPath>
    <clipPath
       id="c6bfd624-c78b-43ba-b188-cbe19909a165">
      <path
         d="m 294.66669,-19.66667 h 1 c 0.5523,0 1,0.44772 1,1 v 2 c 0,0.55229 -0.4477,1 -1,1 h -1 c -0.55228,0 -1,-0.44771 -1,-1 v -2 c 0,-0.55228 0.44772,-1 1,-1 z m 4.66662,-2 h 1 c 0.55228,0 1,0.44772 1,1 v 4 c 0,0.55229 -0.44772,1 -1,1 h -1 c -0.5523,0 -1,-0.44771 -1,-1 v -4 c 0,-0.55228 0.4477,-1 1,-1 z M 304,-24 h 1 c 0.55231,0 1,0.44772 1,1 v 6.33333 c 0,0.55229 -0.44769,1 -1,1 h -1 c -0.55231,0 -1,-0.44771 -1,-1 V -23 c 0,-0.55228 0.44769,-1 1,-1 z m 4.66669,-2.33333 h 1 c 0.5523,0 1,0.44771 1,1 v 8.66666 c 0,0.55229 -0.4477,1 -1,1 h -1 c -0.55228,0 -1,-0.44771 -1,-1 v -8.66666 c 0,-0.55229 0.44772,-1 1,-1 z"
         id="629f0345-f2e5-46ab-815c-72ef63ab3acc"
         name="Shape"
         style="fill:#ffffff;stroke:none;stroke-width:1px"
         transform="translate(0,44)" />
    </clipPath>
    <clipPath
       id="a50f2805-d4e9-424b-82ae-b1eb4326b1eb">
      <path
         d="m 338.66669,-26.66667 h 16.66662 v 0 c 1.47278,0 2.66669,1.193911 2.66669,2.66667 v 6 0 c 0,1.472759 -1.19391,2.66667 -2.66669,2.66667 h -16.66662 v 0 C 337.19391,-15.33333 336,-16.527241 336,-18 v -6 0 c 0,-1.472759 1.19391,-2.66667 2.66669,-2.66667 z"
         id="128d69e3-4bc4-494d-8847-929fdfea30d9"
         name="Shape"
         style="fill:#ffffff;stroke:none;stroke-width:1px"
         transform="translate(0,44)" />
    </clipPath>
    <clipPath
       id="a4eb0ff4-9389-4c3b-85f1-028efba13616">
      <path
         d="m 359,-23 v 4 c 0.80469,-0.338779 1.328,-1.126869 1.328,-2 0,-0.873131 -0.52331,-1.661221 -1.328,-2"
         id="91d95245-7841-4c58-878c-262c6f4d82fd"
         name="Shape"
         style="fill:#ffffff;stroke:none;stroke-width:1px"
         transform="translate(0,44)" />
    </clipPath>
    <clipPath
       id="e7ddc179-a6ee-4dd3-aad5-a18894daeab8">
      <path
         d="m 339.33331,-24.66667 h 15.33338 v 0 c 0.73633,0 1.33331,0.59696 1.33331,1.33334 v 4.66666 0 c 0,0.73638 -0.59698,1.33334 -1.33331,1.33334 h -15.33338 v 0 c -0.73633,0 -1.33331,-0.59696 -1.33331,-1.33334 v -4.66666 0 c 0,-0.73638 0.59698,-1.33334 1.33331,-1.33334 z"
         id="78593088-c6b0-476a-8d18-e3d500b87666"
         name="Shape"
         style="fill:#ffffff;stroke:none;stroke-width:1px"
         transform="translate(0,44)" />
    </clipPath>
    <clipPath
       id="148d4cdf-4dfe-4e44-a287-96c391f015c6">
      <path
         d="m 323.33029,-24.392 c 2.21591,1.01e-4 4.34711,0.85153 5.953,2.37833 0.12101,0.11788 0.31431,0.11639 0.43342,-0.0033 l 1.156,-1.16667 c 0.0603,-0.06072 0.0939,-0.142969 0.0934,-0.22855 -4.8e-4,-0.08558 -0.0351,-0.167431 -0.0961,-0.227449 -4.21509,-4.039542 -10.8649,-4.039542 -15.07999,0 -0.0611,0.05997 -0.0957,0.1418 -0.0963,0.227378 -4.9e-4,0.08558 0.033,0.16786 0.0933,0.228621 l 1.15631,1.16667 c 0.11911,0.1199 0.3125,0.121389 0.43341,0.0033 1.60608,-1.526899 3.73749,-2.37834 5.95358,-2.37833 z m 0,3.795669 c 1.2175,-8e-5 2.3916,0.45245 3.29401,1.269661 0.1221,0.11598 0.31439,0.11347 0.43341,-0.0057 l 1.1546,-1.16667 c 0.0608,-0.06119 0.0946,-0.144208 0.0937,-0.23048 -8.9e-4,-0.08626 -0.0363,-0.168569 -0.0983,-0.228519 -2.7482,-2.55638 -7.00421,-2.55638 -9.75241,0 -0.062,0.05995 -0.0975,0.142299 -0.0983,0.22859 -7.9e-4,0.08629 0.0331,0.1693 0.094,0.230409 l 1.1543,1.16667 c 0.11901,0.119131 0.31131,0.121641 0.43341,0.0057 0.90179,-0.816669 2.07489,-1.269161 3.29159,-1.269661 z m 2.219,2.784331 c 0.0618,-0.06061 0.0958,-0.144011 0.094,-0.230509 -0.002,-0.08651 -0.0391,-0.168461 -0.1033,-0.22649 -1.27561,-1.07888 -3.1438,-1.07888 -4.41931,0 -0.0643,0.05799 -0.10169,0.13991 -0.10349,0.22641 -0.002,0.08651 0.0321,0.169939 0.0938,0.230589 l 1.99771,2.01567 c 0.0585,0.05924 0.13831,0.09257 0.22159,0.09257 0.0833,0 0.16312,-0.03333 0.22171,-0.09257 z"
         id="72c7b51c-73e6-43fc-98e4-6907d4995730"
         name="Shape"
         style="fill:#ffffff;stroke:none;stroke-width:1px"
         transform="translate(0,44)" />
    </clipPath>
    <clipPath
       id="90a8adb1-262a-4298-9307-760142eae69f">
      <path
         d="m 294.66669,-19.66667 h 1 c 0.5523,0 1,0.44772 1,1 v 2 c 0,0.55229 -0.4477,1 -1,1 h -1 c -0.55228,0 -1,-0.44771 -1,-1 v -2 c 0,-0.55228 0.44772,-1 1,-1 z m 4.66662,-2 h 1 c 0.55228,0 1,0.44772 1,1 v 4 c 0,0.55229 -0.44772,1 -1,1 h -1 c -0.5523,0 -1,-0.44771 -1,-1 v -4 c 0,-0.55228 0.4477,-1 1,-1 z M 304,-24 h 1 c 0.55231,0 1,0.44772 1,1 v 6.33333 c 0,0.55229 -0.44769,1 -1,1 h -1 c -0.55231,0 -1,-0.44771 -1,-1 V -23 c 0,-0.55228 0.44769,-1 1,-1 z m 4.66669,-2.33333 h 1 c 0.5523,0 1,0.44771 1,1 v 8.66666 c 0,0.55229 -0.4477,1 -1,1 h -1 c -0.55228,0 -1,-0.44771 -1,-1 v -8.66666 c 0,-0.55229 0.44772,-1 1,-1 z"
         id="3e935dca-fc2d-4b3d-ae6e-d248e8dca870"
         name="Shape"
         style="fill:#ffffff;stroke:none;stroke-width:1px"
         transform="translate(0,44)" />
    </clipPath>
    <clipPath
       id="868758d3-8ebc-47d6-8976-b6b5805cd404">
      <path
         d="m 338.66669,-26.66667 h 16.66662 v 0 c 1.47278,0 2.66669,1.193911 2.66669,2.66667 v 6 0 c 0,1.472759 -1.19391,2.66667 -2.66669,2.66667 h -16.66662 v 0 C 337.19391,-15.33333 336,-16.527241 336,-18 v -6 0 c 0,-1.472759 1.19391,-2.66667 2.66669,-2.66667 z"
         id="3d803be3-7fad-44f2-a346-ffd3c7b5c856"
         name="Shape"
         style="fill:#ffffff;stroke:none;stroke-width:1px"
         transform="translate(0,44)" />
    </clipPath>
    <clipPath
       id="7b8b7e1f-5e8b-4f1a-92fd-5eec44a32df1">
      <path
         d="m 359,-23 v 4 c 0.80469,-0.338779 1.328,-1.126869 1.328,-2 0,-0.873131 -0.52331,-1.661221 -1.328,-2"
         id="6260aa25-3986-4f5c-b7c2-9cadbfe745fb"
         name="Shape"
         style="fill:#ffffff;stroke:none;stroke-width:1px"
         transform="translate(0,44)" />
    </clipPath>
    <clipPath
       id="a4f7b4a5-fdea-4c66-9d43-a1f9928d5e52">
      <path
         d="m 339.33331,-24.66667 h 15.33338 v 0 c 0.73633,0 1.33331,0.59696 1.33331,1.33334 v 4.66666 0 c 0,0.73638 -0.59698,1.33334 -1.33331,1.33334 h -15.33338 v 0 c -0.73633,0 -1.33331,-0.59696 -1.33331,-1.33334 v -4.66666 0 c 0,-0.73638 0.59698,-1.33334 1.33331,-1.33334 z"
         id="13c62810-fe70-4968-974b-b9a61e8a7e95"
         name="Shape"
         style="fill:#ffffff;stroke:none;stroke-width:1px"
         transform="translate(0,44)" />
    </clipPath>
    <clipPath
       id="067ebbbb-9f2f-49ea-ac14-d037bf2ea552">
      <path
         d="m 323.33029,-24.392 c 2.21591,1.01e-4 4.34711,0.85153 5.953,2.37833 0.12101,0.11788 0.31431,0.11639 0.43342,-0.0033 l 1.156,-1.16667 c 0.0603,-0.06072 0.0939,-0.142969 0.0934,-0.22855 -4.8e-4,-0.08558 -0.0351,-0.167431 -0.0961,-0.227449 -4.21509,-4.039542 -10.8649,-4.039542 -15.07999,0 -0.0611,0.05997 -0.0957,0.1418 -0.0963,0.227378 -4.9e-4,0.08558 0.033,0.16786 0.0933,0.228621 l 1.15631,1.16667 c 0.11911,0.1199 0.3125,0.121389 0.43341,0.0033 1.60608,-1.526899 3.73749,-2.37834 5.95358,-2.37833 z m 0,3.795669 c 1.2175,-8e-5 2.3916,0.45245 3.29401,1.269661 0.1221,0.11598 0.31439,0.11347 0.43341,-0.0057 l 1.1546,-1.16667 c 0.0608,-0.06119 0.0946,-0.144208 0.0937,-0.23048 -8.9e-4,-0.08626 -0.0363,-0.168569 -0.0983,-0.228519 -2.7482,-2.55638 -7.00421,-2.55638 -9.75241,0 -0.062,0.05995 -0.0975,0.142299 -0.0983,0.22859 -7.9e-4,0.08629 0.0331,0.1693 0.094,0.230409 l 1.1543,1.16667 c 0.11901,0.119131 0.31131,0.121641 0.43341,0.0057 0.90179,-0.816669 2.07489,-1.269161 3.29159,-1.269661 z m 2.219,2.784331 c 0.0618,-0.06061 0.0958,-0.144011 0.094,-0.230509 -0.002,-0.08651 -0.0391,-0.168461 -0.1033,-0.22649 -1.27561,-1.07888 -3.1438,-1.07888 -4.41931,0 -0.0643,0.05799 -0.10169,0.13991 -0.10349,0.22641 -0.002,0.08651 0.0321,0.169939 0.0938,0.230589 l 1.99771,2.01567 c 0.0585,0.05924 0.13831,0.09257 0.22159,0.09257 0.0833,0 0.16312,-0.03333 0.22171,-0.09257 z"
         id="30e917cf-0a51-4020-b53e-3bdcbc2811bf"
         name="Shape"
         style="fill:#ffffff;stroke:none;stroke-width:1px"
         transform="translate(0,44)" />
    </clipPath>
    <clipPath
       id="dec48d90-dd39-4f7f-a8a8-e0b8473b1409">
      <path
         d="m 294.66669,-19.66667 h 1 c 0.5523,0 1,0.44772 1,1 v 2 c 0,0.55229 -0.4477,1 -1,1 h -1 c -0.55228,0 -1,-0.44771 -1,-1 v -2 c 0,-0.55228 0.44772,-1 1,-1 z m 4.66662,-2 h 1 c 0.55228,0 1,0.44772 1,1 v 4 c 0,0.55229 -0.44772,1 -1,1 h -1 c -0.5523,0 -1,-0.44771 -1,-1 v -4 c 0,-0.55228 0.4477,-1 1,-1 z M 304,-24 h 1 c 0.55231,0 1,0.44772 1,1 v 6.33333 c 0,0.55229 -0.44769,1 -1,1 h -1 c -0.55231,0 -1,-0.44771 -1,-1 V -23 c 0,-0.55228 0.44769,-1 1,-1 z m 4.66669,-2.33333 h 1 c 0.5523,0 1,0.44771 1,1 v 8.66666 c 0,0.55229 -0.4477,1 -1,1 h -1 c -0.55228,0 -1,-0.44771 -1,-1 v -8.66666 c 0,-0.55229 0.44772,-1 1,-1 z"
         id="70d05289-2f94-432b-a0b5-f9610c91ba3b"
         name="Shape"
         style="fill:#ffffff;stroke:none;stroke-width:1px"
         transform="translate(0,44)" />
    </clipPath>
  </defs>
  <title
     id="title104">Bed Room – 3</title>
  <defs
     id="defs175">
    <clipPath
       id="clip-path-375-539-31-31-0-0">
      <path
         d="m 31,0 h 313 a 15.5,0 -180 0 0 31,0 V 508 H 0 V 0 a 15.5,0 90 0 0 0,-31 z"
         id="path108" />
    </clipPath>
    <clipPath
       id="clip-path-124-45-12-12-12-12">
      <path
         d="m 12,0 h 100 a 12,12 0 0 1 12,12 V 33 A 12,12 0 0 1 112,45 H 12 A 12,12 0 0 1 0,33 V 12 A 12,12 0 0 1 12,0 Z"
         id="path111" />
    </clipPath>
    <filter
       id="filter-3-drop-shadow-0-3-5.5-RGB"
       x="0"
       y="0"
       width="1"
       height="1">
      <feDropShadow
         dx="0"
         dy="3"
         flood-color="rgba(10,77,162,0.058823529411764705)"
         in="SourceGraphic"
         stdDeviation="5.5" />
    </filter>
    <clipPath
       id="clipPath117">
      <path
         d="m 12,0 h 100 a 12,12 0 0 1 12,12 V 33 A 12,12 0 0 1 112,45 H 12 A 12,12 0 0 1 0,33 V 12 A 12,12 0 0 1 12,0 Z"
         id="path115" />
    </clipPath>
    <filter
       id="filter-5-drop-shadow-0-3-5.5-RGB"
       x="0"
       y="0"
       width="1"
       height="1">
      <feDropShadow
         dx="0"
         dy="3"
         flood-color="rgba(0,22,49,0.2901960784313726)"
         in="SourceGraphic"
         stdDeviation="5.5" />
    </filter>
    <clipPath
       id="clipPath122">
      <path
         d="m 12,0 h 100 a 12,12 0 0 1 12,12 V 33 A 12,12 0 0 1 112,45 H 12 A 12,12 0 0 1 0,33 V 12 A 12,12 0 0 1 12,0 Z"
         id="path120" />
    </clipPath>
    <filter
       id="filter-7-drop-shadow-0-3-5.5-RGB"
       x="0"
       y="0"
       width="1"
       height="1">
      <feDropShadow
         dx="0"
         dy="3"
         flood-color="rgba(10,77,162,0.058823529411764705)"
         in="SourceGraphic"
         stdDeviation="5.5" />
    </filter>
    <filter
       id="filter-8-drop-shadow-0--7-3-RGB"
       x="0"
       y="0"
       width="1"
       height="1">
      <feDropShadow
         dx="0"
         dy="-7"
         flood-color="rgba(86,139,208,0.050980392156862744)"
         in="SourceGraphic"
         stdDeviation="3" />
    </filter>
    <clipPath
       id="clip-path-9-3-0-0-1-1">
      <path
         d="M 0,0 H 9 V 2 A 0.5,0 -90 0 0 9,3 H 2 A 1,1 0 0 1 1,2 V 0 Z"
         id="path126" />
    </clipPath>
    <filter
       id="filter-10-drop-shadow-0-3-8-RGB"
       x="0"
       y="0"
       width="1"
       height="1">
      <feDropShadow
         dx="0"
         dy="3"
         flood-color="rgb(0,45,103)"
         in="SourceGraphic"
         stdDeviation="8" />
    </filter>
    <filter
       id="filter-11-drop-shadow-0-3-8-RGB"
       x="0"
       y="0"
       width="1"
       height="1">
      <feDropShadow
         dx="0"
         dy="3"
         flood-color="rgb(255,199,47)"
         in="SourceGraphic"
         stdDeviation="8" />
    </filter>
    <clipPath
       id="clip-path-4-58-7-7-7-7">
      <path
         d="m 2,0 v 0 a 2,2 0 0 1 2,2 v 54 a 2,2 0 0 1 -2,2 v 0 A 2,2 0 0 1 0,56 V 2 A 2,2 0 0 1 2,0 Z"
         id="path131" />
    </clipPath>
    <filter
       id="filter-13-drop-shadow-0-0-2-RGB"
       x="0"
       y="0"
       width="1"
       height="1">
      <feDropShadow
         dx="0"
         dy="0"
         flood-color="rgba(86,139,208,0.12156862745098039)"
         in="SourceGraphic"
         stdDeviation="2" />
    </filter>
    <clipPath
       id="clip-path-150-55-13-13-13-13">
      <path
         d="m 13,0 h 124 a 13,13 0 0 1 13,13 V 42 A 13,13 0 0 1 137,55 H 13 A 13,13 0 0 1 0,42 V 13 A 13,13 0 0 1 13,0 Z"
         id="path135" />
    </clipPath>
    <linearGradient
       id="gradient-0.2717309892177582-1.3259609937667847-0.9509809017181396--0.20896773040294647-objectBoundingBox-c98664bd-e7ef-4557-9e5c-312f2daa282f"
       gradientUnits="userSpaceOnUse"
       x1="24.681192"
       x2="86.377129"
       y1="120.43639"
       y2="-18.980436"
       gradientTransform="scale(1.6514456,0.60553007)">
      <stop
         offset="0"
         stop-color="rgb(255,155,155)"
         id="stop138" />
      <stop
         offset="1"
         stop-color="rgb(255,188,145)"
         id="stop140" />
    </linearGradient>
    <filter
       id="filter-16-drop-shadow-0-3-5.5-RGB"
       x="0"
       y="0"
       width="1"
       height="1">
      <feDropShadow
         dx="0"
         dy="3"
         flood-color="rgba(10,77,162,0.058823529411764705)"
         in="SourceGraphic"
         stdDeviation="5.5" />
    </filter>
    <clipPath
       id="clipPath146">
      <path
         d="m 13,0 h 124 a 13,13 0 0 1 13,13 V 42 A 13,13 0 0 1 137,55 H 13 A 13,13 0 0 1 0,42 V 13 A 13,13 0 0 1 13,0 Z"
         id="path144" />
    </clipPath>
    <linearGradient
       id="gradient-0.2717309892177582-1.3259609937667847-0.9509809017181396--0.20896773040294647-objectBoundingBox-fdb99950-48d1-4146-bc22-a67635895fae"
       gradientUnits="userSpaceOnUse"
       x1="24.681192"
       x2="86.377129"
       y1="120.43639"
       y2="-18.980436"
       gradientTransform="scale(1.6514456,0.60553007)">
      <stop
         offset="0"
         stop-color="rgb(166,147,235)"
         id="stop148" />
      <stop
         offset="1"
         stop-color="rgb(218,147,235)"
         id="stop150" />
    </linearGradient>
    <filter
       id="filter-19-drop-shadow-0-3-5.5-RGB"
       x="0"
       y="0"
       width="1"
       height="1">
      <feDropShadow
         dx="0"
         dy="3"
         flood-color="rgba(10,77,162,0.058823529411764705)"
         in="SourceGraphic"
         stdDeviation="5.5" />
    </filter>
    <clipPath
       id="clipPath156">
      <path
         d="m 13,0 h 124 a 13,13 0 0 1 13,13 V 42 A 13,13 0 0 1 137,55 H 13 A 13,13 0 0 1 0,42 V 13 A 13,13 0 0 1 13,0 Z"
         id="path154" />
    </clipPath>
    <linearGradient
       id="gradient-0.2717309892177582-1.3259609937667847-0.9509809017181396--0.20896773040294647-objectBoundingBox-2b8e79df-39ca-449a-9287-2b469a81417a"
       gradientUnits="userSpaceOnUse"
       x1="24.681192"
       x2="86.377129"
       y1="120.43639"
       y2="-18.980436"
       gradientTransform="scale(1.6514456,0.60553007)">
      <stop
         offset="0"
         stop-color="rgb(147,202,235)"
         id="stop158" />
      <stop
         offset="1"
         stop-color="rgb(147,221,235)"
         id="stop160" />
    </linearGradient>
    <filter
       id="filter-22-drop-shadow-0-3-5.5-RGB"
       x="0"
       y="0"
       width="1"
       height="1">
      <feDropShadow
         dx="0"
         dy="3"
         flood-color="rgba(10,77,162,0.058823529411764705)"
         in="SourceGraphic"
         stdDeviation="5.5" />
    </filter>
    <clipPath
       id="clipPath166">
      <path
         d="m 13,0 h 124 a 13,13 0 0 1 13,13 V 42 A 13,13 0 0 1 137,55 H 13 A 13,13 0 0 1 0,42 V 13 A 13,13 0 0 1 13,0 Z"
         id="path164" />
    </clipPath>
    <linearGradient
       id="gradient-0.2717309892177582-1.3259609937667847-0.9509809017181396--0.20896773040294647-objectBoundingBox-b7e26b30-4477-4a3d-870c-aa8f797844f3"
       gradientUnits="userSpaceOnUse"
       x1="24.681192"
       x2="86.377129"
       y1="120.43639"
       y2="-18.980436"
       gradientTransform="scale(1.6514456,0.60553007)">
      <stop
         offset="0"
         stop-color="rgb(137,221,148)"
         id="stop168" />
      <stop
         offset="1"
         stop-color="rgb(191,236,146)"
         id="stop170" />
    </linearGradient>
    <filter
       id="filter-25-drop-shadow-0-3-5.5-RGB"
       x="0"
       y="0"
       width="1"
       height="1">
      <feDropShadow
         dx="0"
         dy="3"
         flood-color="rgba(10,77,162,0.058823529411764705)"
         in="SourceGraphic"
         stdDeviation="5.5" />
    </filter>
    <filter
       id="filter-26-drop-shadow-0-3-3-RGB"
       x="0"
       y="0"
       width="1"
       height="1">
      <feDropShadow
         dx="0"
         dy="3"
         flood-color="rgba(0,45,103,0.09803921568627451)"
         in="SourceGraphic"
         stdDeviation="3" />
    </filter>
  </defs>
  <rect
     style="fill:#000000;stroke:#000000;stroke-width:9.32032;stroke-miterlimit:4;stroke-dasharray:none;stroke-opacity:1"
     id="rect408"
     width="104"
     height="118"
     x="1946.4072"
     y="-17.91172" />
  <g
     id="bdeb5762-4d23-44ef-b3e0-813386b3a6ad"
     name="Group 37"
     transform="translate(2144.416,-148.07464)">
    <g
       id="8bd6f5ed-9d69-4802-a53a-e37a1e768e4d"
       name="Group 2"
       transform="translate(0,-65)">
      <rect
         x="0"
         y="0"
         width="124"
         height="45"
         id="4e1c22d8-5afc-434f-8a68-d87fabeca177"
         name="Rectangle 1"
         style="fill:#ffffff;stroke:none;stroke-width:1px;filter:url(#filter-3-drop-shadow-0-3-5.5-RGB)"
         transform="translate(24,262)"
         clip-path="url(#clip-path-124-45-12-12-12-12)" />
      <g
         id="d3285ba7-6a15-4430-8ad7-8cc5424ae9d1"
         name="surface1"
         transform="translate(-130.24726,384.61985)">
        <path
           d="m 102.76546,0 c -3.510768,0 -6.367023,2.8562624 -6.367023,6.367023 0,2.0205312 0.952599,3.905953 2.563759,5.106491 v 0.531701 c -0.392387,0.34486 -0.640785,0.849912 -0.640785,1.41216 0,0.49508 0.192612,0.945904 0.506462,1.282037 -0.31385,0.336131 -0.506462,0.786802 -0.506462,1.281882 0,0.843367 0.558037,1.558797 1.324425,1.796286 0.246529,1.499737 1.551164,2.647759 3.119624,2.647759 1.56846,0 2.87324,-1.148022 3.11977,-2.647759 0.76624,-0.237644 1.32443,-0.952919 1.32443,-1.796441 0,-0.494925 -0.19262,-0.945752 -0.50647,-1.281882 0.31385,-0.336132 0.50647,-0.786802 0.50647,-1.281882 0,-0.562248 -0.2484,-1.0673 -0.64094,-1.412315 v -0.531546 c 1.61115,-1.200538 2.56376,-3.0859598 2.56376,-5.106491 C 109.13248,2.8562624 106.27621,0 102.76546,0 Z m 2.56392,12.733889 c 0.3768,0 0.68348,0.30668 0.68348,0.683486 0,0.376958 -0.30668,0.683639 -0.68348,0.683639 h -5.12769 c -0.37696,0 -0.683639,-0.306681 -0.683639,-0.683639 0,-0.376806 0.306679,-0.683486 0.683639,-0.683486 z m -2.56392,6.494653 c -0.87516,0 -1.61849,-0.575025 -1.87233,-1.366968 h 3.74466 c -0.2537,0.792099 -0.99717,1.366968 -1.87233,1.366968 z m 2.56392,-2.563764 h -5.12769 c -0.37696,0 -0.683639,-0.306681 -0.683639,-0.683484 0,-0.37696 0.306679,-0.683483 0.683639,-0.683483 h 5.12769 c 0.3768,0 0.68348,0.306523 0.68348,0.683483 0,0.376803 -0.30668,0.683484 -0.68348,0.683484 z m 0.30808,-5.998167 c -0.16596,0.111108 -0.26554,0.297641 -0.26554,0.497263 v 0.37431 c -0.0142,-3.11e-4 -0.0284,-0.0011 -0.0425,-0.0011 h -0.68364 V 9.1787176 L 105.505,8.3194542 c 0.23375,-0.2337494 0.23375,-0.6125789 0,-0.8463292 -0.23359,-0.2337489 -0.61258,-0.2337489 -0.84617,0 l -1.03458,1.0345759 c -0.1122,0.1121998 -0.17531,0.2642927 -0.17531,0.4230862 v 2.6063059 h -1.36697 V 8.9307871 c 0,-0.1586371 -0.0631,-0.3108864 -0.17531,-0.4230862 L 100.87209,7.473125 c -0.2336,-0.233593 -0.61243,-0.233593 -0.84618,0 -0.233742,0.2337503 -0.233742,0.6125798 0,0.8463292 l 0.85926,0.8592634 V 11.53725 h -0.68348 c -0.0143,0 -0.0285,6.23e-4 -0.0427,9.34e-4 v -0.37431 c 0,-0.199622 -0.0996,-0.386155 -0.265544,-0.497263 C 98.454498,9.7032518 97.59523,8.0959892 97.59523,6.367023 c 0,-2.8509636 2.319412,-5.1702259 5.17023,-5.1702259 2.8508,0 5.17022,2.3192623 5.17022,5.1702259 0,1.7289662 -0.85926,3.3362288 -2.29822,4.299588 z m 0,0"
           id="751815bc-fe73-4ea5-9500-c05d58ba2176"
           name="Path 101"
           style="fill:#002d67;stroke:none;stroke-width:1px"
           transform="translate(-92.552788)" />
        <path
           d="m 2.4786792,145.19997 c 0,-0.33054 -0.2678769,-0.59841 -0.5983987,-0.59841 H 0.59839857 C 0.26787689,144.60156 0,144.86943 0,145.19997 c 0,0.33036 0.26787689,0.59837 0.59839857,0.59837 H 1.8802805 c 0.3305218,0 0.5983987,-0.26801 0.5983987,-0.59837 z m 0,0"
           id="8687ff11-2db2-4126-ba73-7ce828910141"
           name="Path 102"
           style="fill:#002d67;stroke:none;stroke-width:1px"
           transform="translate(0,-138.83293)" />
        <path
           d="m 451.74747,144.60156 h -1.28189 c -0.33036,0 -0.59839,0.26787 -0.59839,0.59841 0,0.33036 0.26803,0.59837 0.59839,0.59837 h 1.28189 c 0.3305,0 0.59839,-0.26801 0.59839,-0.59837 0,-0.33054 -0.26789,-0.59841 -0.59839,-0.59841 z m 0,0"
           id="1893d362-ec84-4768-bb6c-684df0b65ac7"
           name="Path 103"
           style="fill:#002d67;stroke:none;stroke-width:1px"
           transform="translate(-431.92053,-138.83293)" />
        <path
           d="m 33.694778,249.11191 -1.110153,0.64094 c -0.28611,0.16535 -0.384125,0.53122 -0.218948,0.81749 0.110802,0.19199 0.311981,0.2992 0.518768,0.2992 0.101456,0 0.204457,-0.0257 0.298584,-0.0803 l 1.11015,-0.64078 c 0.286266,-0.16534 0.384281,-0.53125 0.219104,-0.8175 -0.165184,-0.28627 -0.531234,-0.38428 -0.817505,-0.2191 z m 0,0"
           id="d20f2e95-3f8c-4dac-a07e-087b25032fa1"
           name="Path 104"
           style="fill:#002d67;stroke:none;stroke-width:1px"
           transform="translate(-30.997469,-239.097)" />
        <path
           d="m 422.48041,25.937241 c 0.10144,0 0.20428,-0.02587 0.29855,-0.08025 l 1.11032,-0.641098 c 0.2861,-0.165184 0.38428,-0.531078 0.21897,-0.817345 -0.16538,-0.286262 -0.53125,-0.384281 -0.81736,-0.218944 l -1.11032,0.640941 c -0.2861,0.165184 -0.38427,0.531235 -0.21896,0.817345 0.11081,0.191986 0.31201,0.299355 0.5188,0.299355 z m 0,0"
           id="ea6b830b-1368-47b2-b524-015ac62c7355"
           name="Path 105"
           style="fill:#002d67;stroke:none;stroke-width:1px"
           transform="translate(-405.05109,-23.137856)" />
        <path
           d="m 423.88806,249.75661 -1.11017,-0.6408 c -0.28625,-0.16517 -0.65228,-0.0671 -0.8175,0.21912 -0.16516,0.28609 -0.067,0.65215 0.21911,0.81734 l 1.11036,0.64078 c 0.0941,0.0544 0.19696,0.0802 0.29852,0.0802 0.20679,0 0.40802,-0.10736 0.5188,-0.29935 0.16534,-0.28611 0.0671,-0.65216 -0.21912,-0.81733 z m 0,0"
           id="4968f907-d44f-4f0c-a380-39258c096365"
           name="Path 106"
           style="fill:#002d67;stroke:none;stroke-width:1px"
           transform="translate(-405.05008,-239.10075)" />
        <path
           d="m 34.295418,24.821339 -1.110153,-0.640784 c -0.286267,-0.165338 -0.652161,-0.06716 -0.817345,0.219099 -0.165337,0.286267 -0.06717,0.652163 0.218944,0.817347 l 1.110157,0.64094 c 0.09428,0.05438 0.197129,0.08025 0.298569,0.08025 0.206951,0 0.407978,-0.107366 0.518929,-0.299354 0.16518,-0.286265 0.06701,-0.652161 -0.219101,-0.817501 z m 0,0"
           id="13a0ef54-384b-4e31-804d-5e32d890e874"
           name="Path 107"
           style="fill:#002d67;stroke:none;stroke-width:1px"
           transform="translate(-30.99955,-23.138811)" />
      </g>
    </g>
    <g
       id="b8e2852f-1c27-4640-8cc8-d8bbb0e3afc1"
       name="Group 16"
       transform="translate(233.45227,-67.12132)">
      <rect
         x="0"
         y="0"
         width="124"
         height="45"
         id="7adfbbcc-b946-4961-b5a9-c0ba11f8b547"
         name="Rectangle 1"
         style="fill:#ffffff;stroke:none;stroke-width:1px;filter:url(#filter-7-drop-shadow-0-3-5.5-RGB)"
         transform="translate(24,262)"
         clip-path="url(#clip-path-124-45-12-12-12-12)" />
      <g
         id="041ae1bb-da94-46a7-8416-9d0d73817944"
         name="bed (1)"
         transform="translate(-304.95439,331.00105)">
        <g
           id="a30e4d6b-7883-41b4-bc5c-cfee7c722674"
           name="Group 18"
           transform="translate(7.2246904,83.609924)">
          <g
             id="fa3154a0-4c99-4c46-9fe6-1e2a7d6061cf"
             name="Group 17">
            <path
               d="m 163.1832,154.60001 h -12.2815 c -0.60003,0 -1.60171,0.22743 -1.60171,1.77108 v 2.36145 h 15.48494 v -2.36145 c 0,-1.53881 -1.00168,-1.77108 -1.60173,-1.77108 z"
               id="f1b310a5-b1d6-4d94-84f0-53b985632fa7"
               name="Path 108"
               style="fill:#002d67;stroke:none;stroke-width:1px"
               transform="translate(-149.29999,-154.60001)" />
          </g>
        </g>
        <g
           id="b16b950f-a9e9-4748-942c-a98725df143e"
           name="Group 20"
           transform="translate(0,80)">
          <g
             id="b8cd679a-a548-47ca-aae5-2a390d87f2de"
             name="Group 19">
            <path
               d="M 3.8857515,88.255402 H 1.5484937 V 80 H 0 V 96.002716 H 1.5484937 V 91.870163 H 22.196692 v 4.127716 h 1.548492 v -7.742477 z"
               id="8a5cb81a-ce45-4a17-91df-4af7832409ad"
               name="Path 109"
               style="fill:#002d67;stroke:none;stroke-width:1px"
               transform="translate(0,-80)" />
          </g>
        </g>
        <g
           id="f4e615d1-43b3-4fb5-a8a7-bf658a1ed111"
           name="Group 22"
           transform="translate(1.9646513,83.513145)">
          <g
             id="9ed36412-62ff-4263-8937-bbf8cc586175"
             name="Group 21">
            <circle
               cx="2.1630523"
               cy="2.1630523"
               r="2.1630523"
               id="aaab532f-f7e7-473e-a9d6-26f9b2c259aa"
               name="Ellipse 11"
               style="fill:#002d67;stroke:none;stroke-width:1px" />
          </g>
        </g>
      </g>
    </g>
    <path
       d="m -176.18426,285.64759 h -11.85486 v -0.84677 h 3.3871 c 0.46766,0 0.84678,-0.37912 0.84678,-0.84678 v -5.08066 c 0,-0.46766 -0.37912,-0.84677 -0.84678,-0.84677 h -8.46776 c -0.46766,0 -0.84678,0.37911 -0.84678,0.84677 v 5.08066 c 0,0.46766 0.37912,0.84678 0.84678,0.84678 h 3.3871 v 0.84677 h -5.08065 c -0.46767,0 -0.84678,0.37912 -0.84678,0.84678 v 11.85487 h 1.69355 v -8.46776 h 10.16132 v 5.92743 c 0,0.46766 0.37911,0.84678 0.84677,0.84678 h 5.92744 v 1.69355 h 1.69355 v -11.85487 c 0,-0.46766 -0.37911,-0.84678 -0.84678,-0.84678 z m -16.08874,-5.92743 h 6.77421 v 3.38711 h -6.77421 z m -1.69356,7.62099 h 16.93553 v 0.84677 h -16.93553 z m 16.93553,2.54033 v 1.69355 h -5.08066 v -1.69355 z m -5.08066,5.08065 v -1.69355 h 5.08066 v 1.69355 z"
       id="4ff8a9fa-4924-4ee1-8b18-d21eb2882b97"
       name="furniture-and-household"
       style="fill:#f2f2f2;stroke:none;stroke-width:1px" />
  </g>
  <g
     id="70a1e983-5e0f-4a8d-ad02-b9e6d0553128"
     name="intensity"
     transform="translate(2173.4074,-124.91169)">
    <g
       id="d59dd53a-502b-493a-8e10-7eb4884da792"
       name="OFF"
       style="opacity:0.995557"
       transform="translate(-130.1471,324.37882)">
      <g
         id="d9483cc9-a22c-4ab5-a0e2-b3c7a74d7360"
         name="Group 24"
         transform="translate(98.947998,4.85076)">
        <g
           id="ed50f1e0-440e-4884-a10f-833c441d0cb1"
           name="Group 23">
          <path
             d="m 116.23535,96.779709 c 0,-4.766113 -3.87755,-8.643707 -8.64371,-8.643707 -4.76615,0 -8.643642,3.877594 -8.643642,8.643707 0,2.922813 1.492282,5.654631 3.925362,7.243281 v 2.72313 c 0,2.60161 2.11656,4.71812 4.71817,4.71812 2.60162,0 4.71818,-2.11657 4.71818,-4.71812 v -1.52949 c 0,-3.8e-4 -6e-5,-1.19354 -6e-5,-1.19354 2.43336,-1.58869 3.9257,-4.320469 3.9257,-7.243381 z m -5.59183,9.966471 c 0,1.68281 -1.36905,3.05181 -3.05188,3.05181 -1.68282,0 -3.05186,-1.36905 -3.05186,-3.05181 v -0.69644 h 6.10374 z m 0.41811,-3.91167 c -0.25867,0.14861 -0.41811,0.42413 -0.41811,0.72247 v 0.8265 h -2.21877 v -4.30825 c 1.0818,-0.351971 1.86619,-1.369435 1.86619,-2.567158 0,-0.460106 -0.37304,-0.833161 -0.83315,-0.833161 -0.4601,0 -0.83315,0.373055 -0.83315,0.833161 0,0.569572 -0.46342,1.03305 -1.033,1.03305 -0.56957,0 -1.03304,-0.463417 -1.03304,-1.03305 0,-0.460106 -0.37305,-0.833161 -0.83316,-0.833161 -0.4601,0 -0.83314,0.373055 -0.83314,0.833161 0,1.197662 0.78432,2.215187 1.8662,2.567158 v 4.30825 h -2.21861 v -0.82654 c 0,-0.2983 -0.15944,-0.57382 -0.41812,-0.72243 -2.16346,-1.2429 -3.50736,-3.562934 -3.50736,-6.054801 0,-3.847328 3.13002,-6.977394 6.97741,-6.977394 3.84737,0 6.97739,3.130012 6.97739,6.977394 -1.1e-4,2.491913 -1.34413,4.812021 -3.50758,6.054801 z"
             id="af74b354-e070-476a-9f4b-5ae126792b8f"
             name="Path 110"
             style="fill:#cecece;stroke:none;stroke-width:1px"
             transform="translate(-98.947998,-88.136002)" />
        </g>
      </g>
      <g
         id="5fa8f382-33b9-443f-b6a7-0ed9e573c52c"
         name="Group 26"
         transform="translate(106.75849)">
        <g
           id="3bc6166f-e2fc-4fe9-a183-2bc41aff3d0e"
           name="Group 25">
          <path
             d="m 241.69417,0 c -0.46012,0 -0.83316,0.37304223 -0.83316,0.83315337 V 2.2957673 c 0,0.4601111 0.37304,0.8331535 0.83316,0.8331535 0.4601,0 0.83316,-0.3730424 0.83316,-0.8331535 V 0.83315337 C 242.52733,0.37304223 242.15433,0 241.69417,0 Z"
             id="58c70e98-7f15-4f66-8f82-f5eca707cd5b"
             name="Path 111"
             style="fill:#cecece;stroke:none;stroke-width:1px"
             transform="translate(-240.86101)" />
        </g>
      </g>
      <g
         id="4d21f82f-b381-4774-b83d-2b97431895ea"
         name="Group 28"
         transform="translate(103.11824,0.60247004)">
        <g
           id="929c92b4-ec35-4f97-af20-8192503e718b"
           name="Group 27">
          <path
             d="m 176.84903,12.853602 -0.51714,-1.368225 c -0.16267,-0.43039 -0.64364,-0.647402 -1.07388,-0.484768 -0.4304,0.16269 -0.64746,0.643496 -0.48477,1.073886 l 0.51709,1.368225 c 0.12602,0.333415 0.44293,0.538815 0.77948,0.538815 0.0979,0 0.19748,-0.01739 0.29445,-0.05405 0.43039,-0.162689 0.64746,-0.643495 0.48477,-1.073886 z"
             id="35cf48a8-4767-45b9-aeae-533422a38c96"
             name="Path 112"
             style="fill:#cecece;stroke:none;stroke-width:1px"
             transform="translate(-174.71921,-10.946596)" />
        </g>
      </g>
      <g
         id="1242835d-737a-4416-a21d-7298a9943c9e"
         name="Group 30"
         transform="translate(109.88123,0.60243261)">
        <g
           id="12e961fd-ae5d-4a5d-8934-14b24e35ee0d"
           name="Group 29">
          <path
             d="m 299.24481,10.999966 c -0.43048,-0.162745 -0.91122,0.05443 -1.07391,0.484824 l -0.51712,1.368224 c -0.16263,0.430336 0.0544,0.911141 0.4848,1.073831 0.097,0.03665 0.19656,0.05405 0.2944,0.05405 0.33664,0 0.65351,-0.205398 0.77948,-0.538814 l 0.51715,-1.368224 c 0.16269,-0.430447 -0.0544,-0.911197 -0.4848,-1.073887 z"
             id="855ad1fa-279c-4158-a9e3-2ea1f977759f"
             name="Path 113"
             style="fill:#cecece;stroke:none;stroke-width:1px"
             transform="translate(-297.59976,-10.945914)" />
        </g>
      </g>
    </g>
    <g
       id="8d7b7eaa-e243-4988-bb4b-656d1256733b"
       name="solution"
       transform="translate(-100.65572,324.7575)">
      <g
         id="13b05174-b0e0-46a1-87f7-c5c072e82aa8"
         name="Group 24"
         transform="translate(98.947998,4.85076)">
        <g
           id="10ea34bb-0d3c-46dc-823b-86dc91a47538"
           name="Group 23">
          <path
             d="m 116.23535,96.779709 c 0,-4.766113 -3.87755,-8.643707 -8.64371,-8.643707 -4.76615,0 -8.643642,3.877594 -8.643642,8.643707 0,2.922813 1.492282,5.654631 3.925362,7.243281 v 2.72313 c 0,2.60161 2.11656,4.71812 4.71817,4.71812 2.60162,0 4.71818,-2.11657 4.71818,-4.71812 v -1.52949 c 0,-3.8e-4 -6e-5,-1.19354 -6e-5,-1.19354 2.43336,-1.58869 3.9257,-4.320469 3.9257,-7.243381 z m -5.59183,9.966471 c 0,1.68281 -1.36905,3.05181 -3.05188,3.05181 -1.68282,0 -3.05186,-1.36905 -3.05186,-3.05181 v -0.69644 h 6.10374 z m 0.41811,-3.91167 c -0.25867,0.14861 -0.41811,0.42413 -0.41811,0.72247 v 0.8265 h -2.21877 v -4.30825 c 1.0818,-0.351971 1.86619,-1.369435 1.86619,-2.567158 0,-0.460106 -0.37304,-0.833161 -0.83315,-0.833161 -0.4601,0 -0.83315,0.373055 -0.83315,0.833161 0,0.569572 -0.46342,1.03305 -1.033,1.03305 -0.56957,0 -1.03304,-0.463417 -1.03304,-1.03305 0,-0.460106 -0.37305,-0.833161 -0.83316,-0.833161 -0.4601,0 -0.83314,0.373055 -0.83314,0.833161 0,1.197662 0.78432,2.215187 1.8662,2.567158 v 4.30825 h -2.21861 v -0.82654 c 0,-0.2983 -0.15944,-0.57382 -0.41812,-0.72243 -2.16346,-1.2429 -3.50736,-3.562934 -3.50736,-6.054801 0,-3.847328 3.13002,-6.977394 6.97741,-6.977394 3.84737,0 6.97739,3.130012 6.97739,6.977394 -1.1e-4,2.491913 -1.34413,4.812021 -3.50758,6.054801 z"
             id="dd83cc8d-3983-4ec4-a7d8-4c47b47ea11d"
             name="Path 110"
             style="fill:#ffd239;stroke:none;stroke-width:1px"
             transform="translate(-98.947998,-88.136002)" />
        </g>
      </g>
      <g
         id="3dcce393-e0fc-454b-a443-717143f402f0"
         name="Group 26"
         transform="translate(106.75849)">
        <g
           id="b2d1623d-a631-4662-bc20-9ea797f103d5"
           name="Group 25">
          <path
             d="m 241.69417,0 c -0.46012,0 -0.83316,0.37304223 -0.83316,0.83315337 V 2.2957673 c 0,0.4601111 0.37304,0.8331535 0.83316,0.8331535 0.4601,0 0.83316,-0.3730424 0.83316,-0.8331535 V 0.83315337 C 242.52733,0.37304223 242.15433,0 241.69417,0 Z"
             id="af3ecf8d-1118-4047-821b-a131b175ef66"
             name="Path 111"
             style="fill:#ffd239;stroke:none;stroke-width:1px"
             transform="translate(-240.86101)" />
        </g>
      </g>
      <g
         id="be869175-d183-47f2-a2b4-5bd7f266524f"
         name="Group 28"
         transform="translate(103.11824,0.60247004)">
        <g
           id="2bd077ca-1fcb-4e39-b9bd-ab507fe0af97"
           name="Group 27">
          <path
             d="m 176.84903,12.853602 -0.51714,-1.368225 c -0.16267,-0.43039 -0.64364,-0.647402 -1.07388,-0.484768 -0.4304,0.16269 -0.64746,0.643496 -0.48477,1.073886 l 0.51709,1.368225 c 0.12602,0.333415 0.44293,0.538815 0.77948,0.538815 0.0979,0 0.19748,-0.01739 0.29445,-0.05405 0.43039,-0.162689 0.64746,-0.643495 0.48477,-1.073886 z"
             id="ee8e1706-d871-4205-9f02-3eb72a1d474b"
             name="Path 112"
             style="fill:#ffd239;stroke:none;stroke-width:1px"
             transform="translate(-174.71921,-10.946596)" />
        </g>
      </g>
      <g
         id="e3093227-87c3-4b52-9232-0f960203bc6b"
         name="Group 30"
         transform="translate(109.88123,0.60243261)">
        <g
           id="61766750-d4d1-4ac9-a720-36a92f6c0d00"
           name="Group 29">
          <path
             d="m 299.24481,10.999966 c -0.43048,-0.162745 -0.91122,0.05443 -1.07391,0.484824 l -0.51712,1.368224 c -0.16263,0.430336 0.0544,0.911141 0.4848,1.073831 0.097,0.03665 0.19656,0.05405 0.2944,0.05405 0.33664,0 0.65351,-0.205398 0.77948,-0.538814 l 0.51715,-1.368224 c 0.16269,-0.430447 -0.0544,-0.911197 -0.4848,-1.073887 z"
             id="584fe9fb-d2a0-4f90-8c7a-f97efa2025fb"
             name="Path 113"
             style="fill:#ffd239;stroke:none;stroke-width:1px"
             transform="translate(-297.59976,-10.945914)" />
        </g>
      </g>
    </g>
    <g
       id="1e4bff47-4708-4c7b-8651-1cfc02564d5b"
       name="solution"
       transform="translate(-230.87293,308.62146)">
      <g
         id="f05a9823-6fb6-4950-b400-34a4f6012478"
         name="Group 24"
         transform="translate(98.947998,4.85076)">
        <g
           id="b451e866-2a73-4449-b8f5-ceeee66f839a"
           name="Group 23">
          <path
             d="m 116.23535,96.779709 c 0,-4.766113 -3.87755,-8.643707 -8.64371,-8.643707 -4.76615,0 -8.643642,3.877594 -8.643642,8.643707 0,2.922813 1.492282,5.654631 3.925362,7.243281 v 2.72313 c 0,2.60161 2.11656,4.71812 4.71817,4.71812 2.60162,0 4.71818,-2.11657 4.71818,-4.71812 v -1.52949 c 0,-3.8e-4 -6e-5,-1.19354 -6e-5,-1.19354 2.43336,-1.58869 3.9257,-4.320469 3.9257,-7.243381 z m -5.59183,9.966471 c 0,1.68281 -1.36905,3.05181 -3.05188,3.05181 -1.68282,0 -3.05186,-1.36905 -3.05186,-3.05181 v -0.69644 h 6.10374 z m 0.41811,-3.91167 c -0.25867,0.14861 -0.41811,0.42413 -0.41811,0.72247 v 0.8265 h -2.21877 v -4.30825 c 1.0818,-0.351971 1.86619,-1.369435 1.86619,-2.567158 0,-0.460106 -0.37304,-0.833161 -0.83315,-0.833161 -0.4601,0 -0.83315,0.373055 -0.83315,0.833161 0,0.569572 -0.46342,1.03305 -1.033,1.03305 -0.56957,0 -1.03304,-0.463417 -1.03304,-1.03305 0,-0.460106 -0.37305,-0.833161 -0.83316,-0.833161 -0.4601,0 -0.83314,0.373055 -0.83314,0.833161 0,1.197662 0.78432,2.215187 1.8662,2.567158 v 4.30825 h -2.21861 v -0.82654 c 0,-0.2983 -0.15944,-0.57382 -0.41812,-0.72243 -2.16346,-1.2429 -3.50736,-3.562934 -3.50736,-6.054801 0,-3.847328 3.13002,-6.977394 6.97741,-6.977394 3.84737,0 6.97739,3.130012 6.97739,6.977394 -1.1e-4,2.491913 -1.34413,4.812021 -3.50758,6.054801 z"
             id="d7872946-3a83-40a7-84ba-6b47463a6b26"
             name="Path 110"
             style="fill:#cecece;stroke:none;stroke-width:1px"
             transform="translate(-98.947998,-88.136002)" />
        </g>
      </g>
    </g>
  </g>
  <g
     id="525a8c94-e3fb-470f-a428-e678e9efbdb0"
     name="power off"
     transform="translate(1658.7856,-97.685084)">
    <circle
       cx="16"
       cy="16"
       r="16"
       id="68b46588-af0a-4838-9351-0e979316049d"
       name="Ellipse 22"
       style="fill:#ffffff;stroke:none;stroke-width:1px;filter:url(#filter-26-drop-shadow-0-3-3-RGB)"
       transform="translate(316.80029,250.80029)" />
    <path
       d="m 14.421494,1.9126834 c 2.227338,1.5909565 3.676878,4.1930543 3.676878,7.1380921 0,4.8365065 -3.91729,8.7573295 -8.7502628,8.7679385 C 4.5222077,17.829321 0.56956452,13.894354 0.56249356,9.0649176 0.55895811,6.1198797 2.0084963,3.5107107 4.2323003,1.9162186 4.6459489,1.6227756 5.2222281,1.7465166 5.4697108,2.1884491 L 6.0283136,3.1819129 C 6.2369056,3.5531363 6.1379128,4.0233521 5.7949734,4.2779055 4.3277578,5.3668265 3.390861,7.0921307 3.390861,9.0472403 c -0.00354,3.2632287 2.6339169,5.9431057 5.9395709,5.9431057 3.2384811,0 5.9607841,-2.623311 5.9395701,-5.9784604 C 15.259398,7.1805182 14.396744,5.4127884 12.862356,4.2743702 12.519416,4.0198174 12.423959,3.5496011 12.632551,3.1819136 l 0.558603,-0.9934642 c 0.247482,-0.4383968 0.820227,-0.5692088 1.23034,-0.275766 z M 10.744616,9.3336115 V 0.84851015 C 10.744616,0.37829411 10.366322,0 9.8961058,0 H 8.7647581 C 8.2945423,0 7.9162483,0.37829411 7.9162483,0.84851015 V 9.3336115 c 0,0.4702158 0.378294,0.8485095 0.8485098,0.8485095 h 1.1313477 c 0.4702162,0 0.8485102,-0.3782937 0.8485102,-0.8485095 z"
       id="4fa63731-eef5-4300-88d1-889e048fdaa6"
       name="Icon awesome-power-off"
       style="fill:#ff9696;stroke:none;stroke-width:1px"
       transform="translate(323.20905,257.5871)" />
  </g>
  <metadata
     id="metadata384">
    <rdf:RDF>
      <cc:Work
         rdf:about="">
        <dc:title>Bed Room – 3</dc:title>
      </cc:Work>
    </rdf:RDF>
  </metadata>
  <g
     id="41fcbf95-9781-4eb5-8e27-25d8be4f7372"
     name="light bulb"
     transform="matrix(0.62287638,0,0,0.62287638,1718.9332,2.4915055)">
    <circle
       cx="11"
       cy="11"
       r="11"
       id="92fd6700-932c-4433-9a84-4707cf655c5f"
       name="OFF"
       style="fill:#002d67;stroke:none;stroke-width:1px;filter:url(#filter-10-drop-shadow-0-3-8-RGB)"
       transform="translate(263,139)" />
    <circle
       cx="11"
       cy="11"
       r="11"
       id="df62b3a9-7848-4f90-81cc-edd627941232"
       name="Ellipse 10"
       style="fill:#ffd139;stroke:none;stroke-width:1px;filter:url(#filter-11-drop-shadow-0-3-8-RGB)"
       transform="translate(263,139)" />
    <path
       d="m 30.334106,1.617157 h 79.054324 c 3.3137,0 4.20569,2.3235626 6,6 L 139,62 c 0,3.313705 -2.68629,6 -6,6 H 6 C 2.6862912,68 0,65.313705 0,62 L 24.334106,7.617157 c 1.50293,-3.3799057 2.686291,-6 6,-6 z"
       id="7b2b2cf5-e124-482f-be9d-4a2b19df7d44"
       name="Path 100"
       style="fill:#ffffff;stroke:none;stroke-width:1px"
       transform="translate(204,85)" />
    <rect
       x="0"
       y="0"
       width="5"
       height="102"
       id="98cabbde-48d5-44ca-943f-4f595dec5aac"
       name="Rectangle 13"
       style="fill:#ffffff;stroke:none;stroke-width:1px"
       transform="translate(271,-4)" />
    <rect
       x="0"
       y="0"
       width="4"
       height="58"
       id="5c78f50a-71db-4be3-8169-c2412b6f457c"
       name="Rectangle 14"
       style="opacity:0.151479;fill:#568bd0;stroke:none;stroke-width:1px"
       transform="rotate(-23,378.22447,-700.63726)"
       clip-path="url(#clip-path-4-58-7-7-7-7)" />
  </g>
  <path
     d="m 1939.4771,124.41208 h -8.5512 l 3.3166,-3.17273 c 0.4755,-0.49949 0.4755,-1.30666 0,-1.80615 -0.4755,-0.49948 -1.2467,-0.49948 -1.7263,0 l -5.5223,5.3545 c -0.2398,0.23176 -0.3596,0.54743 -0.3596,0.89507 v 0.016 c 0,0.34764 0.1198,0.66332 0.3596,0.89508 l 5.5183,5.35449 c 0.4795,0.49949 1.2507,0.49949 1.7262,0 0.4756,-0.49948 0.4756,-1.30666 0,-1.80614 l -3.3166,-3.17274 h 8.5512 c 0.6754,0 1.2228,-0.57141 1.2228,-1.27868 0,-0.71926 -0.5434,-1.27869 -1.2187,-1.27869 z"
     id="94ab87c4-b14d-46bd-9875-876024b855e2"
     name="Icon ionic-md-arrow-round-back"
     style="fill:#ffffff;stroke:none;stroke-width:1px" />
  <rect
     style="fill:#ff0000;stroke:#ff0000;stroke-width:12.689;stroke-miterlimit:4;stroke-dasharray:none;stroke-opacity:1"
     id="rect4055"
     width="115.42522"
     height="116.13233"
     x="1933.9681"
     y="263.02454" />
  <text
     id="5573c7b8-f4cc-4828-a527-77aa9a90335b"
     name="+"
     style="font-weight:700;font-size:16px;line-height:18px;font-family:CircularStd-Bold, 'Circular Std';fill:#002d67"
     x="2121.0281"
     y="218.19026"><tspan
       x="2121.0281"
       y="218.19026"
       id="tspan369">+</tspan></text>
</svg>
