<?xml version="1.0" encoding="UTF-8"?>
<svg width="20.425" height="20.425" enable-background="new 1846 0 375 812" version="1.1" viewBox="1846 0 20.425 20.425" xmlns="http://www.w3.org/2000/svg" xmlns:cc="http://creativecommons.org/ns#" xmlns:dc="http://purl.org/dc/elements/1.1/" xmlns:rdf="http://www.w3.org/1999/02/22-rdf-syntax-ns#">
 <title>Bed Room – 3</title>
 <defs>
  <clipPath id="clip-path-124-45-12-12-12-12">
   <path d="m12 0h100a12 12 0 0112 12v21a12 12 0 01-12 12h-100a12 12 0 01-12-12v-21a12 12 0 0112-12z"/>
  </clipPath>
  <filter id="filter-3-drop-shadow-0-3-5.5-RGB" x="0" y="0" width="1" height="1">
   <feDropShadow dx="0" dy="3" flood-color="rgba(10,77,162,0.058823529411764705)" in="SourceGraphic" stdDeviation="5.5"/>
  </filter>
  <filter id="filter-7-drop-shadow-0-3-5.5-RGB" x="0" y="0" width="1" height="1">
   <feDropShadow dx="0" dy="3" flood-color="rgba(10,77,162,0.058823529411764705)" in="SourceGraphic" stdDeviation="5.5"/>
  </filter>
  <filter id="filter-10-drop-shadow-0-3-8-RGB" x="0" y="0" width="1" height="1">
   <feDropShadow dx="0" dy="3" flood-color="rgb(0,45,103)" in="SourceGraphic" stdDeviation="8"/>
  </filter>
  <filter id="filter-11-drop-shadow-0-3-8-RGB" x="0" y="0" width="1" height="1">
   <feDropShadow dx="0" dy="3" flood-color="rgb(255,199,47)" in="SourceGraphic" stdDeviation="8"/>
  </filter>
  <clipPath id="clip-path-4-58-7-7-7-7">
   <path d="m2 0a2 2 0 012 2v54a2 2 0 01-2 2 2 2 0 01-2-2v-54a2 2 0 012-2z"/>
  </clipPath>
  <filter id="filter-26-drop-shadow-0-3-3-RGB" x="0" y="0" width="1" height="1">
   <feDropShadow dx="0" dy="3" flood-color="rgba(0,45,103,0.09803921568627451)" in="SourceGraphic" stdDeviation="3"/>
  </filter>
 </defs>
 <rect x="1778.2" y="-189.46" width="104" height="118" style="stroke-width:9.3203;stroke:#000"/>
 <g id="bdeb5762-4d23-44ef-b3e0-813386b3a6ad" transform="translate(1976.2 -319.62)" name="Group 37">
  <g id="8bd6f5ed-9d69-4802-a53a-e37a1e768e4d" transform="translate(0,-65)" name="Group 2">
   <rect transform="translate(24,262)" width="124" height="45" clip-path="url(#clip-path-124-45-12-12-12-12)" style="fill:#fff;filter:url(#filter-3-drop-shadow-0-3-5.5-RGB)" name="Rectangle 1"/>
   <g transform="translate(-130.25 384.62)" name="surface1">
    <path transform="translate(-92.553)" d="m102.77 0c-3.5108 0-6.367 2.8563-6.367 6.367 0 2.0205.9526 3.906 2.5638 5.1065v.5317c-.39239.34486-.64078.84991-.64078 1.4122 0 .49508.19261.9459.50646 1.282-.31385.33613-.50646.7868-.50646 1.2819 0 .84337.55804 1.5588 1.3244 1.7963.24653 1.4997 1.5512 2.6478 3.1196 2.6478s2.8732-1.148 3.1198-2.6478c.76624-.23764 1.3244-.95292 1.3244-1.7964 0-.49492-.19262-.94575-.50647-1.2819.31385-.33613.50647-.7868.50647-1.2819 0-.56225-.2484-1.0673-.64094-1.4123v-.53155c1.6112-1.2005 2.5638-3.086 2.5638-5.1065 0-3.5108-2.8563-6.367-6.367-6.367zm2.5639 12.734c.3768 0 .68348.30668.68348.68349 0 .37696-.30668.68364-.68348.68364h-5.1277c-.37696 0-.68364-.30668-.68364-.68364 0-.37681.30668-.68349.68364-.68349zm-2.5639 6.4947c-.87516 0-1.6185-.57502-1.8723-1.367h3.7447c-.2537.7921-.99717 1.367-1.8723 1.367zm2.5639-2.5638h-5.1277c-.37696 0-.68364-.30668-.68364-.68348 0-.37696.30668-.68348.68364-.68348h5.1277c.3768 0 .68348.30652.68348.68348 0 .3768-.30668.68348-.68348.68348zm.30808-5.9982c-.16596.11111-.26554.29764-.26554.49726v.37431c-.0142-.000311-.0284-.0011-.0425-.0011h-.68364v-2.3584l.85922-.85926c.23375-.23375.23375-.61258 0-.84633-.23359-.23375-.61258-.23375-.84617 0l-1.0346 1.0346c-.1122.1122-.17531.26429-.17531.42309v2.6063h-1.367v-2.6063c0-.15864-.0631-.31089-.17531-.42309l-1.0346-1.0346c-.2336-.23359-.61243-.23359-.84618 0-.23374.23375-.23374.61258 0 .84633l.85926.85926v2.3585h-.68348c-.0143 0-.0285.000623-.0427.000934v-.37431c0-.19962-.0996-.38616-.26554-.49726-1.4389-.96336-2.2982-2.5706-2.2982-4.2996 0-2.851 2.3194-5.1702 5.1702-5.1702 2.8508 0 5.1702 2.3193 5.1702 5.1702 0 1.729-.85926 3.3362-2.2982 4.2996z" style="fill:#002d67" name="Path 101"/>
    <path transform="translate(0 -138.83)" d="m2.4787 145.2c0-.33054-.26788-.59841-.5984-.59841h-1.2819c-.33052 0-.5984.26787-.5984.59841 0 .33036.26788.59837.5984.59837h1.2819c.33052 0 .5984-.26801.5984-.59837z" style="fill:#002d67" name="Path 102"/>
    <path transform="translate(-431.92 -138.83)" d="m451.75 144.6h-1.2819c-.33036 0-.59839.26787-.59839.59841 0 .33036.26803.59837.59839.59837h1.2819c.3305 0 .59839-.26801.59839-.59837 0-.33054-.26789-.59841-.59839-.59841z" style="fill:#002d67" name="Path 103"/>
    <path transform="translate(-30.997 -239.1)" d="m33.695 249.11-1.1102.64094c-.28611.16535-.38412.53122-.21895.81749.1108.19199.31198.2992.51877.2992.10146 0 .20446-.0257.29858-.0803l1.1102-.64078c.28627-.16534.38428-.53125.2191-.8175-.16518-.28627-.53123-.38428-.8175-.2191z" style="fill:#002d67" name="Path 104"/>
    <path transform="translate(-405.05 -23.138)" d="m422.48 25.937c.10144 0 .20428-.02587.29855-.08025l1.1103-.6411c.2861-.16518.38428-.53108.21897-.81734-.16538-.28626-.53125-.38428-.81736-.21894l-1.1103.64094c-.2861.16518-.38427.53124-.21896.81734.11081.19199.31201.29936.5188.29936z" style="fill:#002d67" name="Path 105"/>
    <path transform="translate(-405.05 -239.1)" d="m423.89 249.76-1.1102-.6408c-.28625-.16517-.65228-.0671-.8175.21912-.16516.28609-.067.65215.21911.81734l1.1104.64078c.0941.0544.19696.0802.29852.0802.20679 0 .40802-.10736.5188-.29935.16534-.28611.0671-.65216-.21912-.81733z" style="fill:#002d67" name="Path 106"/>
    <path transform="translate(-31 -23.139)" d="m34.295 24.821-1.1102-.64078c-.28627-.16534-.65216-.06716-.81734.2191-.16534.28627-.06717.65216.21894.81735l1.1102.64094c.09428.05438.19713.08025.29857.08025.20695 0 .40798-.10737.51893-.29935.16518-.28626.06701-.65216-.2191-.8175z" style="fill:#002d67" name="Path 107"/>
   </g>
  </g>
  <g transform="translate(233.45 -67.121)" name="Group 16">
   <rect transform="translate(24,262)" width="124" height="45" clip-path="url(#clip-path-124-45-12-12-12-12)" style="fill:#fff;filter:url(#filter-7-drop-shadow-0-3-5.5-RGB)" name="Rectangle 1"/>
   <g transform="translate(-304.95 331)" name="bed (1)">
    <g transform="translate(7.2247 83.61)" name="Group 18">
     <g id="fa3154a0-4c99-4c46-9fe6-1e2a7d6061cf" name="Group 17">
      <path transform="translate(-149.3 -154.6)" d="m163.18 154.6h-12.282c-.60003 0-1.6017.22743-1.6017 1.7711v2.3614h15.485v-2.3614c0-1.5388-1.0017-1.7711-1.6017-1.7711z" style="fill:#002d67" name="Path 108"/>
     </g>
    </g>
    <g id="b16b950f-a9e9-4748-942c-a98725df143e" transform="translate(0,80)" name="Group 20">
     <g id="b8cd679a-a548-47ca-aae5-2a390d87f2de" name="Group 19">
      <path id="8a5cb81a-ce45-4a17-91df-4af7832409ad" transform="translate(0,-80)" d="m3.8858 88.255h-2.3373v-8.2554h-1.5485v16.003h1.5485v-4.1326h20.648v4.1277h1.5485v-7.7425z" style="fill:#002d67" name="Path 109"/>
     </g>
    </g>
    <g transform="translate(1.9647 83.513)" name="Group 22">
     <g name="Group 21">
      <circle id="aaab532f-f7e7-473e-a9d6-26f9b2c259aa" cx="2.1631" cy="2.1631" r="2.1631" style="fill:#002d67" name="Ellipse 11"/>
     </g>
    </g>
   </g>
  </g>
  <path d="m-96.988 182.41h-11.855v-.84677h3.3871c.46766 0 .84678-.37912.84678-.84678v-5.0807c0-.46766-.37912-.84677-.84678-.84677h-8.4678c-.46766 0-.84678.37911-.84678.84677v5.0807c0 .46766.37912.84678.84678.84678h3.3871v.84677h-5.0806c-.46767 0-.84678.37912-.84678.84678v11.855h1.6936v-8.4678h10.161v5.9274c0 .46766.37911.84678.84677.84678h5.9274v1.6936h1.6936v-11.855c0-.46766-.37911-.84678-.84678-.84678zm-16.089-5.9274h6.7742v3.3871h-6.7742zm-1.6936 7.621h16.936v.84677h-16.936zm16.936 2.5403v1.6936h-5.0807v-1.6936zm-5.0807 5.0806v-1.6936h5.0807v1.6936z" style="fill:#f2f2f2" name="furniture-and-household"/>
 </g>
 <g transform="translate(2005.2 -296.46)" name="intensity">
  <g transform="translate(-130.15 324.38)" style="opacity:.99556" name="OFF">
   <g transform="translate(98.948 4.8508)" name="Group 24">
    <g name="Group 23">
     <path id="af74b354-e070-476a-9f4b-5ae126792b8f" transform="translate(-98.948 -88.136)" d="m116.24 96.78c0-4.7661-3.8776-8.6437-8.6437-8.6437-4.7662 0-8.6436 3.8776-8.6436 8.6437 0 2.9228 1.4923 5.6546 3.9254 7.2433v2.7231c0 2.6016 2.1166 4.7181 4.7182 4.7181 2.6016 0 4.7182-2.1166 4.7182-4.7181v-1.5295c0-.00038-6e-5-1.1935-6e-5-1.1935 2.4334-1.5887 3.9257-4.3205 3.9257-7.2434zm-5.5918 9.9665c0 1.6828-1.369 3.0518-3.0519 3.0518-1.6828 0-3.0519-1.369-3.0519-3.0518v-.69644h6.1037zm.41811-3.9117c-.25867.14861-.41811.42413-.41811.72247v.8265h-2.2188v-4.3082c1.0818-.35197 1.8662-1.3694 1.8662-2.5672 0-.46011-.37304-.83316-.83315-.83316-.4601 0-.83315.37306-.83315.83316 0 .56957-.46342 1.033-1.033 1.033-.56957 0-1.033-.46342-1.033-1.033 0-.46011-.37305-.83316-.83316-.83316-.4601 0-.83314.37306-.83314.83316 0 1.1977.78432 2.2152 1.8662 2.5672v4.3082h-2.2186v-.82654c0-.2983-.15944-.57382-.41812-.72243-2.1635-1.2429-3.5074-3.5629-3.5074-6.0548 0-3.8473 3.13-6.9774 6.9774-6.9774 3.8474 0 6.9774 3.13 6.9774 6.9774-.00011 2.4919-1.3441 4.812-3.5076 6.0548z" style="fill:#cecece" name="Path 110"/>
    </g>
   </g>
   <g id="5fa8f382-33b9-443f-b6a7-0ed9e573c52c" transform="translate(106.76)" name="Group 26">
    <g id="3bc6166f-e2fc-4fe9-a183-2bc41aff3d0e" name="Group 25">
     <path id="58c70e98-7f15-4f66-8f82-f5eca707cd5b" transform="translate(-240.86)" d="m241.69 0c-.46012 0-.83316.37304-.83316.83315v1.4626c0 .46011.37304.83315.83316.83315.4601 0 .83316-.37304.83316-.83315v-1.4626c0-.46011-.373-.83315-.83316-.83315z" style="fill:#cecece" name="Path 111"/>
    </g>
   </g>
   <g id="4d21f82f-b381-4774-b83d-2b97431895ea" transform="translate(103.12 .60247)" name="Group 28">
    <g id="929c92b4-ec35-4f97-af20-8192503e718b" name="Group 27">
     <path transform="translate(-174.72 -10.947)" d="m176.85 12.854-.51714-1.3682c-.16267-.43039-.64364-.6474-1.0739-.48477-.4304.16269-.64746.6435-.48477 1.0739l.51709 1.3682c.12602.33342.44293.53882.77948.53882.0979 0 .19748-.01739.29445-.05405.43039-.16269.64746-.6435.48477-1.0739z" style="fill:#cecece" name="Path 112"/>
    </g>
   </g>
   <g id="1242835d-737a-4416-a21d-7298a9943c9e" transform="translate(109.88 .60243)" name="Group 30">
    <g id="12e961fd-ae5d-4a5d-8934-14b24e35ee0d" name="Group 29">
     <path id="855ad1fa-279c-4158-a9e3-2ea1f977759f" transform="translate(-297.6 -10.946)" d="m299.24 11c-.43048-.16274-.91122.05443-1.0739.48482l-.51712 1.3682c-.16263.43034.0544.91114.4848 1.0738.097.03665.19656.05405.2944.05405.33664 0 .65351-.2054.77948-.53881l.51715-1.3682c.16269-.43045-.0544-.9112-.4848-1.0739z" style="fill:#cecece" name="Path 113"/>
    </g>
   </g>
  </g>
  <g id="8d7b7eaa-e243-4988-bb4b-656d1256733b" transform="translate(-100.66 324.76)" name="solution">
   <g transform="translate(98.948 4.8508)" name="Group 24">
    <g name="Group 23">
     <path id="dd83cc8d-3983-4ec4-a7d8-4c47b47ea11d" transform="translate(-98.948 -88.136)" d="m116.24 96.78c0-4.7661-3.8776-8.6437-8.6437-8.6437-4.7662 0-8.6436 3.8776-8.6436 8.6437 0 2.9228 1.4923 5.6546 3.9254 7.2433v2.7231c0 2.6016 2.1166 4.7181 4.7182 4.7181 2.6016 0 4.7182-2.1166 4.7182-4.7181v-1.5295c0-.00038-6e-5-1.1935-6e-5-1.1935 2.4334-1.5887 3.9257-4.3205 3.9257-7.2434zm-5.5918 9.9665c0 1.6828-1.369 3.0518-3.0519 3.0518-1.6828 0-3.0519-1.369-3.0519-3.0518v-.69644h6.1037zm.41811-3.9117c-.25867.14861-.41811.42413-.41811.72247v.8265h-2.2188v-4.3082c1.0818-.35197 1.8662-1.3694 1.8662-2.5672 0-.46011-.37304-.83316-.83315-.83316-.4601 0-.83315.37306-.83315.83316 0 .56957-.46342 1.033-1.033 1.033-.56957 0-1.033-.46342-1.033-1.033 0-.46011-.37305-.83316-.83316-.83316-.4601 0-.83314.37306-.83314.83316 0 1.1977.78432 2.2152 1.8662 2.5672v4.3082h-2.2186v-.82654c0-.2983-.15944-.57382-.41812-.72243-2.1635-1.2429-3.5074-3.5629-3.5074-6.0548 0-3.8473 3.13-6.9774 6.9774-6.9774 3.8474 0 6.9774 3.13 6.9774 6.9774-.00011 2.4919-1.3441 4.812-3.5076 6.0548z" style="fill:#ffd239" name="Path 110"/>
    </g>
   </g>
   <g transform="translate(106.76)" name="Group 26">
    <g name="Group 25">
     <path transform="translate(-240.86)" d="m241.69 0c-.46012 0-.83316.37304-.83316.83315v1.4626c0 .46011.37304.83315.83316.83315.4601 0 .83316-.37304.83316-.83315v-1.4626c0-.46011-.373-.83315-.83316-.83315z" style="fill:#ffd239" name="Path 111"/>
    </g>
   </g>
   <g id="be869175-d183-47f2-a2b4-5bd7f266524f" transform="translate(103.12 .60247)" name="Group 28">
    <g name="Group 27">
     <path id="ee8e1706-d871-4205-9f02-3eb72a1d474b" transform="translate(-174.72 -10.947)" d="m176.85 12.854-.51714-1.3682c-.16267-.43039-.64364-.6474-1.0739-.48477-.4304.16269-.64746.6435-.48477 1.0739l.51709 1.3682c.12602.33342.44293.53882.77948.53882.0979 0 .19748-.01739.29445-.05405.43039-.16269.64746-.6435.48477-1.0739z" style="fill:#ffd239" name="Path 112"/>
    </g>
   </g>
   <g id="e3093227-87c3-4b52-9232-0f960203bc6b" transform="translate(109.88 .60243)" name="Group 30">
    <g name="Group 29">
     <path id="584fe9fb-d2a0-4f90-8c7a-f97efa2025fb" transform="translate(-297.6 -10.946)" d="m299.24 11c-.43048-.16274-.91122.05443-1.0739.48482l-.51712 1.3682c-.16263.43034.0544.91114.4848 1.0738.097.03665.19656.05405.2944.05405.33664 0 .65351-.2054.77948-.53881l.51715-1.3682c.16269-.43045-.0544-.9112-.4848-1.0739z" style="fill:#ffd239" name="Path 113"/>
    </g>
   </g>
  </g>
  <g id="1e4bff47-4708-4c7b-8651-1cfc02564d5b" transform="translate(-230.87 308.62)" name="solution">
   <g transform="translate(98.948 4.8508)" name="Group 24">
    <g id="b451e866-2a73-4449-b8f5-ceeee66f839a" name="Group 23">
     <path transform="translate(-98.948 -88.136)" d="m116.24 96.78c0-4.7661-3.8776-8.6437-8.6437-8.6437-4.7662 0-8.6436 3.8776-8.6436 8.6437 0 2.9228 1.4923 5.6546 3.9254 7.2433v2.7231c0 2.6016 2.1166 4.7181 4.7182 4.7181 2.6016 0 4.7182-2.1166 4.7182-4.7181v-1.5295c0-.00038-6e-5-1.1935-6e-5-1.1935 2.4334-1.5887 3.9257-4.3205 3.9257-7.2434zm-5.5918 9.9665c0 1.6828-1.369 3.0518-3.0519 3.0518-1.6828 0-3.0519-1.369-3.0519-3.0518v-.69644h6.1037zm.41811-3.9117c-.25867.14861-.41811.42413-.41811.72247v.8265h-2.2188v-4.3082c1.0818-.35197 1.8662-1.3694 1.8662-2.5672 0-.46011-.37304-.83316-.83315-.83316-.4601 0-.83315.37306-.83315.83316 0 .56957-.46342 1.033-1.033 1.033-.56957 0-1.033-.46342-1.033-1.033 0-.46011-.37305-.83316-.83316-.83316-.4601 0-.83314.37306-.83314.83316 0 1.1977.78432 2.2152 1.8662 2.5672v4.3082h-2.2186v-.82654c0-.2983-.15944-.57382-.41812-.72243-2.1635-1.2429-3.5074-3.5629-3.5074-6.0548 0-3.8473 3.13-6.9774 6.9774-6.9774 3.8474 0 6.9774 3.13 6.9774 6.9774-.00011 2.4919-1.3441 4.812-3.5076 6.0548z" style="fill:#cecece" name="Path 110"/>
    </g>
   </g>
  </g>
 </g>
 <g transform="translate(1490.6 -269.23)" name="power off">
  <circle id="68b46588-af0a-4838-9351-0e979316049d" transform="translate(316.8 250.8)" cx="16" cy="16" r="16" style="fill:#fff;filter:url(#filter-26-drop-shadow-0-3-3-RGB)" name="Ellipse 22"/>
  <path transform="translate(323.21 257.59)" d="m14.421 1.9127c2.2273 1.591 3.6769 4.1931 3.6769 7.1381 0 4.8365-3.9173 8.7573-8.7503 8.7679-4.8259.010607-8.7785-3.9244-8.7856-8.7538-.0035354-2.945 1.446-5.5542 3.6698-7.1487.41365-.29344.98993-.1697 1.2374.27223l.5586.99346c.20859.37122.1096.84144-.23334 1.096-1.4672 1.0889-2.4041 2.8142-2.4041 4.7693-.00354 3.2632 2.6339 5.9431 5.9396 5.9431 3.2385 0 5.9608-2.6233 5.9396-5.9785-.010604-1.8314-.87326-3.5991-2.4076-4.7375-.34294-.25455-.4384-.72477-.2298-1.0925l.5586-.99346c.24748-.4384.82023-.56921 1.2303-.27577zm-3.6769 7.4209v-8.4851c0-.47022-.37829-.84851-.84851-.84851h-1.1313c-.47022 0-.84851.37829-.84851.84851v8.4851c0 .47022.37829.84851.84851.84851h1.1313c.47022 0 .84851-.37829.84851-.84851z" style="fill:#ff9696" name="Icon awesome-power-off"/>
 </g>
 <metadata>
  <rdf:RDF>
   <cc:Work rdf:about="">
    <dc:title>Bed Room – 3</dc:title>
   </cc:Work>
  </rdf:RDF>
 </metadata>
 <g transform="matrix(.62288 0 0 .62288 1648.7 -178.95)" name="light bulb">
  <circle id="92fd6700-932c-4433-9a84-4707cf655c5f" transform="translate(263,139)" cx="11" cy="11" r="11" style="fill:#002d67;filter:url(#filter-10-drop-shadow-0-3-8-RGB)" name="OFF"/>
  <circle transform="translate(263,139)" cx="11" cy="11" r="11" style="fill:#ffd139;filter:url(#filter-11-drop-shadow-0-3-8-RGB)" name="Ellipse 10"/>
  <path transform="translate(204,85)" d="m30.334 1.6172h79.054c3.3137 0 4.2057 2.3236 6 6l23.612 54.383c0 3.3137-2.6863 6-6 6h-127c-3.3137 0-6-2.6863-6-6l24.334-54.383c1.5029-3.3799 2.6863-6 6-6z" style="fill:#fff" name="Path 100"/>
  <rect id="98cabbde-48d5-44ca-943f-4f595dec5aac" transform="translate(271,-4)" width="5" height="102" style="fill:#fff" name="Rectangle 13"/>
  <rect id="5c78f50a-71db-4be3-8169-c2412b6f457c" transform="rotate(-23 378.22 -700.64)" width="4" height="58" clip-path="url(#clip-path-4-58-7-7-7-7)" style="fill:#568bd0;opacity:.15148" name="Rectangle 14"/>
 </g>
 <path d="m1878.1-176.18h-8.5512l3.3166-3.1727c.4755-.49949.4755-1.3067 0-1.8062-.4755-.49948-1.2467-.49948-1.7263 0l-5.5223 5.3545c-.2398.23176-.3596.54743-.3596.89507v.016c0 .34764.1198.66332.3596.89508l5.5183 5.3545c.4795.49949 1.2507.49949 1.7262 0 .4756-.49948.4756-1.3067 0-1.8061l-3.3166-3.1727h8.5512c.6754 0 1.2228-.57141 1.2228-1.2787 0-.71926-.5434-1.2787-1.2187-1.2787z" style="fill:#fff" name="Icon ionic-md-arrow-round-back"/>
 <rect x="1765.8" y="91.479" width="115.43" height="116.13" style="fill:#f00;stroke-width:12.689;stroke:#f00"/>
 <text id="5573c7b8-f4cc-4828-a527-77aa9a90335b" x="1952.8593" y="46.645065" style="fill:#002d67;font-family:CircularStd-Bold, 'Circular Std';font-size:16px;font-weight:700;line-height:18px" name="+"><tspan x="1952.8593" y="46.645065">+</tspan></text>
</svg>
