<svg width="17.287" height="23.328" enable-background="new 1846 0 375 812" viewBox="1846 0 17.287 23.328" xmlns="http://www.w3.org/2000/svg"><defs><filter id="b" x="0" y="0" width="1" height="1"><feDropShadow dx="0" dy="3" flood-color="rgba(10,77,162,0.058823529411764705)" in="SourceGraphic" stdDeviation="5.5"/></filter><filter id="c" x="0" y="0" width="1" height="1"><feDropShadow dx="0" dy="3" flood-color="rgba(10,77,162,0.058823529411764705)" in="SourceGraphic" stdDeviation="5.5"/></filter><filter id="e" x="0" y="0" width="1" height="1"><feDropShadow dx="0" dy="3" flood-color="#002D67" in="SourceGraphic" stdDeviation="8"/></filter><filter id="f" x="0" y="0" width="1" height="1"><feDropShadow dx="0" dy="3" flood-color="#FFC72F" in="SourceGraphic" stdDeviation="8"/></filter><filter id="d" x="0" y="0" width="1" height="1"><feDropShadow dx="0" dy="3" flood-color="rgba(0,45,103,0.09803921568627451)" in="SourceGraphic" stdDeviation="3"/></filter><clipPath id="a"><path d="M12 0h100a12 12 0 0 1 12 12v21a12 12 0 0 1-12 12H12A12 12 0 0 1 0 33V12A12 12 0 0 1 12 0z"/></clipPath><clipPath id="g"><path d="M2 0a2 2 0 0 1 2 2v54a2 2 0 0 1-2 2 2 2 0 0 1-2-2V2a2 2 0 0 1 2-2z"/></clipPath></defs><path style="stroke-width:9.3203;stroke:#000" d="M1750.9-206.47h104v118h-104z"/><path transform="translate(1972.9 -139.64)" clip-path="url(#a)" style="fill:#fff;filter:url(#b)" d="M0 0h124v45H0z"/><path transform="translate(1698.597 -34.02)" d="M102.77 0a6.374 6.374 0 0 0-6.367 6.367c0 2.02.953 3.906 2.564 5.106v.532a1.876 1.876 0 0 0-.135 2.694 1.873 1.873 0 0 0-.506 1.282c0 .844.558 1.56 1.324 1.797.247 1.5 1.552 2.647 3.12 2.647s2.873-1.148 3.12-2.647a1.884 1.884 0 0 0 1.324-1.797c0-.495-.192-.946-.506-1.282a1.873 1.873 0 0 0-.135-2.694v-.531a6.359 6.359 0 0 0 2.564-5.107A6.374 6.374 0 0 0 102.77 0zm2.564 12.734a.684.684 0 0 1 0 1.367h-5.128a.684.684 0 0 1 0-1.367zm-2.564 6.495a1.97 1.97 0 0 1-1.872-1.367h3.744a1.969 1.969 0 0 1-1.872 1.367zm2.564-2.564h-5.128a.684.684 0 0 1 0-1.367h5.128a.684.684 0 0 1 0 1.367zm.308-5.998a.598.598 0 0 0-.266.497v.374H104.65v-2.36l.86-.858a.598.598 0 1 0-.847-.847l-1.034 1.035a.598.598 0 0 0-.176.423v2.606h-1.367V8.931a.598.598 0 0 0-.175-.423l-1.034-1.035a.598.598 0 0 0-.847.847l.86.859v2.358h-.684l-.043.001v-.374c0-.2-.1-.386-.265-.497a5.166 5.166 0 0 1-2.298-4.3c0-2.851 2.32-5.17 5.17-5.17s5.17 2.32 5.17 5.17c0 1.729-.86 3.336-2.298 4.3z" style="fill:#002d67"/><path transform="translate(1791.15 -172.85)" d="M2.479 145.2a.598.598 0 0 0-.599-.598H.598a.598.598 0 1 0 0 1.196H1.88c.33 0 .599-.268.599-.598z" style="fill:#002d67"/><path transform="translate(1359.23 -172.85)" d="M451.75 144.6h-1.282a.598.598 0 0 0 0 1.197h1.282a.598.598 0 0 0 0-1.197z" style="fill:#002d67"/><path transform="translate(1760.153 -273.12)" d="m33.695 249.11-1.11.64a.599.599 0 0 0 .598 1.037l1.11-.64a.599.599 0 0 0-.598-1.037z" style="fill:#002d67"/><path transform="translate(1386.1 -57.158)" d="M422.48 25.937a.596.596 0 0 0 .299-.08l1.11-.641a.598.598 0 1 0-.599-1.037l-1.11.641a.598.598 0 0 0 .3 1.117z" style="fill:#002d67"/><path transform="translate(1386.1 -273.12)" d="m423.89 249.76-1.11-.64a.599.599 0 0 0-.599 1.036l1.11.64a.595.595 0 0 0 .818-.219.598.598 0 0 0-.219-.817z" style="fill:#002d67"/><path transform="translate(1760.15 -57.159)" d="m34.295 24.821-1.11-.64a.598.598 0 1 0-.599 1.036l1.11.64a.596.596 0 0 0 .818-.218.599.599 0 0 0-.219-.818z" style="fill:#002d67"/><path transform="translate(2206.35 -141.761)" clip-path="url(#a)" style="fill:#fff;filter:url(#c)" d="M0 0h124v45H0z"/><path transform="translate(1735.325 -143.751)" d="M163.18 154.6h-12.282c-.6 0-1.602.227-1.602 1.771v2.361h15.485v-2.36c0-1.54-1.001-1.772-1.601-1.772z" style="fill:#002d67"/><path transform="translate(1877.4 -72.761)" d="M3.886 88.255H1.549V80H0v16.003h1.549V91.87h20.648v4.128h1.548v-7.743z" style="fill:#002d67"/><circle cx="2.163" cy="2.163" r="2.163" style="fill:#002d67" transform="translate(1879.365 10.752)"/><path d="M-96.988 182.41h-11.855v-.847h3.387c.468 0 .847-.379.847-.847v-5.08a.847.847 0 0 0-.847-.847h-8.468a.847.847 0 0 0-.846.847v5.08c0 .468.379.847.846.847h3.387v.847h-5.08a.847.847 0 0 0-.847.847v11.855h1.694v-8.468h10.16v5.927c0 .468.38.847.847.847h5.928v1.694h1.693v-11.855a.847.847 0 0 0-.846-.847zm-16.089-5.927h6.774v3.387h-6.774zm-1.694 7.62h16.936v.847h-16.936zm16.936 2.54v1.695h-5.08v-1.694zm-5.08 5.082v-1.694h5.08v1.693z" style="fill:#f2f2f2" transform="translate(1948.9 -336.64)"/><g style="opacity:.99556"><path transform="translate(1847.75 -72.375)" d="M116.24 96.78c0-4.766-3.878-8.644-8.644-8.644s-8.643 3.878-8.643 8.644a8.674 8.674 0 0 0 3.925 7.243v2.723a4.723 4.723 0 0 0 4.718 4.719 4.724 4.724 0 0 0 4.718-4.719v-2.723a8.673 8.673 0 0 0 3.926-7.243zm-5.592 9.966a3.055 3.055 0 0 1-3.052 3.052 3.055 3.055 0 0 1-3.052-3.052v-.696h6.104zm.418-3.911a.833.833 0 0 0-.418.722v.827h-2.219v-4.308a2.704 2.704 0 0 0 1.867-2.568.833.833 0 0 0-1.667 0 1.034 1.034 0 0 1-2.066 0 .833.833 0 0 0-1.666 0c0 1.198.784 2.216 1.866 2.568v4.308h-2.218v-.827a.833.833 0 0 0-.419-.722 7.002 7.002 0 0 1-3.507-6.055 6.985 6.985 0 0 1 6.977-6.977 6.985 6.985 0 0 1 6.978 6.977 7.002 7.002 0 0 1-3.508 6.055z" style="fill:#cecece"/><path transform="translate(1713.65 10.91)" d="M241.69 0a.833.833 0 0 0-.833.833v1.463a.833.833 0 0 0 1.666 0V.833A.833.833 0 0 0 241.69 0z" style="fill:#cecece"/><path transform="translate(1776.15 .565)" d="m176.85 12.854-.517-1.368a.833.833 0 0 0-1.559.589l.517 1.368a.833.833 0 1 0 1.559-.589z" style="fill:#cecece"/><path transform="translate(1660.03 .566)" d="M299.24 11a.833.833 0 0 0-1.074.485l-.517 1.368a.833.833 0 0 0 1.559.59l.517-1.37A.833.833 0 0 0 299.24 11z" style="fill:#cecece"/></g><path transform="translate(1877.24 -71.995)" d="M116.24 96.78c0-4.766-3.878-8.644-8.644-8.644s-8.643 3.878-8.643 8.644a8.674 8.674 0 0 0 3.925 7.243v2.723a4.723 4.723 0 0 0 4.718 4.719 4.724 4.724 0 0 0 4.718-4.719v-2.723a8.673 8.673 0 0 0 3.926-7.243zm-5.592 9.966a3.055 3.055 0 0 1-3.052 3.052 3.055 3.055 0 0 1-3.052-3.052v-.696h6.104zm.418-3.911a.833.833 0 0 0-.418.722v.827h-2.219v-4.308a2.704 2.704 0 0 0 1.867-2.568.833.833 0 0 0-1.667 0 1.034 1.034 0 0 1-2.066 0 .833.833 0 0 0-1.666 0c0 1.198.784 2.216 1.866 2.568v4.308h-2.218v-.827a.833.833 0 0 0-.419-.722 7.002 7.002 0 0 1-3.507-6.055 6.985 6.985 0 0 1 6.977-6.977 6.985 6.985 0 0 1 6.978 6.977 7.002 7.002 0 0 1-3.508 6.055z" style="fill:#ffd239"/><path transform="translate(1743.14 11.29)" d="M241.69 0a.833.833 0 0 0-.833.833v1.463a.833.833 0 0 0 1.666 0V.833A.833.833 0 0 0 241.69 0z" style="fill:#ffd239"/><path transform="translate(1805.64 .945)" d="m176.85 12.854-.517-1.368a.833.833 0 0 0-1.559.589l.517 1.368a.833.833 0 1 0 1.559-.589z" style="fill:#ffd239"/><path transform="translate(1689.52 .946)" d="M299.24 11a.833.833 0 0 0-1.074.485l-.517 1.368a.833.833 0 0 0 1.559.59l.517-1.37A.833.833 0 0 0 299.24 11z" style="fill:#ffd239"/><path transform="translate(1747.03 -88.135)" d="M116.24 96.78c0-4.766-3.878-8.644-8.644-8.644s-8.643 3.878-8.643 8.644a8.674 8.674 0 0 0 3.925 7.243v2.723a4.723 4.723 0 0 0 4.718 4.719 4.724 4.724 0 0 0 4.718-4.719v-2.723a8.673 8.673 0 0 0 3.926-7.243zm-5.592 9.966a3.055 3.055 0 0 1-3.052 3.052 3.055 3.055 0 0 1-3.052-3.052v-.696h6.104zm.418-3.911a.833.833 0 0 0-.418.722v.827h-2.219v-4.308a2.704 2.704 0 0 0 1.867-2.568.833.833 0 0 0-1.667 0 1.034 1.034 0 0 1-2.066 0 .833.833 0 0 0-1.666 0c0 1.198.784 2.216 1.866 2.568v4.308h-2.218v-.827a.833.833 0 0 0-.419-.722 7.002 7.002 0 0 1-3.507-6.055 6.985 6.985 0 0 1 6.977-6.977 6.985 6.985 0 0 1 6.978 6.977 7.002 7.002 0 0 1-3.508 6.055z" style="fill:#cecece"/><g transform="translate(1423.8 -272.75)"><circle transform="translate(316.8 250.8)" cx="16" cy="16" r="16" style="fill:#fff;filter:url(#d)"/><path transform="translate(323.21 257.59)" d="M14.421 1.913a8.75 8.75 0 0 1 3.677 7.138c0 4.836-3.917 8.757-8.75 8.768-4.826.01-8.779-3.925-8.786-8.754a8.769 8.769 0 0 1 3.67-7.149.851.851 0 0 1 1.237.272l.559.994a.848.848 0 0 1-.234 1.096 5.91 5.91 0 0 0-2.404 4.77 5.935 5.935 0 0 0 5.94 5.942c3.238 0 5.96-2.623 5.94-5.978a5.942 5.942 0 0 0-2.408-4.738.843.843 0 0 1-.23-1.092l.559-.994a.847.847 0 0 1 1.23-.275zm-3.677 7.42V.85A.846.846 0 0 0 9.896 0H8.764a.846.846 0 0 0-.848.849v8.485c0 .47.378.848.848.848h1.132c.47 0 .848-.378.848-.848z" style="fill:#ff9696"/></g><g transform="translate(1621.4 -195.97) scale(.62288)"><circle transform="translate(263 139)" cx="11" cy="11" r="11" style="fill:#002d67;filter:url(#e)"/><circle transform="translate(263 139)" cx="11" cy="11" r="11" style="fill:#ffd139;filter:url(#f)"/><path transform="translate(204 85)" d="M30.334 1.617h79.054c3.314 0 4.206 2.324 6 6L139 62a6 6 0 0 1-6 6H6a6 6 0 0 1-6-6L24.334 7.617c1.503-3.38 2.686-6 6-6z" style="fill:#fff"/><path transform="translate(271 -4)" style="fill:#fff" d="M0 0h5v102H0z"/><path transform="rotate(-23 378.22 -700.64)" clip-path="url(#g)" style="fill:#568bd0;opacity:.15148" d="M0 0h4v58H0z"/></g><path d="M1850.8-193.2h-8.551l3.316-3.173c.476-.5.476-1.306 0-1.806-.475-.5-1.246-.5-1.726 0l-5.522 5.355c-.24.231-.36.547-.36.895v.016c0 .347.12.663.36.895l5.518 5.354c.48.5 1.25.5 1.726 0s.476-1.306 0-1.806l-3.316-3.173h8.55c.676 0 1.224-.571 1.224-1.278 0-.72-.544-1.279-1.219-1.279z" style="fill:#fff"/><path style="fill:red;stroke-width:12.689;stroke:red" d="M1738.5 74.464h115.43v116.13H1738.5z"/><text x="1925.546" y="29.63" style="fill:#002d67;font-family:CircularStd-Bold,'Circular Std';font-size:16px;font-weight:700;line-height:18px"><tspan x="1925.546" y="29.63">+</tspan></text></svg>