<svg width="51" height="42.5" enable-background="new 72 0 375 812" viewBox="72 0 51 42.5" xmlns="http://www.w3.org/2000/svg"><defs><clipPath id="a"><path transform="translate(0 44)" d="M338.67-26.667h16.667A2.667 2.667 0 0 1 358.004-24v6a2.667 2.667 0 0 1-2.667 2.666H338.67A2.667 2.667 0 0 1 336.003-18v-6a2.667 2.667 0 0 1 2.667-2.667z" style="fill:#fff"/></clipPath><clipPath id="b"><path transform="translate(0 44)" d="M359-23v4a2.17 2.17 0 0 0 0-4" style="fill:#fff"/></clipPath><clipPath id="c"><path transform="translate(0 44)" d="M339.33-24.667h15.333c.736 0 1.333.597 1.333 1.333v4.667c0 .736-.597 1.333-1.333 1.333H339.33a1.333 1.333 0 0 1-1.333-1.333v-4.667c0-.736.597-1.333 1.333-1.333z" style="fill:#fff"/></clipPath><clipPath id="e"><path transform="translate(0 44)" d="M323.33-24.392a8.64 8.64 0 0 1 5.953 2.378.308.308 0 0 0 .433-.003l1.156-1.167a.322.322 0 0 0-.002-.456 10.897 10.897 0 0 0-15.08 0 .322.322 0 0 0-.003.456l1.156 1.167c.12.12.313.121.433.003a8.64 8.64 0 0 1 5.954-2.378zm0 3.796c1.218 0 2.392.452 3.294 1.27a.31.31 0 0 0 .433-.006l1.155-1.167a.322.322 0 0 0-.005-.459 7.16 7.16 0 0 0-9.752 0 .322.322 0 0 0-.004.459l1.154 1.167a.31.31 0 0 0 .433.005 4.907 4.907 0 0 1 3.292-1.27zm2.219 2.784a.314.314 0 0 0-.01-.457 3.422 3.422 0 0 0-4.419 0 .314.314 0 0 0-.01.457l1.998 2.016a.311.311 0 0 0 .444 0z" style="fill:#fff"/></clipPath><clipPath id="d"><path transform="translate(0 44)" d="M294.67-19.667h1a1 1 0 0 1 1 1v2a1 1 0 0 1-1 1h-1a1 1 0 0 1-1-1v-2a1 1 0 0 1 1-1zm4.667-2h1a1 1 0 0 1 1 1v4a1 1 0 0 1-1 1h-1a1 1 0 0 1-1-1v-4a1 1 0 0 1 1-1zM304.003-24h1a1 1 0 0 1 1 1v6.333a1 1 0 0 1-1 1h-1a1 1 0 0 1-1-1V-23a1 1 0 0 1 1-1zm4.667-2.334h1a1 1 0 0 1 1 1v8.667a1 1 0 0 1-1 1h-1a1 1 0 0 1-1-1v-8.667a1 1 0 0 1 1-1z" style="fill:#fff"/></clipPath></defs><defs><filter id="g" x="0" y="0" width="1" height="1"><feDropShadow dx="0" dy="3" flood-color="rgba(10,77,162,0.058823529411764705)" in="SourceGraphic" stdDeviation="5.5"/></filter><filter id="h" x="0" y="0" width="1" height="1"><feDropShadow dx="0" dy="3" flood-color="rgba(10,77,162,0.058823529411764705)" in="SourceGraphic" stdDeviation="5.5"/></filter><filter id="i" x="0" y="0" width="1" height="1"><feDropShadow dx="0" dy="3" flood-color="rgba(10,77,162,0.058823529411764705)" in="SourceGraphic" stdDeviation="5.5"/></filter><filter id="j" x="0" y="0" width="1" height="1"><feDropShadow dx="0" dy="3" flood-color="rgba(10,77,162,0.058823529411764705)" in="SourceGraphic" stdDeviation="5.5"/></filter><filter id="k" x="0" y="0" width="1" height="1"><feDropShadow dx="0" dy="-7" flood-color="rgba(86,139,208,0.050980392156862744)" in="SourceGraphic" stdDeviation="3"/></filter><clipPath id="f"><path d="M24 0h102a24 24 0 0 1 24 24v102a24 24 0 0 1-24 24H24a24 24 0 0 1-24-24V24A24 24 0 0 1 24 0z"/></clipPath><clipPath id="l"><path d="M0 0h9v3H2a1 1 0 0 1-1-1V0z"/></clipPath></defs><path style="stroke-width:9.3203;stroke:#fff" d="M-269.22 11.506h195.16v178.9h-195.16z" transform="translate(50.25 -207.25)"/><g clip-path="url(#a)" transform="translate(-504.81 -175.573)"><path transform="translate(336 17.333)" d="M2.667 0h16.667A2.667 2.667 0 0 1 22 2.667v6a2.667 2.667 0 0 1-2.666 2.666H2.667A2.667 2.667 0 0 1 0 8.667v-6A2.667 2.667 0 0 1 2.667 0z" style="fill:#fff;stroke-width:2px"/></g><g clip-path="url(#b)" transform="translate(-504.81 -175.573)"><path transform="translate(0 44)" d="M354-28h11.328v14H354z" style="fill:#fff"/></g><g clip-path="url(#c)" transform="translate(-504.81 -175.573)"><path transform="translate(0 44)" d="M333-29.667h28v17.333h-28z" style="fill:#fff"/></g><g clip-path="url(#d)" transform="translate(-381.61 -168.547)"><path transform="translate(0 44)" d="M288.67-31.333h27v20.667h-27z" style="fill:#fff"/></g><g clip-path="url(#e)" transform="translate(-450.17 -157.903)"><path transform="translate(0 44)" d="M310.69-31.669h25.272v20.966H310.69z" style="fill:#fff"/></g><path transform="translate(69.4 -8.35)" d="M6 16h44.2v22.95H6z" style="fill:#ed539d"/><path transform="translate(62.5 -7.15)" d="M57.1 10.55v4.25H52v-4.25a2.55 2.55 0 0 1 5.1 0z" style="fill:#b39a7c"/><path transform="translate(69.4 -7.15)" d="M11.1 10.55v4.25H6v-4.25a2.55 2.55 0 0 1 5.1 0z" style="fill:#b39a7c"/><path transform="translate(62.2 -13.45)" d="M58.25 50v5.1H55.7L54 50z" style="fill:#b39a7c"/><path transform="translate(69.55 -13.45)" d="m9.25 50-1.7 5.1H5V50z" style="fill:#b39a7c"/><path transform="translate(69.85 -12.25)" d="M3 42h49.3v6.8H3z" style="fill:#ffda44"/><path transform="translate(65.2 -9.55)" d="M49.3 25.7v5.1H34v-5.1a1.705 1.705 0 0 1 1.7-1.7h11.9a1.705 1.705 0 0 1 1.7 1.7z" style="fill:#d8d7da"/><path transform="translate(68.5 -9.55)" d="M27.3 25.7v5.1H12v-5.1a1.705 1.705 0 0 1 1.7-1.7h11.9a1.705 1.705 0 0 1 1.7 1.7z" style="fill:#d8d7da"/><path transform="translate(69.55 -10.75)" d="M50.9 37.1v3.4H5v-3.4a5.015 5.015 0 0 1 .85-2.813A5.086 5.086 0 0 1 10.1 32h35.7a5.085 5.085 0 0 1 4.25 2.287c.558.831.854 1.811.85 2.813z" style="fill:#5aaae7"/><path d="M122.15 28.9h-.85v-2.55a5.922 5.922 0 0 0-.85-3.052V3.4a3.4 3.4 0 1 0-6.8 0v3.4h-32.3V3.4a3.4 3.4 0 1 0-6.8 0v19.898a5.922 5.922 0 0 0-.85 3.052v2.55h-.85a.85.85 0 0 0-.85.85v6.8c0 .47.38.85.85.85h.85v4.25c0 .47.38.85.85.85h2.55a.862.862 0 0 0 .808-.578l1.504-4.522h36.176l1.505 4.522c.12.344.443.575.807.578h2.55c.47 0 .85-.38.85-.85V37.4h.85c.47 0 .85-.38.85-.85v-6.8a.85.85 0 0 0-.85-.85zm-6.8-25.5a1.7 1.7 0 0 1 3.4 0v3.4h-3.4zm-39.1 0a1.7 1.7 0 0 1 3.4 0v3.4h-3.4zm0 5.1h42.5v12.971a5.939 5.939 0 0 0-3.4-1.071v-4.25a2.558 2.558 0 0 0-2.55-2.55h-11.9a2.558 2.558 0 0 0-2.55 2.55v4.25h-1.7v-4.25a2.558 2.558 0 0 0-2.55-2.55H82.2a2.558 2.558 0 0 0-2.55 2.55v4.25a5.939 5.939 0 0 0-3.4 1.071zm37.4 7.65v4.25h-13.6v-4.25c0-.47.38-.85.85-.85h11.9c.47 0 .85.38.85.85zm-18.7 0v4.25h-13.6v-4.25c0-.47.38-.85.85-.85h11.9c.47 0 .85.38.85.85zM75.4 26.35a4.25 4.25 0 0 1 4.25-4.25h35.7a4.25 4.25 0 0 1 4.25 4.25v2.55H75.4zm1.088 14.45H75.4v-3.4h2.219zm43.112 0h-1.088l-1.13-3.4h2.218zm1.7-5.1H73.7v-5.1h47.6z"/><path transform="translate(262.91 327.25)" clip-path="url(#f)" style="fill:#fff;filter:url(#g)" d="M0 0h150v150H0z"/><path transform="translate(-38.15 92.47)" d="M136 272h23.434v6.25H136z" style="fill:#4d6378"/><path transform="translate(-38.15 92.47)" d="M152.4 278.25V272h-9.374v6.25h-7.03v10.155h23.434V278.25z" style="fill:#42566b"/><path transform="rotate(180 66.108 192.778)" d="M0 0h10.936v21.091H0z" style="fill:#f6bb00"/><path transform="translate(62.91 316.25)" d="M24 24h10.936v17.966H24z" style="fill:#f6bb00"/><path transform="translate(62.91 92.47)" d="M24 272h10.936v21.091H24z" style="fill:#f6bb00"/><path transform="translate(-319.69 70.81)" d="M448 296h1.562v3.124H448z" style="fill:#eda600"/><path transform="rotate(180 66.108 179.108)" d="M0 0h10.936v17.966H0z" style="fill:#f6bb00"/><path transform="translate(-67.03 179.09)" d="M168 176h17.185v3.124H168z" style="fill:#42566b"/><path transform="translate(-67.03 207.97)" d="m185.18 147.12-3.124-3.125h-10.937l-3.124 3.125z" style="fill:#4d6378"/><path transform="translate(-124.78 70.81)" d="M232 296h4.687v1.562H232z" style="fill:#02c26a"/><g transform="translate(99.18 366.678)"><circle transform="translate(-.27 -.428)" cx="1" cy="1" r="1" style="fill:#42566b"/><ellipse transform="translate(2.73 -.428)" cx=".5" cy="1" rx=".5" ry="1" style="fill:#42566b"/><ellipse transform="translate(16.73 -.428)" cx=".5" cy="1" rx=".5" ry="1" style="fill:#42566b"/><circle transform="translate(18.73 -.428)" cx="1" cy="1" r="1" style="fill:#42566b"/></g><path transform="translate(-67.03 5.84)" d="M168 368h17.185v3.906H168z" style="fill:#84d8e8"/><path transform="translate(-38.15 -59.13)" d="M136 440h23.434v4.687H136z" style="fill:#eda600"/><path transform="translate(-38.15 316.25)" d="M136 24h11.717v11.717H136z" style="fill:#eda600"/><path transform="translate(-110.34 258.499)" d="M216 88h1.562v3.124H216z" style="fill:#cf8300"/><path transform="translate(41.253 200.75)" d="M48 152h1.562v3.124H48z" style="fill:#eda600"/><path transform="translate(41.253 70.81)" d="M48 296h1.562v3.124H48z" style="fill:#eda600"/><path transform="rotate(180 60.64 175.984)" d="M0 0h11.717v11.717H0z" style="fill:#de9400"/><path transform="translate(-168.09 258.499)" d="M280 88h1.562v3.124H280z" style="fill:#cf8300"/><path transform="translate(-319.69 200.75)" d="M448 152h1.562v3.124H448z" style="fill:#eda600"/><path transform="translate(65.25 352.75)" clip-path="url(#f)" style="fill:#fff;filter:url(#h)" d="M0 0h150v150H0z"/><path transform="translate(121.025 502.12)" style="fill:#f05540" d="M0 0h5.5v9.6H0z"/><path transform="translate(118.925 497.22)" style="fill:#f3705a" d="M0 0h9.7v5.2H0z"/><path transform="translate(44.525 434.32)" d="M44.8 86.8v22.1H84V86.8L64.4 67.2c-7.6 7.7-11.9 12-19.6 19.6z" style="fill:#ffd15c"/><path transform="translate(44.525 434.32)" d="M84.1 86.8 64.5 67.2C60.6 71 57.6 74 54.6 77l-9.8 9.8v4.5l19.6-19.6L84 91.3v.6-5.1h.1z" style="fill:#f7b64c"/><path transform="translate(2.958 200.39)" d="M102.47 342.83h-11.8v-11.6c0-3.3 2.7-5.9 5.9-5.9 3.3 0 5.9 2.7 5.9 5.9z" style="fill:#415a6b"/><path transform="translate(108.925 525.72)" style="fill:#344a5e" d="M0 0h15.4v13.5H0z"/><path style="fill:#8ad7f8" d="M0 0h5.3v10.3H0z" transform="translate(110.525 527.32)"/><path transform="translate(117.425 527.32)" style="fill:#8ad7f8" d="M0 0h5.3v10.3H0z"/><path d="M47.1 21.8 26.2.9C25-.3 22.9-.3 21.7.9L.9 21.8C-.3 23-.3 25.1.9 26.3c1.2 1.2 3.3 1.2 4.5 0L24 7.7l18.6 18.6c1.2 1.2 3.3 1.2 4.5 0 1.2-1.3 1.2-3.3 0-4.5z" style="fill:#f3705a" transform="translate(85.125 495.22)"/><path transform="translate(-307.45 -230.34)" d="M431.46 344.02v-1.829c0-.319-.261-.58-.58-.58h-7.34c-.318 0-.58.261-.58.58v1.829z" style="fill:#9ce8ff"/><path transform="translate(-297.349 -307.275)" d="M411.62 428v2.766c0 .319.261.58.58.58h1.046c.319 0 .58-.261.58-.58V428z" style="fill:#ffaf68"/><path transform="translate(-368.789 -307.275)" d="M491.83 430.77c0 .32.261.58.58.58h1.046c.319 0 .58-.26.58-.58v-2.766h-2.206v2.766z" style="fill:#ffaf68"/><path transform="translate(114.271 118.249)" style="fill:#cb7c52" d="M0 0h10.978v2.833H0z"/><path transform="translate(-297.35 -247.06)" d="M422.01 360.39h-9.798a.592.592 0 0 0-.59.59v4.7H422.6v-4.7a.592.592 0 0 0-.59-.59z" style="fill:#ab5436"/><path transform="translate(-326.04 -264.91)" d="M446.92 382.12h-2.243a.845.845 0 1 1 0-1.69h2.243a.845.845 0 1 1 0 1.69z" style="fill:#cb7c52"/><path transform="translate(38.647 -116.61)" d="M36.002 238.4v-23.66a.82.82 0 1 0-1.64 0v23.66z" style="fill:#08375e"/><path transform="translate(62.259 -312.97)" d="M15.413 434.4h-7a.565.565 0 0 0-.563.563v1.528c0 .31.253.563.563.563h7z" style="fill:#63c3ea"/><g style="opacity:.1"><path transform="translate(62.259 -312.975)" d="M10.315 436.49v-1.528c0-.31.253-.563.563-.563H8.413a.565.565 0 0 0-.563.563v1.528c0 .31.253.563.563.563h2.465a.565.565 0 0 1-.563-.563z" style="fill:#231f20"/></g><path transform="translate(69.25 -43.145)" d="M9.157 142.22c0 .31-.253.563-.563.563H.564A.565.565 0 0 1 0 142.22v-10.227c0-.31.254-.563.563-.563h8.03c.31 0 .564.253.564.563z" style="fill:#ff9f3d"/><path transform="translate(69.25 -43.145)" d="M2.422 142.22v-10.227c0-.31.254-.563.564-.563H.563a.565.565 0 0 0-.563.563v10.227c0 .31.254.563.563.563h2.423a.565.565 0 0 1-.564-.563z" style="fill:#231f20;opacity:.1"/><path transform="translate(-26.064 -165.2)" d="M135.23 268.48h-27.088a1.13 1.13 0 0 0-1.127 1.127v11.399h29.341v-11.4a1.13 1.13 0 0 0-1.126-1.126z" style="fill:#ffbb4a"/><path transform="translate(-26.064 -165.2)" d="M110.11 268.48h-1.967a1.13 1.13 0 0 0-1.127 1.127v11.399h1.967v-11.4c0-.619.507-1.126 1.127-1.126z" style="fill:#231f20;opacity:.1"/><path transform="translate(94.805 103.277)" style="fill:#ff9f3d" d="M0 0h1.641v12.526H0z"/><path transform="translate(-62.465 -216.77)" d="M154.08 332c0 .31-.253.563-.563.563h-5.063a.565.565 0 0 1-.563-.563v-5.066c0-.31.253-.564.563-.564h5.063c.31 0 .563.254.563.563z" style="fill:#3eaf91"/><path transform="translate(-181.925 -216.77)" d="M288.21 332c0 .31-.253.563-.563.563h-5.063a.565.565 0 0 1-.563-.563v-5.066c0-.31.253-.564.563-.564h5.063c.31 0 .563.254.563.563z" style="fill:#3eaf91"/><path transform="translate(80.955 115.386)" style="fill:#ff9f3d" d="M0 0h29.341v5.797H0z"/><path transform="translate(6.602 -229.31)" d="M74.239 340.46h-2.75a1.15 1.15 0 0 0-1.147 1.147v11.2c0 .315.258.573.573.573h3.897a.575.575 0 0 0 .573-.573v-11.2a1.15 1.15 0 0 0-1.146-1.147z" style="fill:#fcc96c"/><path transform="translate(6.602 -229.31)" d="M72.76 352.81v-11.2c0-.63.516-1.147 1.146-1.147h-2.418a1.15 1.15 0 0 0-1.146 1.147v11.2c0 .315.258.574.573.574h2.418a.575.575 0 0 1-.573-.574z" style="fill:#231f20;opacity:.1"/><path transform="translate(-256.59 -229.31)" d="M369.75 340.46H367a1.15 1.15 0 0 0-1.147 1.147v11.2c0 .315.258.573.573.573h3.897a.575.575 0 0 0 .573-.573v-11.2a1.15 1.15 0 0 0-1.146-1.147z" style="fill:#fcc96c"/><path transform="translate(-256.59 -229.31)" d="M367.7 352.81v-11.2c0-.63.516-1.147 1.146-1.147h-1.844a1.15 1.15 0 0 0-1.146 1.147v11.2c0 .315.258.574.573.574h1.844a.575.575 0 0 1-.573-.574z" style="fill:#231f20;opacity:.1"/><path transform="translate(-37.56 5.268)" d="M145.85 77.074h-25.323a.6.6 0 0 0-.597.598v13.985a.6.6 0 0 0 .597.597h25.323a.6.6 0 0 0 .597-.597V77.672a.6.6 0 0 0-.597-.598z" style="fill:#ab5436"/><path transform="translate(-57.01 -14.199)" d="M142.1 109.33a.33.33 0 0 1-.328-.328v-9.743a.33.33 0 0 1 .328-.328h21.084a.33.33 0 0 1 .328.328v9.743a.33.33 0 0 1-.328.328z" style="fill:#b1e8ff"/><path transform="translate(-277.105 -118.984)" d="M391.69 222.25a.3.3 0 0 1-.286-.213c-.47-1.527-.793-1.853-2.302-2.329a.303.303 0 0 1-.21-.29c0-.132.085-.25.21-.29 1.509-.474 1.832-.8 2.302-2.328a.3.3 0 0 1 .573 0c.47 1.527.792 1.853 2.3 2.329.126.04.212.157.212.29 0 .133-.086.25-.211.29-1.51.475-1.831.801-2.301 2.328a.3.3 0 0 1-.287.213z" style="fill:#ffbb4a"/><path transform="translate(-308.285 -15.858)" d="M427 107.07a.332.332 0 0 1-.317-.236c-.52-1.69-.878-2.052-2.55-2.579a.335.335 0 0 1-.232-.32c0-.148.094-.278.233-.322 1.671-.526 2.029-.887 2.55-2.578a.332.332 0 0 1 .633 0c.521 1.69.878 2.052 2.55 2.578a.336.336 0 0 1 .233.321.335.335 0 0 1-.234.321c-1.67.527-2.028.888-2.549 2.579a.332.332 0 0 1-.317.236z" style="fill:#ffbb4a"/><path transform="translate(24.342 26.41)" d="M52.739 58.022a.248.248 0 0 1-.237-.176c-.389-1.264-.656-1.534-1.905-1.927a.25.25 0 0 1-.174-.24c0-.11.07-.207.174-.24 1.25-.393 1.516-.663 1.905-1.927a.248.248 0 0 1 .474 0c.39 1.264.656 1.534 1.905 1.927a.25.25 0 0 1 .174.24.25.25 0 0 1-.174.24c-1.25.393-1.516.663-1.905 1.927a.249.249 0 0 1-.237.176z" style="fill:#ffbb4a"/><path transform="translate(-170.45 -53.724)" d="m272.68 143.43-3.545 5.422h7.48l-3.545-5.422c-.107-.164-.283-.164-.39 0z" style="fill:#86d5b5"/><path transform="translate(-100.56 -32.072)" d="m195.95 119.12-5.284 8.08h10.958l-5.284-8.08c-.108-.164-.283-.164-.39 0z" style="fill:#3eaf91"/><path transform="translate(-59.68 -52.739)" d="m148.39 142.33-3.625 5.543h7.64l-3.625-5.543c-.107-.164-.283-.164-.39 0z" style="fill:#86d5b5"/><path transform="translate(-57.01 -14.199)" d="M142.1 98.932a.33.33 0 0 0-.328.328v9.743c0 .18.148.328.328.328h1.575v-10.4z" style="fill:#231f20;opacity:.1"/><path transform="translate(-307.45 -210.2)" d="M431.46 320.9c0 .32-.261.58-.58.58h-7.34a.582.582 0 0 1-.58-.58v-1.32c0-.32.262-.58.58-.58h7.34c.319 0 .58.26.58.58z" style="fill:#63c3ea"/><path transform="translate(341.79 223.3)" clip-path="url(#f)" style="fill:#fff;filter:url(#i)" d="M0 0h150v150H0z"/><g transform="translate(70.06 238.12)"><path transform="translate(-100.16 -169.09)" d="M120.53 194.27a4.264 4.264 0 0 1 6.403-4.43 3.498 3.498 0 0 1 6.738-.471 4.26 4.26 0 0 1 6.755 1.58 3.104 3.104 0 0 1 4.253-1.038 3.812 3.812 0 1 1 7.472 1.042s-3.715 5.801-17.412 5.801c-12.144 0-14.209-2.484-14.209-2.484z" style="fill:#cbf4ff"/><path transform="translate(-20.999 -247.72)" d="m73.983 272.61-2.42 11.929c-.732 3.607-3.713 6.2-7.394 6.2H43.158c-3.681 0-6.662-2.593-7.394-6.2l-2.42-11.929s6.531 4.51 19.68 4.51c13.149 0 20.959-4.51 20.959-4.51z" style="fill:#fcefde"/><path transform="translate(-286.86 -247.72)" d="m335.34 274.52-2.033 10.019c-.732 3.607-3.713 6.2-7.394 6.2h4.11c3.68 0 6.661-2.593 7.393-6.2l2.42-11.929s-1.573.908-4.496 1.91z" style="fill:#fce4c6"/><path transform="translate(-6.57 -215.58)" d="M39.235 245.39c-7.943 0-15.435-1.951-21.096-5.495a1.433 1.433 0 1 1 1.52-2.43c5.398 3.379 12.487 5.068 19.576 5.068s14.178-1.69 19.575-5.067a1.432 1.432 0 1 1 1.52 2.43c-5.66 3.543-13.153 5.494-21.095 5.494z" style="fill:#e7c33c"/><path transform="translate(-103.32 -49.627)" d="m133.43 57.34-9.335 1.965a.075.075 0 0 1-.089-.058 3.32 3.32 0 0 1 2.565-3.933l2.985-.628a3.32 3.32 0 0 1 3.932 2.565.076.076 0 0 1-.058.089z" style="fill:#e7c33c"/><circle transform="rotate(-45 27.13 -7.043)" cx="1.624" cy="1.624" r="1.624" style="fill:#eed05e"/><path transform="translate(-50.855 -396.6)" d="m74.019 438.82 2.027-2.027a1.147 1.147 0 0 1 1.621 1.622l-2.73 2.73a5.212 5.212 0 0 1-3.685 1.526h-3.905a1.146 1.146 0 1 1 0-2.293H70.6a4.508 4.508 0 0 0 3.234-1.368z" style="fill:#e7c33c"/><path transform="translate(-278.1 -396.6)" d="m320.26 438.82-2.027-2.027a1.147 1.147 0 0 0-1.621 1.622l2.73 2.73a5.212 5.212 0 0 0 3.685 1.526h3.905a1.147 1.147 0 0 0 0-2.293h-3.253a4.508 4.508 0 0 1-3.234-1.368z" style="fill:#e7c33c"/><circle transform="translate(39.913 13.786)" cx="1.777" cy="1.777" r="1.777" style="fill:#cbf4ff"/><circle transform="translate(46.2 10.151)" cx="1.312" cy="1.312" r="1.312" style="fill:#cbf4ff"/><path d="M54.795 21.973a2.108 2.108 0 0 0-1.968-.987 4.468 4.468 0 0 0-.555-2.35 4.467 4.467 0 0 0-2.687-2.15 4.467 4.467 0 0 0-3.42.379 4.467 4.467 0 0 0-2.223 2.969 3.8 3.8 0 0 0-3.553.825 4.92 4.92 0 0 0-2.684-1.927 4.923 4.923 0 0 0-3.93.512 4.19 4.19 0 0 0-2.402-1.836 4.19 4.19 0 0 0-5.015 2.379 4.954 4.954 0 0 0-6.74 4.409 31.699 31.699 0 0 1-3.659-1.506v-3.383c.117-.04.232-.087.343-.146l.67.67c.617.618 1.589-.348.968-.968l-.67-.67c.174-.327.266-.694.266-1.075s-.092-.748-.265-1.076l.67-.67c.621-.621-.347-1.59-.97-.968l-.67.67a2.294 2.294 0 0 0-.39-.16V5.366A4.002 4.002 0 0 1 19.91 1.37a4.002 4.002 0 0 1 3.964 3.488l-.835.175a3.934 3.934 0 0 0-3.035 4.655c.041.42.401.768.842.676l5.111-1.076c.86-.181.58-1.521-.282-1.34l-4.386.923a2.564 2.564 0 0 1 2.032-2.498l3.132-.659a2.543 2.543 0 0 1 1.926.361c.42.274.744.656.942 1.105l-.267.056c-.861.182-.58 1.521.282 1.34l.991-.208c.44-.093.618-.56.499-.958a3.934 3.934 0 0 0-4.655-3.036l-.953.2A5.375 5.375 0 0 0 19.909 0a5.373 5.373 0 0 0-5.367 5.366v9.547a2.297 2.297 0 0 0-.39.161l-.67-.67c-.623-.622-1.592.346-.97.969l.67.67a2.32 2.32 0 0 0 0 2.15l-.67.67c-.612.613.342 1.596.97.968l.67-.67c.14.074.287.132.437.175v2.637c-.387-.217-.767-.44-1.138-.672-2.325-1.455-4.55 2.15-2.247 3.591.166.104.334.206.504.307l2.385 11.759c.581 2.862 2.464 5.102 4.945 6.131h-2.547c-2.357 0-2.362 3.663 0 3.663h3.905a5.858 5.858 0 0 0 4.17-1.727L25.99 43.6c.106.067 13.452.106 13.452.106l1.319 1.319a5.858 5.858 0 0 0 4.169 1.727c.88 0 .88-1.37 0-1.37-1.21 0-2.346-.47-3.201-1.326L39 41.326c-.408-.408.226-1.08.653-.652l2.205 2.21a5.222 5.222 0 0 0 3.725 1.575h3.253c.596 0 .596.923 0 .923-.879 0-.88 1.37 0 1.37 1.01 0 1.832-.822 1.832-1.832 0-1.01-.822-1.831-1.832-1.831H46.29c2.481-1.03 4.364-3.27 4.945-6.131L53.62 25.2c.17-.102.337-.204.503-.308a2.12 2.12 0 0 0 .672-2.919zm-40.233-4.19a.94.94 0 1 1 1.331-1.33.94.94 0 0 1-1.331 1.33zm6.564 5.619a3.583 3.583 0 0 1 5.294-2.063.685.685 0 0 0 1.027-.454 2.817 2.817 0 0 1 3.544-2.162 2.82 2.82 0 0 1 1.875 1.783.685.685 0 0 0 1.098.29 3.567 3.567 0 0 1 3.359-.749 3.563 3.563 0 0 1 2.312 2.076.685.685 0 0 0 1.217.095 2.424 2.424 0 0 1 3.315-.808.685.685 0 0 0 1.039-.59 3.125 3.125 0 0 1 1.619-2.756 3.106 3.106 0 0 1 2.378-.263 3.106 3.106 0 0 1 1.869 1.495c.393.715.49 1.539.277 2.325-5.05 2.997-11.656 4.643-18.686 4.643-4.11 0-8.077-.563-11.672-1.63a3.55 3.55 0 0 1 .136-1.232zm2.471 20.654a4.498 4.498 0 0 1-3.2 1.326H16.49c-.596 0-.596-.924 0-.924h3.253a5.221 5.221 0 0 0 3.725-1.575l2.205-2.21c.427-.426 1.07.235.653.653zm29.8-20.325c-5.555 3.476-12.918 5.39-20.734 5.39-4.273 0-8.387-.562-12.229-1.67-.845-.244-1.226 1.072-.38 1.316 3.965 1.144 8.207 1.724 12.608 1.724 7.134 0 13.916-1.555 19.38-4.41L49.89 36.685c-.666 3.281-3.364 5.585-6.588 5.648-.164-.122-2.682-2.629-2.682-2.629-1.693-1.692-4.286.98-2.549 2.632H27.252c1.716-1.669-.851-4.328-2.548-2.632 0 0-2.518 2.507-2.683 2.63-3.223-.064-5.921-2.368-6.587-5.65L13.282 26.08a34.326 34.326 0 0 0 3.146 1.445c.816.327 1.326-.944.508-1.271a31.567 31.567 0 0 1-5.007-2.523c-.803-.503-.025-1.782.794-1.269 5.894 3.69 13.05 5.171 19.939 5.171 7.53 0 14.61-1.836 19.939-5.17.81-.508 1.612.756.794 1.268z"/><path d="M41.69 18.02a2.464 2.464 0 0 0 2.462-2.461 2.464 2.464 0 0 0-2.462-2.462 2.464 2.464 0 0 0-2.461 2.462 2.464 2.464 0 0 0 2.461 2.461zm0-3.553a1.093 1.093 0 1 1-1.092 1.092c0-.602.49-1.092 1.092-1.092zM47.51 13.455a2 2 0 0 0 1.997-1.997 2 2 0 0 0-1.997-1.996 2 2 0 0 0-1.997 1.996c0 1.101.896 1.997 1.997 1.997zm0-2.624a.628.628 0 1 1-.001 1.256.628.628 0 0 1 .001-1.256zM26.2 22.36a2.748 2.748 0 0 0-.657-.288 2.723 2.723 0 0 0-2.085.23 2.722 2.722 0 0 0-1.31 1.638.685.685 0 0 0 1.315.382 1.372 1.372 0 0 1 2.028-.79.685.685 0 0 0 .709-1.172zM36.13 22.58a.538.538 0 0 1 .781.343.685.685 0 0 0 1.33-.327 1.91 1.91 0 0 0-2.771-1.216.685.685 0 0 0 .66 1.2z"/></g><path transform="translate(341.79 223.3)" clip-path="url(#f)" style="fill:#fff;filter:url(#j)" d="M0 0h150v150H0z"/><path transform="translate(-23.572 -102.25)" d="M106 286h5.455v16.457H106z" style="fill:#ff4b00"/><path transform="translate(-241.75 -102.25)" d="M346 286h5.455v16.457H346z" style="fill:#d03b00"/><path transform="translate(-78.12 -102.25)" d="M166 286h16.366v16.457H166z" style="fill:#ffe470"/><path transform="translate(-159.93 -102.25)" d="M256 286h8.183v16.457H256z" style="fill:#fdbf00"/><path transform="translate(-37.21 103.205)" d="M145.55 62.728v19.184h-24.549V62.728L133.275 60z" style="fill:#ffe470"/><path transform="translate(-159.93 103.205)" d="M268.27 62.728v19.184h-12.274V60z" style="fill:#fdbf00"/><path transform="translate(-9.936 7.75)" d="M91 169.04v5.6l2.046 2.729 3.41-2.728v-9.638z" style="fill:#ff4b00"/><path transform="translate(-255.39 7.75)" d="M361 165v9.638l2.728 2.727 2.727-2.727v-5.601z" style="fill:#d03b00"/><path transform="translate(-337.2 -102.246)" d="M453.73 286v15.093l-1.364 2.728-1.364-2.728V286z" style="fill:#5a5a5a"/><path transform="translate(-282.66 -102.246)" d="M393.73 286v15.093l-1.364 2.728-1.364-2.728V286z" style="fill:#5a5a5a"/><path transform="translate(-228.11 -102.246)" d="M333.73 286v15.093l-1.364 2.728-1.364-2.728V286z" style="fill:#5a5a5a"/><path transform="translate(-173.57 -102.246)" d="M273.73 286v15.093l-1.364 2.728-1.364-2.728V286z" style="fill:#5a5a5a"/><path transform="translate(-119.03 -102.25)" d="M213.73 286v15.093l-1.364 2.728-1.364-2.728V286z" style="fill:#6e6e6e"/><path transform="translate(-64.48 -102.25)" d="M153.73 286v15.093l-1.364 2.728-1.364-2.728V286z" style="fill:#6e6e6e"/><path transform="translate(-9.936 -102.25)" d="M93.728 286v15.093l-1.364 2.728L91 301.093V286z" style="fill:#6e6e6e"/><path transform="translate(44.609 -102.25)" d="M33.728 286v15.093l-1.364 2.728L31 301.093V286z" style="fill:#6e6e6e"/><path transform="translate(-9.936 157.75)" d="M121 15.002v4.037a17.171 17.171 0 0 1-5.455-1.31c-1.446-.572-2.81-1.39-4.064-2.372a17.754 17.754 0 0 1-5.483-7.147 17.762 17.762 0 0 1-6.955 8.183c-.846.518-1.692.982-2.592 1.337-1.745.763-3.6 1.172-5.455 1.309v-4.037c0-7.801 6-14.238 13.638-14.92.436-.054.9-.082 1.364-.082.463 0 .927.028 1.364.082C114.999.764 121 7.202 121 15.002z" style="fill:#ff7816"/><path transform="translate(-159.93 157.75)" d="M256 8.21V0c.464 0 .927.027 1.364.082 7.637.682 13.638 7.119 13.638 14.92v4.036a17.171 17.171 0 0 1-5.456-1.309c-1.445-.572-2.81-1.39-4.064-2.373A17.755 17.755 0 0 1 256 8.21z" style="fill:#ff4b00"/><path transform="translate(72.79 -88.61)" d="M0 271h46.552v2.728H0z" style="fill:#6e6e6e"/><path transform="translate(-159.93 -88.61)" d="M256 271h23.276v2.728H256z" style="fill:#5a5a5a"/><path transform="translate(72.79 -253.15)" d="M0 452h46.552v5.455H0z" style="fill:#ececf1"/><path transform="translate(-159.93 -253.15)" d="M256 452h23.276v5.455H256z" style="fill:#d3d3d8"/><path transform="translate(218.25 574.75)" style="fill:#fff;filter:url(#k)" d="M0 0h375v67H0z"/><path transform="translate(158.63 414.268)" d="M20.316 16.908a3.408 3.408 0 1 1-6.816 0 3.408 3.408 0 0 1 6.816 0z" style="fill:none;stroke-linecap:round;stroke-linejoin:round;stroke-width:2.5px;stroke:#002d67"/><path transform="translate(161.542 417.18)" d="M22.402 17.404c-.31.701-.16 1.52.375 2.067l.068.069a2.272 2.272 0 0 1-1.607 3.88c-.603 0-1.182-.239-1.608-.666l-.068-.068a1.874 1.874 0 0 0-2.067-.375 1.874 1.874 0 0 0-1.136 1.716v.193a2.272 2.272 0 1 1-4.544 0v-.102a1.874 1.874 0 0 0-1.227-1.716 1.874 1.874 0 0 0-2.068.375l-.068.068a2.272 2.272 0 0 1-3.881-1.607c0-.603.24-1.181.666-1.607l.068-.069a1.874 1.874 0 0 0 .375-2.067 1.874 1.874 0 0 0-1.715-1.136h-.193a2.272 2.272 0 1 1 0-4.544h.102a1.874 1.874 0 0 0 1.715-1.227c.31-.701.161-1.52-.375-2.068l-.068-.068a2.272 2.272 0 0 1 1.608-3.88c.603 0 1.181.239 1.607.666l.068.068a1.874 1.874 0 0 0 2.068.375h.09a1.874 1.874 0 0 0 1.137-1.716v-.193a2.272 2.272 0 1 1 4.544 0v.102c.003.747.449 1.421 1.136 1.716.7.309 1.52.16 2.067-.375l.068-.068a2.272 2.272 0 0 1 3.881 1.607c0 .603-.24 1.181-.666 1.607l-.068.069a1.874 1.874 0 0 0-.375 2.067v.091a1.874 1.874 0 0 0 1.715 1.136h.194a2.272 2.272 0 1 1 0 4.544h-.103a1.874 1.874 0 0 0-1.715 1.136z" style="fill:none;stroke-linecap:round;stroke-linejoin:round;stroke-width:2.5px;stroke:#588dd0"/><path transform="translate(106.784 410.784)" d="M13.5 31.124V18h7.874v13.124" style="fill:none;stroke-linecap:round;stroke-linejoin:round;stroke-width:3px;stroke:#002d67"/><path transform="translate(107.91 412.66)" d="M4.5 12.187 16.311 3l11.811 9.187v14.436a2.625 2.625 0 0 1-2.625 2.625H7.124A2.625 2.625 0 0 1 4.5 26.623z" style="fill:none;stroke-linecap:round;stroke-linejoin:round;stroke-width:3px;stroke:#588dd0"/><path transform="translate(64.04 412.85)" d="M12.886 28.585c0 .74.606 1.347 1.347 1.347h5.386a1.35 1.35 0 0 0 1.347-1.347v-1.347h-8.08zM16.926 3C11.728 3 7.5 7.228 7.5 12.426c0 3.205 1.602 6.02 4.04 7.73v3.043c0 .74.605 1.347 1.346 1.347h8.08a1.35 1.35 0 0 0 1.346-1.347v-3.043c2.438-1.71 4.04-4.525 4.04-7.73C26.352 7.228 22.124 3 16.926 3zm3.838 14.947-1.145.808v3.097h-5.386v-3.097l-1.145-.808a6.729 6.729 0 0 1-2.895-5.521c0-3.717 3.016-6.733 6.733-6.733s6.733 3.016 6.733 6.733a6.729 6.729 0 0 1-2.895 5.521z" style="fill:#578cd0"/><path transform="translate(76.54 439.85)" clip-path="url(#l)" style="fill:#002d67" d="M0 0h9v3H0z"/></svg>